<svg xmlns="http://www.w3.org/2000/svg" viewBox="0 0 117.39 117.43"><defs><style>.cls-1{fill:#fff;}</style></defs><title>camping</title><g id="Layer_2" data-name="Layer 2"><g id="Layer_2-2" data-name="Layer 2"><path class="cls-1" d="M89.34,81.85,61.77,16.41v-.14s0-.14-.13-.14h0A.14.14,0,0,0,61.5,16l-.14-.14a.14.14,0,0,1-.14-.14c-.14,0-.14-.14-.28-.14h-32a1.22,1.22,0,0,0-1.25.84L.09,81.85a1.32,1.32,0,0,0,.14,1.26,1.28,1.28,0,0,0,1.11.55H88a1.76,1.76,0,0,0,1.12-.55A1.08,1.08,0,0,0,89.34,81.85ZM59.13,63.19a.51.51,0,0,0,.14.42v.14a.14.14,0,0,0,.14.14L71.38,81H61.08V70.57a1.4,1.4,0,0,0-2.79,0V81H35L59.13,23.79v39.4ZM72.64,78l-9.33-13.5h9.33ZM22.23,81H3.43L29.75,18.36H58.29L32,81H25.15m50.27,0V63.19A1.32,1.32,0,0,0,74,61.8H61.91v-38L86,81Z"/><path class="cls-1" d="M46.32,103.5a11,11,0,0,1-4.73-1l-6.41-2.79a9.72,9.72,0,0,0-7.38,0l-5.71,2.51A11.82,11.82,0,0,1,11.93,102L3.29,97.8a1.37,1.37,0,0,1,1.12-2.51L13,99.47a9,9,0,0,0,7.8.14l5.71-2.51a11.57,11.57,0,0,1,9.6,0l6.41,2.78a9.37,9.37,0,0,0,7.52-.14l5.29-2.36a11.79,11.79,0,0,1,10.16.14l4.6,2.22a9.15,9.15,0,0,0,7.66.14l6.26-2.78A12.74,12.74,0,0,1,93.38,97l6.69,2.78a8.81,8.81,0,0,0,7.93-.41l7.24-4a1.43,1.43,0,0,1,1.4,2.5l-7.24,4a12,12,0,0,1-10.45.56l-6.4-2.65a9.37,9.37,0,0,0-7.24,0L79,102.53a12.56,12.56,0,0,1-10-.14l-4.6-2.23a8.58,8.58,0,0,0-7.8,0l-5.29,2.37A12.75,12.75,0,0,1,46.32,103.5Z"/><path class="cls-1" d="M46.32,117.43a11,11,0,0,1-4.73-1l-6.41-2.78a9.63,9.63,0,0,0-7.38,0l-5.71,2.5a11.78,11.78,0,0,1-10.16-.27l-8.64-4.18a1.1,1.1,0,0,1-.69-1.67,1.38,1.38,0,0,1,1.81-.7L13,113.53a9,9,0,0,0,7.8.14l5.71-2.51a11.57,11.57,0,0,1,9.6,0L42.56,114a9.46,9.46,0,0,0,7.52-.14l5.29-2.37a11.82,11.82,0,0,1,10.16.14l4.6,2.23a9.22,9.22,0,0,0,7.66.14l6.26-2.79a12.74,12.74,0,0,1,9.33-.14l6.69,2.79a8.84,8.84,0,0,0,7.93-.42l7.24-4a1.44,1.44,0,0,1,1.4,2.51l-7.24,4a12,12,0,0,1-10.45.55l-6.68-2.78a9.28,9.28,0,0,0-7.24,0l-6.27,2.78a12.52,12.52,0,0,1-10-.14l-4.6-2.22a8.35,8.35,0,0,0-7.52-.14l-5.29,2.36A13,13,0,0,1,46.32,117.43Z"/><path class="cls-1" d="M91.8,47.91a.82.82,0,0,0,.7.39h9.35v4.83a.81.81,0,0,0,.81.81.82.82,0,0,0,.82-.81V48.3h9.35a.82.82,0,0,0,.69-.39.8.8,0,0,0,0-.79l-4-7.85h1.3a.81.81,0,0,0,.72-1.19L108,31.27h.76a.81.81,0,0,0,.69-1.24l-6.14-9.87a.85.85,0,0,0-1.38,0L95.84,30a.8.8,0,0,0,0,.83.81.81,0,0,0,.71.41h.76l-3.56,6.81a.82.82,0,0,0,.73,1.19h1.29l-4,7.85A.82.82,0,0,0,91.8,47.91Zm10.86-25.78,4.68,7.52H98Zm-3.54,9.14h7.09l3.32,6.38H95.8Zm-1.54,8h10.17l3.75,7.4H93.82Z"/><path class="cls-1" d="M75.59,20.72a.58.58,0,0,0,.51.29H83v3.56a.6.6,0,0,0,1.2,0V21h6.9a.61.61,0,0,0,.51-.29.63.63,0,0,0,0-.58l-2.93-5.79h1a.58.58,0,0,0,.51-.29.59.59,0,0,0,0-.59l-2.61-5h.56a.59.59,0,0,0,.5-.91L84.1.26a.63.63,0,0,0-1,0L78.56,7.54a.59.59,0,0,0,.51.91h.56l-2.62,5a.6.6,0,0,0,.53.88h1l-2.94,5.79A.6.6,0,0,0,75.59,20.72Zm8-19L87,7.26H80.15ZM81,8.45H86.2l2.45,4.7H78.53Zm-1.14,5.9h7.5l2.77,5.46h-13Z"/></g></g></svg>