<svg xmlns="http://www.w3.org/2000/svg" viewBox="0 0 117.43 113.25"><defs><style>.cls-1{fill:#3d88ac;}</style></defs><title>exploringb</title><g id="Layer_2" data-name="Layer 2"><g id="Layer_2-2" data-name="Layer 2"><path class="cls-1" d="M111.73,64.06H106.3V41h10V22.29h-10V11c0-6.07-5.41-11-12.07-11H23.11C16.45,0,11,4.93,11,11V22.31H.72V41H11V64.06H5.71A5.48,5.48,0,0,0,0,69.27V108a5.48,5.48,0,0,0,5.71,5.21H21.48A5.49,5.49,0,0,0,27.2,108V91.35H39c.21,3.43,3.57,6.19,7.76,6.19H70.61c4.19,0,7.55-2.76,7.76-6.19H90.24V108A5.48,5.48,0,0,0,96,113.25h15.77a5.48,5.48,0,0,0,5.71-5.21V69.27A5.47,5.47,0,0,0,111.73,64.06ZM29.37,66.15c-4.82,0-8.73-3.56-8.73-8s3.91-8,8.73-8,8.73,3.56,8.73,8S34.19,66.15,29.37,66.15Zm42.65,0H45.3V50.24H72ZM23.74,36.05V11.57H93.6V36.05Zm64.35,30.1c-4.83,0-8.73-3.56-8.73-8s3.9-8,8.73-8,8.73,3.56,8.73,8S92.91,66.15,88.09,66.15Z"/></g></g></svg>