<svg xmlns="http://www.w3.org/2000/svg" viewBox="0 0 117.43 117.74"><defs><style>.cls-1{fill:#fff;}</style></defs><title>exploring</title><g id="Layer_2" data-name="Layer 2"><g id="Layer_2-2" data-name="Layer 2"><path class="cls-1" d="M58.53,103.21a1.47,1.47,0,0,0-1.47,1.47v11.6a1.47,1.47,0,0,0,2.94,0v-11.6A1.47,1.47,0,0,0,58.53,103.21Z"/><path class="cls-1" d="M58.53,83.61a1.47,1.47,0,0,0-1.47,1.47v8.66a1.47,1.47,0,0,0,2.94,0V85.08A1.47,1.47,0,0,0,58.53,83.61Z"/><path class="cls-1" d="M58.53,66.48a1.46,1.46,0,0,0-1.47,1.46v5.74a1.47,1.47,0,0,0,2.94,0V67.94A1.46,1.46,0,0,0,58.53,66.48Z"/><path class="cls-1" d="M67.75,54.31a.84.84,0,0,0,.08.27L101.9,117a1.44,1.44,0,0,0,1.29.76,1.5,1.5,0,0,0,.7-.17,1.47,1.47,0,0,0,.58-2L71,54.31h3.55a1.58,1.58,0,0,0,.14.36l39.94,62.4a1.47,1.47,0,0,0,1.24.67,1.45,1.45,0,0,0,.79-.23,1.47,1.47,0,0,0,.44-2L78,54.31h38a1.47,1.47,0,1,0,0-2.93H103L78,8a1.52,1.52,0,0,0-2.54,0L63,29.63,46.24.68a1.52,1.52,0,0,0-2.54,0L14.43,51.38h-13a1.47,1.47,0,1,0,0,2.93H39.39L.23,115.48a1.46,1.46,0,0,0,.45,2,1.42,1.42,0,0,0,.79.23,1.47,1.47,0,0,0,1.23-.67l39.94-62.4a1.58,1.58,0,0,0,.14-.36h3.56L12.89,115.57a1.46,1.46,0,0,0,.59,2,1.35,1.35,0,0,0,.7.18,1.46,1.46,0,0,0,1.29-.76l34.06-62.4a1.43,1.43,0,0,0,.09-.27h7.44v3.57a1.47,1.47,0,0,0,2.94,0V54.31ZM64.66,32.55l12-20.86L99.61,51.38H75.51L64.65,32.56A0,0,0,0,1,64.66,32.55ZM45,4.35l27.15,47H17.82Z"/></g></g></svg>