<svg xmlns="http://www.w3.org/2000/svg" viewBox="0 0 118.18 97.21"><defs><style>.cls-1{fill:#fff;stroke:#fff;stroke-miterlimit:10;stroke-width:0.75px;}</style></defs><title>fishing</title><g id="Layer_2" data-name="Layer 2"><g id="Layer_2-2" data-name="Layer 2"><path class="cls-1" d="M.38,67.48v2.09c3.34,0,6.23,1.46,9.3,3S16,75.87,20,75.87s7.19-1.69,10.26-3.26,6-3,9.31-3,6.24,1.46,9.31,3,6.31,3.26,10.26,3.26,7.19-1.69,10.26-3.26,6-3,9.31-3S84.9,71,88,72.61s6.32,3.26,10.26,3.26,7.19-1.69,10.27-3.26,6-3,9.3-3V67.48c-3.94,0-7.19,1.68-10.26,3.26s-6,3-9.31,3-6.23-1.46-9.3-3-6.32-3.26-10.27-3.26-7.19,1.68-10.26,3.26-6,3-9.31,3-6.24-1.46-9.31-3-6.32-3.26-10.26-3.26-7.2,1.68-10.27,3.26-6,3-9.3,3-6.24-1.46-9.31-3S4.32,67.48.38,67.48Z"/><path class="cls-1" d="M7.78,22.45l-2,.49A40.27,40.27,0,0,0,10.6,34.32a15.37,15.37,0,0,0,6.81,6.12c2.89,1.15,6.41.94,10.26-1.4,7.07-4.29,12.9-3.77,17.07-2.23a18.94,18.94,0,0,1,5.4,3.06,4.15,4.15,0,0,0-.48,3.26l1.25,4.64a14.67,14.67,0,0,0-6.49,16.3l.22.84L45,66.1,71.29,59l1.46,5.45,2-.54L73.32,58.5l-.54-2A14.7,14.7,0,0,0,60.62,45.73c-.53-.07-1.07-.11-1.61-.13L57.76,41a4.21,4.21,0,0,0-5.13-3,4.52,4.52,0,0,0-1,.42,21,21,0,0,0-6.19-3.57c-4.64-1.7-11.3-2.2-18.88,2.41-3.43,2.08-6.1,2.16-8.4,1.24a13.51,13.51,0,0,1-5.83-5.33A39.13,39.13,0,0,1,7.78,22.45ZM54,40a2.08,2.08,0,0,1,1.73,1.54l1.13,4.21a16.69,16.69,0,0,0-2.07.38,16,16,0,0,0-2,.71l-1.13-4.21A2.07,2.07,0,0,1,53.17,40,2.2,2.2,0,0,1,54,40Zm5.1,7.73a12.5,12.5,0,0,1,8.39,3.69L46.44,57a12.48,12.48,0,0,1,6-7.71l.19-.1a12.12,12.12,0,0,1,5.61-1.5h.27C58.71,47.7,58.91,47.68,59.11,47.69ZM69,53.15A12.68,12.68,0,0,1,70.75,57h0l-24.3,6.51a12.32,12.32,0,0,1-.39-4.24Z"/><path class="cls-1" d="M.38,48.6v2.1c2.33,0,4.44,1.39,6.74,3S11.92,57,15.05,57s5.63-1.75,7.93-3.33,4.42-3,6.75-3,4.45,1.39,6.75,3c.61.42,1.24.85,1.89,1.26a20.87,20.87,0,0,1,.68-2.07c-.46-.29-.92-.6-1.39-.92-2.3-1.57-4.79-3.33-7.93-3.33s-5.62,1.76-7.93,3.33-4.42,3-6.75,3-4.44-1.39-6.75-3S3.51,48.6.38,48.6Zm88.07,0c-3.14,0-5.63,1.76-7.93,3.33-.73.5-1.44,1-2.14,1.38.18.5.34,1,.48,1.54h0l.13.52c.94-.53,1.85-1.12,2.71-1.71,2.3-1.57,4.42-3,6.75-3s4.44,1.39,6.75,3S100,57,103.13,57s5.62-1.75,7.92-3.33,4.42-3,6.75-3V48.6c-3.13,0-5.62,1.76-7.92,3.33s-4.42,3-6.75,3-4.45-1.39-6.75-3S91.58,48.6,88.45,48.6Z"/><path class="cls-1" d="M.38,88.45v2.09c3.34,0,6.23,1.46,9.3,3S16,96.83,20,96.83s7.19-1.68,10.26-3.26,6-3,9.31-3,6.24,1.46,9.31,3,6.31,3.26,10.26,3.26,7.19-1.68,10.26-3.26,6-3,9.31-3S84.9,92,88,93.57s6.32,3.26,10.26,3.26,7.19-1.68,10.27-3.26,6-3,9.3-3V88.45c-3.94,0-7.19,1.68-10.26,3.26s-6,3-9.31,3-6.23-1.46-9.3-3-6.32-3.26-10.27-3.26-7.19,1.68-10.26,3.26-6,3-9.31,3-6.24-1.46-9.31-3-6.32-3.26-10.26-3.26-7.2,1.68-10.27,3.26-6,3-9.3,3-6.24-1.46-9.31-3S4.32,88.45.38,88.45Z"/><path class="cls-1" d="M96.83,15.05a8.39,8.39,0,0,1,8.09,6.29h6.59v2.1h-8.38a6.3,6.3,0,0,0-12.59,0H78v-2.1H88.75A8.38,8.38,0,0,1,96.83,15.05Z"/><path class="cls-1" d="M105.22,29.73v2.1H96.83v-2.1Z"/><path class="cls-1" d="M25.54.38a8.38,8.38,0,0,0-8.09,6.29H10.86V8.76h8.39a6.29,6.29,0,1,1,12.58,0H44.41V6.67H33.63A8.38,8.38,0,0,0,25.54.38Z"/><path class="cls-1" d="M17.15,15.05v2.1h8.39v-2.1Z"/></g></g></svg>