<svg xmlns="http://www.w3.org/2000/svg" viewBox="0 0 117.24 117.43"><defs><style>.cls-1{fill:#163514;}</style></defs><title>fishingg</title><g id="Layer_2" data-name="Layer 2"><g id="Layer_2-2" data-name="Layer 2"><path class="cls-1" d="M57.27,16.12a7.83,7.83,0,0,0,5.67-2.34,7.74,7.74,0,0,0,2.38-5.72,7.69,7.69,0,0,0-2.38-5.71A7.76,7.76,0,0,0,57.27,0a7.55,7.55,0,0,0-5.62,2.35,7.85,7.85,0,0,0-2.3,5.71,7.9,7.9,0,0,0,2.3,5.72A7.63,7.63,0,0,0,57.27,16.12Z"/><path class="cls-1" d="M102.62,105.79a28.73,28.73,0,0,0-7.38,1.34A28.87,28.87,0,0,1,88,108.48a28.9,28.9,0,0,1-7.38-1.35,28.86,28.86,0,0,0-7.39-1.34,28,28,0,0,0-7.3,1.34,28.19,28.19,0,0,1-7.31,1.35,28.9,28.9,0,0,1-7.38-1.35A28.68,28.68,0,0,0,44,105.79a28.8,28.8,0,0,0-7.38,1.34,28.72,28.72,0,0,1-7.24,1.35A28.9,28.9,0,0,1,22,107.13a28.8,28.8,0,0,0-7.38-1.34,28,28,0,0,0-7.31,1.34A28.12,28.12,0,0,1,0,108.48v9a28.12,28.12,0,0,0,7.31-1.35,28,28,0,0,1,7.31-1.34,28,28,0,0,1,7.31,1.34,28.35,28.35,0,0,0,7.45,1.35,28.72,28.72,0,0,0,7.24-1.35A28.8,28.8,0,0,1,44,114.74a28,28,0,0,1,7.31,1.34,28.19,28.19,0,0,0,7.31,1.35,28.19,28.19,0,0,0,7.31-1.35,28,28,0,0,1,7.3-1.34,28.08,28.08,0,0,1,7.32,1.34A28.21,28.21,0,0,0,88,117.43a28.73,28.73,0,0,0,7.23-1.35,28.79,28.79,0,0,1,7.39-1.34,27.89,27.89,0,0,1,7.3,1.34,28.18,28.18,0,0,0,7.32,1.35v-9a28.89,28.89,0,0,1-7.39-1.35A28.69,28.69,0,0,0,102.62,105.79Z"/><path class="cls-1" d="M37.41,85.2V49.52l16-16.11L59.86,40a4.14,4.14,0,0,0,2.87,1H75.25c2.58,0,3.88-1.3,3.88-3.88V35.71L105.32,9.37V61.81l3,1.37V5.63a1.25,1.25,0,0,0-1-1.29,1.25,1.25,0,0,0-1.58.29L76.68,33.69a2.85,2.85,0,0,0-1.43-.43H64.31q-1-.85-11.79-11.8C52,21,49.76,18.68,46.8,18.84a6.08,6.08,0,0,0-4.07,1.9L25.61,37.86a3.32,3.32,0,0,0-1.15,2.6V85.2"/><polygon class="cls-1" points="61.74 48 54.2 48 54.2 90.31 0 90.31 0 97.85 61.74 97.85 61.74 48"/></g></g></svg>