<svg xmlns="http://www.w3.org/2000/svg" viewBox="0 0 116.66 116.66"><defs><style>.cls-1{fill:#fff;}</style></defs><title>hiking</title><g id="Layer_2" data-name="Layer 2"><g id="Layer_2-2" data-name="Layer 2"><path class="cls-1" d="M43.08,48.68h.19a1.48,1.48,0,0,0,.92-.33,1.45,1.45,0,0,0,.53-1c0-.55.84-13.66-3.6-19.19A10.29,10.29,0,1,0,25.08,41C29.76,46.84,42.53,48.6,43.08,48.68ZM25.77,33.78a7.38,7.38,0,0,1,7.31-6.58,7.67,7.67,0,0,1,.82.05,7.32,7.32,0,0,1,5,2.71c2.7,3.36,3.11,11.3,3,15.57-4.13-.76-11.67-2.78-14.53-6.34A7.34,7.34,0,0,1,25.77,33.78Z"/><path class="cls-1" d="M39.64,62a21.77,21.77,0,0,0-6.19-.64,1.46,1.46,0,1,0,.15,2.91,19,19,0,0,1,5.37.57,1.24,1.24,0,0,0,.33,0A1.46,1.46,0,0,0,39.64,62Z"/><path class="cls-1" d="M71.91,74.46l-.4,0a21.74,21.74,0,0,1-4.94-1.05,1.45,1.45,0,1,0-.89,2.77,24.2,24.2,0,0,0,5.6,1.19l.46,0h.09a1.46,1.46,0,0,0,.08-2.91Z"/><path class="cls-1" d="M61.29,71.3c-1.63-.73-3.26-1.52-5.22-2.49a1.46,1.46,0,0,0-1.29,2.62c2,1,3.65,1.78,5.32,2.53a1.37,1.37,0,0,0,.59.13,1.46,1.46,0,0,0,.6-2.79Z"/><path class="cls-1" d="M82.64,72.51a26.93,26.93,0,0,1-5.28,1.59A1.46,1.46,0,0,0,77.63,77a1.24,1.24,0,0,0,.27,0,29.22,29.22,0,0,0,5.86-1.76,1.46,1.46,0,1,0-1.12-2.69Z"/><path class="cls-1" d="M85,0A31.72,31.72,0,0,0,56.7,17.37l-12-15.43a1.45,1.45,0,0,0-2-.25L.56,34.5a1.46,1.46,0,0,0-.25,2l62,79.55a1.49,1.49,0,0,0,1.16.56,1.42,1.42,0,0,0,.89-.31l42.07-32.81a1.5,1.5,0,0,0,.55-1,1.47,1.47,0,0,0-.3-1.07L92,62.6A31.69,31.69,0,0,0,85,0ZM43.27,4.89l12.09,15.5a31.64,31.64,0,0,0,1.06,25.07,23.83,23.83,0,0,0-7.18,20c-1.42-.65-2.67-1.19-3.85-1.66a1.47,1.47,0,0,0-1.9.82,1.46,1.46,0,0,0,.82,1.89c1.54.61,3.21,1.35,5.25,2.32a1.62,1.62,0,0,0,.38.09c.2.75.43,1.5.71,2.28a32.55,32.55,0,0,1-.84,24L27.32,66.44a12.56,12.56,0,0,1,1.31-.84A1.46,1.46,0,0,0,27.25,63a15.22,15.22,0,0,0-1.72,1.11L3.5,35.9ZM91.72,67a41.65,41.65,0,0,1-4.11,2.94,1.46,1.46,0,1,0,1.54,2.48,45.59,45.59,0,0,0,4.36-3.12l10,12.84-39.76,31L51.82,97.85a34.89,34.89,0,0,0,1.57-27.6c-4.34-12,2.26-19.93,4.47-22.14A31.7,31.7,0,0,0,85,63.39a31.11,31.11,0,0,0,3.76-.23ZM85,60.47a28.78,28.78,0,1,1,28.78-28.78A28.81,28.81,0,0,1,85,60.47Z"/><path class="cls-1" d="M85,5.92A25.76,25.76,0,0,0,66.87,50a1.07,1.07,0,0,0,.15.22,1.19,1.19,0,0,0,.36.24A25.76,25.76,0,1,0,85,5.92ZM68.06,16.36l2.38,2.37a1.45,1.45,0,0,0,2.06,0,1.45,1.45,0,0,0,0-2.06l-2.35-2.35A22.71,22.71,0,0,1,83.64,8.9v3.35a1.46,1.46,0,0,0,2.92,0V8.92a22.71,22.71,0,0,1,13.8,5.93L97.91,17.3a1.45,1.45,0,0,0,0,2.06,1.45,1.45,0,0,0,2.06,0l2.42-2.42a22.68,22.68,0,0,1,5.33,12.84h-3.23a1.46,1.46,0,1,0,0,2.91h3.28a22.74,22.74,0,0,1-5.43,13.82l-2.09-2.09a1.46,1.46,0,0,0-2.06,2.06l2.11,2.11a22.72,22.72,0,0,1-13.74,5.88V51.6a1.46,1.46,0,0,0-2.92,0v2.89A22.84,22.84,0,0,1,70.2,49.13l2-2a1.46,1.46,0,0,0-2.06-2.06l-2,2a22.71,22.71,0,0,1-6-14.4h3.08a1.46,1.46,0,1,0,0-2.91h-3A22.74,22.74,0,0,1,68.06,16.36Z"/><path class="cls-1" d="M75.89,42.59a1.44,1.44,0,0,0,.67-.16l12.17-6.25a1.47,1.47,0,0,0,.63-.63l6.25-12.17a1.45,1.45,0,0,0-2-2L81.48,27.67a1.5,1.5,0,0,0-.64.63L74.59,40.47a1.48,1.48,0,0,0,.27,1.7A1.46,1.46,0,0,0,75.89,42.59Zm7.34-12.54,7.72-4L87,33.8l-7.72,4Z"/></g></g></svg>