<svg xmlns="http://www.w3.org/2000/svg" viewBox="0 0 117.52 107.85"><defs><style>.cls-1{fill:#fff;fill-rule:evenodd;}</style></defs><title>hiking2</title><g id="Layer_2" data-name="Layer 2"><g id="Layer_2-2" data-name="Layer 2"><path class="cls-1" d="M24.27,0a8.46,8.46,0,1,1-8.46,8.46A8.48,8.48,0,0,1,24.27,0ZM36,16c5.72,7.29,13.78,24.06,16.81,33.14.65,2.21,1.08,3.9,1.08,3.9a12.41,12.41,0,0,0-3.54,3.81Q57.65,79.74,65,102.58l-6.59,5.27L40,70.29l-7.47,9-1.32,9q4.95,8.67,9.88,17.35l-5,.88-6.15-10.1-2.19,11.2-10.33-2.2q2.08-11.31,4.18-22.62l-15.82-27-2.42.88L0,51,18.89,37.78l5-16.94m-13.53,33,13,20.86a153.9,153.9,0,0,1,9.89-23.06q-2.75-5.26-5.5-10.54-1.53,2.74-3.07,5.49Zm30-38.22q1.49-4.78,7.47-4.18l11,23.51Q56.39,39,51.3,38.66S40.54,15.82,40.32,15.6Zm40.07-6a7.71,7.71,0,1,1-7.71,7.71A7.73,7.73,0,0,1,80.39,9.56Zm10,13.55c5.22,6.65,13.66,23.3,16.42,31.58.51,1.75,1,3.21,1,3.21a9.91,9.91,0,0,0-3.73,3.51l13.41,41.64-6,4.8L94.7,73.62q-3.4,4.11-6.8,8.21c-.41,2.73-.8,5.47-1.21,8.21q4.52,7.9,9,15.81l-4.6.8-5.61-9.21q-1,5.11-2,10.21l-9.41-2L77.89,85Q70.68,72.71,63.47,60.41l-2.2.8-3-5.21L75.48,44c1.34-4.53,3.31-11.3,4.65-15.84M67.68,58.61q5.89,9.49,11.81,19a140,140,0,0,1,9-21q-2.49-4.8-5-9.6l-2.8,5Q74.18,55.3,67.68,58.61ZM95.1,23.78q1.37-4.37,6.81-3.81,5,10.71,10,21.42a6.7,6.7,0,0,1-6.81,3.41S95.3,24,95.1,23.78Z"/></g></g></svg>