<svg xmlns="http://www.w3.org/2000/svg" viewBox="0 0 220.53 425.78"><defs><style>.cls-1{fill:#275972;}</style></defs><title>mountainBack2</title><g id="Layer_2" data-name="Layer 2"><g id="Layer_2-2" data-name="Layer 2"><polygon class="cls-1" points="7.2 411.23 0 401.42 1.96 396.48 1.96 386.37 1.31 381.19 3.6 374.6 7.2 370.35 5.89 360.21 9.41 359.06 9.41 352.99 9.41 346.79 12.37 340.6 13.45 336.42 16.41 331.97 22.61 325.51 24.63 321.6 27.19 319.44 31.5 314.19 32.45 308.94 31.64 302.6 33.52 296.94 36.35 293.44 37.57 286.84 35.81 283.47 34.6 279.97 34.6 277.14 35.55 273.77 38.37 271.75 40.66 267.98 42.95 261.51 42.95 244 45.65 241.44 48.34 235.64 50.1 232.27 49.29 228.64 48.61 225 47.54 221.36 47.54 215.7 49.02 212.6 50.1 210.31 50.77 202.36 49.69 199.4 47.4 196.71 47.94 188.76 48.75 185.39 49.69 181.08 48.75 176.63 51.71 174.21 55.08 173.53 59.12 166.79 60.6 163.7 63.3 160.19 65.99 157.23 70.04 153.59 72.6 150.22 74.35 147.39 77.85 144.43 85.66 136.88 88.63 133.11 91.46 130.82 95.5 127.99 98.46 125.3 101.83 116.41 103.45 110.34 107.09 104.82 112.34 96.06 119.35 88.25 126.62 82.32 132.15 77.47 137.27 72.62 146.02 67.63 149.93 63.46 157.34 56.32 164.08 51.87 166.77 51.87 169.33 48.1 170.95 44.33 177.69 36.38 184.29 29.37 190.89 19.8 197.63 9.16 198.97 2.83 198.97 0.67 200.83 0.67 202.74 0 203.96 1.62 206.52 1.89 209.88 2.69 213.25 4.55 215.54 6.33 220.53 7.78 220.53 425.78 7.2 411.23"/></g></g></svg>