<svg xmlns="http://www.w3.org/2000/svg" xmlns:xlink="http://www.w3.org/1999/xlink" viewBox="0 0 1650 709.5"><defs><style>.cls-1,.cls-2{fill:#012f43;}.cls-1{opacity:0.6;}.cls-3{fill:url(#linear-gradient);}</style><linearGradient id="linear-gradient" x1="563.45" y1="34.28" x2="1333.33" y2="951.79" gradientUnits="userSpaceOnUse"><stop offset="0" stop-color="#2b4154"/><stop offset="0.59" stop-color="#153e51"/><stop offset="1" stop-color="#0c3d4f"/></linearGradient></defs><title>mountainfront</title><g id="Layer_2" data-name="Layer 2"><g id="Layer_2-2" data-name="Layer 2"><path class="cls-1" d="M683.7,694.73l2.35,2.25h3.19s1.89.59,2.24,1.18,3.78,2.12,3.78,2.12l2.84-1.06,2.12-2.48v-3l-.59-2L696.8,691l-3.52-3-5.22.71H683.7L682,686.23,680,682l-4-2.49-5.67,1-1.77,2.36v5.67s.7,2.25,1.06,2.36,3.07,2.49,3.07,2.49h7.56Z"/><path class="cls-2" d="M683.24,631.15l2.35-2.25h3.19s1.89-.59,2.25-1.18,3.78-2.12,3.78-2.12l2.83,1.06,2.13,2.48v3l-.59,2-2.84.83-3.52,3-5.22-.71h-4.36l-1.66,2.48-2,4.26-4,2.48-5.67-.95-1.77-2.36v-5.67s.71-2.25,1.06-2.36a39.24,39.24,0,0,0,3.08-2.48h7.56Z"/><polygon class="cls-2" points="698.12 601.74 700.36 602.44 703.08 602.09 703.08 600.08 699.77 600.08 698.12 601.74"/><polygon class="cls-3" points="78.73 496.81 83.02 494.06 91.5 488.06 101.44 476.32 114.58 468.05 126.98 463.5 162.1 434.74 165.41 431.15 169.83 428.87 180.15 428.27 185.18 425.51 189.48 422.4 193.04 417.61 199.18 408.26 207.16 402.03 213.79 399.99 215.88 399.99 217.1 400.83 218.58 401.79 220.3 401.79 223 400.95 224.96 399.99 227.79 396.76 235.89 383.93 238.72 376.98 240.19 374.11 246.45 365.84 250.75 360.21 256.15 352.18 262.04 342.83 267.45 336.48 270.64 333.01 276.53 328.93 280.95 326.66 283.9 326.66 285.99 326.66 287.95 327.62 288.93 328.69 290.41 330.01 291.39 331.45 293.23 333.13 294.95 334.81 298.08 335.52 303.67 335.28 315.95 333.13 322.33 332.29 338.66 324.86 353.52 317.31 359.9 315.63 369.73 307.96 374.86 304.55 377.9 302.77 380.7 302.77 384.23 298.62 387.63 296.36 389.21 294.22 393.71 289.47 396.03 284.96 397 281.4 397 278.31 397 276.77 398.58 274.75 401.26 272.37 404.42 268.57 408.93 263.47 413.79 257.41 417.81 253.37 421.58 250.05 422.43 248.27 422.43 246.61 423.16 245.42 425.23 244.59 426.45 243.99 427.95 242.69 429.61 242.69 430.83 242.69 433.38 241.5 437.15 239.24 442.78 235.28 450 229.24 456.08 222.48 458.5 219.41 462.17 217.56 464.37 216.34 467.31 215.93 469.83 214.19 473.3 212.03 476.97 209.88 483.26 206.71 489.46 203.02 492.08 201.59 493.45 201.07 495.75 201.59 499.11 201.07 502.05 201.07 505.51 200.25 507.82 200.87 512.55 201.18 514.86 201.18 517.37 202 519.79 202 522.52 200.87 526.61 198.72 532.07 197.69 537.84 195.24 541.41 194.21 545.92 192.78 547.81 190.53 550.12 189.09 553.37 189.09 557.36 186.94 561.66 184.74 566.91 178.13 574.47 169.86 577.72 167.28 579.61 165.33 580.24 162.87 583.07 162.36 584.96 159.59 587.59 157.65 589.16 154.78 589.16 150.89 589.58 147.61 593.46 141.57 596.93 137.06 600.6 131.02 602.17 128.97 610.67 123.44 613.4 120.26 614.98 118.01 619.39 116.58 624 110.94 626.63 108.59 630.72 107.46 633.45 107.46 635.65 105.31 637.44 103.88 641.32 102.75 645.1 102.03 650.77 98.45 656.43 98.45 661.88 95.77 665.18 93.42 672.03 91.51 682.98 81.61 690.99 70.23 698.82 62.59 703 57.58 706.56 57.12 701.93 47.13 701.67 45.92 701.93 44.35 702.53 42.7 703.18 41.4 704.6 40.7 711.19 34.45 714.93 29.68 720.18 19.6 726.21 15.62 732.04 12.12 738.31 6.87 748.59 6.87 759.09 2.72 764.27 3.88 770.11 5.57 772.9 7.25 775.16 8.81 776.76 11.4 776.76 12.83 776.76 14.51 775.03 17.24 773.04 18.66 771.58 20.74 770.51 23.98 769.58 29.42 770.78 34.48 772.77 40.83 776.76 50.44 780.35 52.72 784.38 56.24 788.84 63.07 793.5 70.32 799.45 78.6 804.33 92.48 807.3 97.86 807.3 111.33 814.94 120.23 814.94 131 814.94 136.59 818.76 144.67 820.88 153.99 820.88 162.89 823.21 172.42 825.97 180.5 828.31 184.74 838.07 191.47 841.04 191.89 842.95 194.16 845.92 196.65 852.28 198.72 859.5 206.38 862.26 211.56 865.02 217.15 869.26 220.47 871.9 223.36 875.28 238.71 876.87 245.31 877.67 256.38 879.66 260.66 880.66 265.9 885.83 275.42 907.33 290.38 919.27 297.95 934 309.8 936.78 311.9 942.91 311.9 949.59 311.9 957.67 316.87 965.19 323.66 972.35 331.05 976 336.52 983.3 347.21 988.9 351.96 993.28 359.8 1013.98 372.87 1035.16 391.4 1042.22 396.87 1049.28 398.53 1057.8 396.87 1068.51 394.96 1072.41 397.34 1077.32 400.19 1078.73 402.33 1089.69 412.07 1095.05 417.54 1103.08 422.76 1105.27 425.38 1110.38 425.85 1117.2 426.09 1122.07 426.56 1127.42 428.23 1133.27 426.56 1137.89 427.04 1142.76 425.85 1146.66 424.17 1150.07 424.17 1157.37 424.17 1159.56 421.1 1169.54 415.87 1172.95 412.07 1177.82 409.22 1180.5 407.32 1184.63 407.32 1188.77 405.66 1190.96 403.99 1190.96 400.19 1192.18 397.1 1197.05 393.54 1201.43 388.07 1204.84 380.71 1211.41 376.43 1214.09 372.63 1217.74 366.45 1224.07 356 1226.26 350.77 1229.43 347.45 1231.86 345.31 1234.79 343.17 1238.92 341.03 1243.55 336.28 1249.88 332.24 1256.69 327.49 1261.32 323.69 1267.41 323.45 1275.2 318.46 1279.58 313.47 1290.29 311.9 1297.84 313.47 1305.63 311.9 1312.2 311.9 1314.88 311.9 1321.94 307.53 1325.35 304.44 1329.73 302.78 1333.87 299.69 1337.07 297.01 1339.44 298.24 1340.78 295.74 1341.59 293.91 1344.82 293.12 1348.17 291.29 1351.9 288.7 1357.8 281.52 1358.78 276.9 1363.52 273.23 1367.6 270.52 1372.9 262.24 1376.16 253.59 1381.76 247.91 1387.35 239.94 1393.15 227.81 1396.38 221.84 1395.54 216.5 1395.62 212.34 1397.94 206.31 1399.48 202.09 1402.42 196.51 1403.35 192.44 1404.89 187.46 1408.29 184.74 1412.77 182.49 1414.31 180.53 1417.87 179.92 1422.19 179.92 1425.44 179.92 1427.6 181.43 1431.77 181.58 1433.32 183.24 1434.86 184.74 1436.72 186.11 1439.65 183.69 1442.43 182.03 1446.45 177.66 1449.39 174.8 1454.33 171.63 1458.5 171.03 1460.66 169.86 1465.6 165.51 1468.94 161.76 1472.53 157.25 1475.87 153.49 1481.77 150.24 1486.13 142.23 1488.95 138.22 1490.75 134.71 1494.34 131.21 1494.34 127.95 1494.34 124.45 1494.34 120.19 1496.9 116.44 1498.96 110.43 1501.01 107.42 1501.01 104.92 1504.09 102.66 1505.63 98.16 1505.63 93.9 1508.71 84.89 1509.99 81.38 1509.99 77.37 1512.56 75.87 1512.56 72.11 1514.61 69.36 1514.61 65.6 1514.61 47.83 1517.94 42.7 1520 39.81 1521.28 35.31 1521.28 28.05 1525.9 22.04 1527.95 18.78 1530.77 14.27 1533.85 12.02 1536.42 10.02 1538.73 8.26 1538.73 6.01 1541.55 2.72 1545.4 2.72 1548.99 1 1553.87 0 1557.46 0 1561.31 2.25 1564.9 2.75 1568.75 6.26 1570.8 9.77 1571.85 11.6 1571.85 13.29 1572.97 14.98 1573.58 17.47 1574.5 19.95 1574.9 21.54 1576.43 23.83 1577.25 25.52 1577.96 27.11 1579.08 28.51 1582.45 29 1583.98 29.5 1587.13 29.5 1590.31 29.34 1594.26 29.09 1596.82 27.84 1597.96 26.35 1600.51 26.35 1602.67 26.35 1604.71 25.61 1607.14 23.86 1609.81 21.75 1611.98 20.26 1614.66 17.64 1616.32 15.28 1618.36 14.41 1622.18 12.54 1624.09 10.3 1626.51 10.18 1630.72 9.31 1632.76 7.69 1634.29 8.19 1650 7.08 1650 102.08 1650 686.08 1 686.08 0 507.08 31.64 508.42 47.68 498.63 61.71 498.63 78.73 496.81"/><polygon class="cls-2" points="779.82 190.05 764.49 205.24 779.82 231.05 800.35 244.06 800.35 231.05 790.29 221.8 792.93 215.4 787.65 210.12 779.82 190.05"/><path class="cls-2" d="M1104.36,441.75v7.81l3.42,10.25,5.37,6.83v9.28l10.25,10.74,3.9,15.62V514l-5.85,9.27L1119,535.92v7.36l3.41,9.76,4.88,10.74,3.91,8.78s-.49,5.86,0,7.32-.49,10.25,0,13.18,5.37,12.69,5.37,12.69l5.85,6.35,10.25,11.22,8.3,5.37s1.47-2,4.4,8.3l2.92,10.25h5.86l5.37,3.42,9.76,4.39,14.65,6.83L1214.19,676h15.61l-2-21-13.18-2.44-11.22-5.86,1.46-12.2s-3.42-5.37-3.42-6.83-13.17-10.25-13.17-10.25h-7.81l-6.35-5.37-12.2-6.84-8.79-15.13L1150.24,577s-3.41-4.39-5.36-4.88-5.37-13.17-5.37-13.17-2.93,2.92-3.42-5.37-.49-14.65-.49-14.65-1-5.85,1-5.85S1142,513.5,1142,513.5l-6.35-16.11-2.93-20-6.83-5.85-3.42-9.77s-6.34-6.34-6.34-8.78V441.75l.66-4.85s.21-.31.09-.31l-4.23-.14-3.89-.24-3.43-.31Z"/><path class="cls-2" d="M1043.48,457.63c.58.75,1.24,2.43,1.91,3.13a32.38,32.38,0,0,0,4.4,2.87,43.75,43.75,0,0,0,4.37,2.85c1.79.79,6.17,3.07,7.84,2.15,1.49-.82,0-4.11,0-5.49,0-.73,1.42-2.17,1-2.85-1.24-2.1-9-2.2-11.4-3.6-1.65-.95-3.06-4.72-5.14-4.87-1.58-.1-4.64,1.95-4.77,3.13C1041.6,455.69,1043,457,1043.48,457.63Z"/><path class="cls-2" d="M1644,283.14l.11-3.78c-1.18-.51-1.58-2.77-1.58-2.77l-1.78-1.5V271l-.2-8.73-.41-5.67h-2.59c-.26,0-.16.13-.14.17s-.14-.07-.34-.17c-.79-.4-2.29-3.17-2.29-3.17a24.78,24.78,0,0,0-4.37.3l-6.05,1.19-1.59,2.67-1.1,1.78-2.38.81-3.66.29-1.7-1.88h-2.57l-4.77.6-2.39-1.6-1.88-2.77-2.77-.3-3.18-2.49-.3-1.09-.89-.49-3-5.7-3.1-2.63-.65-3.07-2-1.54-1.76-4.63-4.61-.43-.22-5.72-.89-4.63-2.19-4.39,1.54-5.06-.67-4.41.23-5.7,2-3.1,1.76-4.16-.06-1.88,1.35-4.29,1.34-4.65-.25-3.54v-3.08l-1.21-3.78-2.33-.36-1.84.36-2.44.73-.25,1.35-2.2.13-1.84-1.24a40.52,40.52,0,0,1-2.57-3.17l-2.06-2.57-2.84.12s1.62,3.62,1.24,3.62.12,4.81.12,4.81a6.43,6.43,0,0,0,2.29,1c.76,0,2.16,2.31,2.16,2.31l-1.5,2.67-4.22.51-2.13,1.9-2.45,2.4-3.94,3.95-3.56,2.55a6.35,6.35,0,0,1-2.93,1c-1.4,0-6.21-3.44-6.21-3.44s.24-3.18.75-3.3,1.92-1.66,2.67-1.78,1.9-1.27,2.28-1.51.27,2.4.39-.27,0-6.11,0-6.11l.26-3.92s1-3.82,1.78-3.82,2.29-6.62,2.29-6.62l1.13-3.17s1-.12,1.78-.26.77-6.23.77-6.23l.38-3.42-2.16-1-1.66-1.14.52-3.94,1.9-1.15.25-2.15s2.16-1.41,2.16-2.3-.12-4.07-.12-4.07l-.89-3.56,1.66-6.23,1.9-3.94,1.05-5.71,2.51-4.06,5-4.21,4.45-8.25,2.28-5.73V90.81l2.17-2.31.26-3.56.24-4.81,3.82-4.21,4-5.72.62-1.28,3.18-3,2.81-5.22,2.29-5.34,1-5.07V44.53c0-5.84.63-13,.63-13l-1.14-.77-2.42-.12-1.78-.65a4.64,4.64,0,0,0-2.15.89c-1.41.89-1.78.38-1.78,1.54s-.26,4.31-.26,4.31v4.44l-.12,5.61-.89,3.29a11.18,11.18,0,0,1-1.54,2.29,8.06,8.06,0,0,0-1.27,2s0,.63-1.14,1a16,16,0,0,0-1.9.77l-3.82,2-3.05.15-1.4-3.32.77-7.12.24-8.9-.24-7V23.42l-.77-2.78-2.29-2.06h-1.15a4.69,4.69,0,0,0-3.6,2.06,228.86,228.86,0,0,0-3.48,35l-8.31,14.86-2.19,7.43-1.31,17-3,7.91v28.4l-6.56,2.19-3.94,6.12-2.61,7.87-2.63,8.29-2.18,4.37h-15.72l-3-.64-2.17-.61s-1.27.08-1.52.12a14.4,14.4,0,0,0-1.76,1.68,6.13,6.13,0,0,0-.24,1v2.21l.65.68.85,1.32,1.15,1.76,1.92,6-.22,8.54.22,13.23-.64,12.58.22,10.88-1,1.32a5.2,5.2,0,0,0-1,.42,3.85,3.85,0,0,0-.43,1.05v.67l-.12,1.41.12.51v2.35s.12,1.84.14,2a5.38,5.38,0,0,0,.53.85l.69,1s.4-.08.52,0,.67.51.67.51l.69,1.43v.51l-1,1.8-.71.28h-1.26l-2,.3-1.51,2,.76,12-2.16,2-2.67,1.4-3,1.64-2.67,2.93-1.66,2.41v10.17l2.28,3.2,2.67,1.64,2.69,1.39,1.4,1.54.75,3.56v2.67l1.53,3,1.4,1.9,1.52,2.17.64,2-.12,2-1.53,3.3V304l-.39,2.67.77,1.78,1.4,2.81,2.42,2h9.91l2.92-1,1.15-2.67v-2.55l.26-1.78-.38-2.53.12-1.92.38-3.56-.77-2.79.65-1.66,1.52-.12,1.15,1.27.89,1.9v1.4s-.26,1.78.37,1.78a8.4,8.4,0,0,1,2.12.65l.87.8.57,1,.28.7.24.81,2,1.34,1.28.81,2.38,1.21,1,2,1.09,1.18,2.55,2.06,2.36.89L1547,315l2.16,1.78h7.67l3-1.48,2.61-3.24,2.79-.3,2.55-1.76.69,1.28.89,1.47,1.58,2.17v1.86l1.07,2.65,1.48,1.47,1.19.89.87,1.66V325l1.58,1.37.4,1v1l3.2,2.1v1.92l1.31.91,1.42,1.82h1.41c.41,0,2-3.84,2-3.84l-.61-2.33-.1-2.43,1.11-.3,1.72-2.73V318l-2.83-.71-2.73-.71-2.23-.3-.5-1.21-.23-1.42.33-2.83,1.72.1,2.83.1a15.92,15.92,0,0,0,2.12.81H1589a20.45,20.45,0,0,0,3.13-.91l1.22-2,4-2.09,1.88-2.69,1.68-2,1.9-1.49,2.88-1.78,2.28-1.68,2.39-2.29,3.76.39h3.38l2.59.89V298l-3.1,2.28s-2,.89-2.08,1.48-.38,4.17-.38,4.17l-1.81.7-1.47,2.29-.71,1.58c-2.77,2.08-2.77,2.48-2.77,2.89s.3,1.07-.41,1.68a13.6,13.6,0,0,0-1.77,3.07l.4,1.78-.4,2.59.1,2.49.3,2.39a6.44,6.44,0,0,0,1.58.28,38.87,38.87,0,0,0,4.37-1.09l.2-1.58.58-1.5,1.4-2.67,2.39-2,3.58-6.15,1.68-1.68,1.39-2.79,2.67-2.87,3.68-3.38,1.68-.3,1.19-2.57,1.6-2,3.38-2.29,2.08-1.6s.79-1.39,1.1-2.08,1.09-1.19,1.37-1.88l.3-.71,3.08-1.68Zm-91.76-47.33-2.45,1.44-3-.43-4.51-.4h-2.65l-3.48,3.68-1.22,3.05-3.07,2-1.42-7.14v-3.69l-5.52-1V225.8l1.24-3.26-1-3.27-1.21-1.84-2.67-1.22-2.65-3.27-1.23-4.7h2.47l1.84,2.85,2.24,2.45,2.85,3.28,3.89,1.64H1533l5.93.4,4.29.2,2.45,2.05,3,2.24,3.48,3.38Z"/><path class="cls-2" d="M1093.34,626.06l-10.85-7.55L1078,607.59V595l-11.76-7.55V579l3.63-7.55-3.63-9.24-19-7.57L1040,537.86l-10-7.55L1013.7,516l-12.59-24.37-12.72-8.39-10-10.92V455.53l-9-5.87-10.85-8.42-8.14-11.76L944,416.06l-19-12.61-22.62-10.92H889.75l-9.06-12.6-34.38-44.52-31.66-10.08H793.84l-12.67-8.42-19.92,5.9-5.82,34.26-7.11-5.87-11.59-.11-5-13.59-4.36-19.43,3.88-9.8-5.88-4-13,8.45L698.81,306l-6.32,12.61-16.3,2.52-7.8-2.52L661.71,306h-10V297.6l7.25-1.68a9.63,9.63,0,0,1,2.78-2.77c1.6-.94,8.6-5.2,8.6-5.2l1-2.95-.59-2.41-3.4-1.85-5,3.87-4.61,1.13-6,5.17-4.54,3.71-2.38,4.45-4.79,4.45-7.59,3.89-5-.94-4.25-6.3-4.25,6.3-5.52,2.39v-5.54l-5.1-1.17-2.54,5.12-3,3.94v6.33l-2.54,4.74-3.42,5.51-5.52.4L585,327l-5.52-2.74-4.69,2.36-4.67,5.91v7.1l-6,.79-5.52-.79-6.38.79L547.55,346l-8.91,4.32-9.77,11.07-7.22.77-4.25,6.32v4.74l1.68,5.51-5.93-.38-4.69-10.66-5.11-1.59-7.64-5.5v-6.72l2.57-3.56,2.54-4.32-8.5-1.18-3,3.94-1.69,4-4.45-2.58v-3.32l1.11-2.07,1.56-7.86L479,335.58l-6,8.71-5.13,4.76-5.81-.63-8.7,3.92-2.44,5-9.63.1-8.42-24.74L422,338.49l2.48,8.1-5.57,20.62,9.38,4.9,8.24-6.54,8.78,4.38,1.76,12.51,1.32,3.92a22.54,22.54,0,0,0,2.88,3.36l3.26.36H459v-4.78l-.78-4.28-3.83-3.39a20.17,20.17,0,0,1-.39-2.31v-4.45l5,.55,2.67,6.21,1.34,7.84v6.39l.78,6.23V402h-7.1l-5.18-3.56-8-3.56-5.75-3.73-4.23-.36-2.1-7.84-4-7.46-9,6.4,3.81,14.24-5.54,2.26-10-.2-6,6.4-8.89,4.14V415s-4.89,6.21-5.78,6.62-10.9,2.69-10.9,2.69l-.91,2.07v8.87l-6.81,4.55-7,.58-10.75-.58L336,443.26l-14.87,1.47-2.52,12-6.32,5.58-8.55-2.64-6.63-4.62-6-5.94-6.63-7.34-4.1-5.87-1.58,3.52v10.27l2.83,8.22,6.32,4.12,3.5,5.86,1.58,8.81-3.5,7.91-3.78,4.69L281.27,497l-10.42,8.49,4.09,4.71,1.58,3.52,4.75,5.58-6.64.57-3.78,1.76L268,525.71l-6.63,5.58-3.81,4.11-11.06,1.76-6,1.76-2.21,2.93-3.47,3.22-9.87,10.15-13.5,11.72L203.18,573,194,564.1l-7.85,4.06L184,573.41l-6.12-5.25H173.1v5.25l-20.91,6.47-9.56,20.63v13.74l5.21,15.18L401,661.93l5.66-41.6-7-6.88,7-8.49,12.18-6.87,3.06-4.86,7.41-1.61.85-10.52-8.7-.81-.44-4.86-3.92-5.25-3.91.8L407,574.63l-.86,3.64v4.85l3.52,2.39-2.07,2h-2.51l-1.68-4.86-1.82-.43-1.81.72-1.58,1.18-.39,1.54-1.27,2.65-1,1.68-2.12,2.36-2.62.53h-2.69l-2.54-.75-2.2-1.61L381,588l-2-1.83-4.28-.67-2.36,1.9h-7.74l-4.85-.56-.85-3.82,1.81-3.37,3.16-2.36,5.21-4.16,3.16-2.81,3.26-.67,2.91,1.68,2.79.89,1.09,3.94,2.67,1.9,3.14,3.06,2.17,1.9,3.76-.12,2.17-.56.5-2.26v-3.92l-3.27-2.35L390,571.44l-2.54-1.69-1.58-1.9-.13-2V562l-.23-5.63-1-4.84-4.48-2-4.88-1.58-7.38.55-4,2.81L360.55,555,357.39,559l-3.4-1.44-5.44-.58-1.71,3.27-2.18,4.26-1.32,2.81L340.05,571l-2.9,1.35-3.76,2.48-1.94,2.47.86,3.83-.37,4.83-2.67,3.83-30.41-1-2.41-1.93v-10.8l-3.27-3.82-4.37.34-3,3.7-1.19,4.28-4.25,4.62-4.12,4h-4.12l-4.61.91-3.86-.67-3.52-1.71.59-3,4.12-3.82,6-4.16,5.31-4,3-2.48,15.39-11.14,18.42-12.14,26.4-17.66,23.5-22.15,21.94-21.38,2.2-5.1,7.83-5.94,6.42-2.31,6.4,1.32,2.52,3,3.18,5,3.91,2.64,5,1,2.49-4.31,4.28-5.29,4.63,3.66,3.19,2.62h5.36l4.62-3.63,2.85-6.28,5.36-5.94,6-2.33h7.48l1.07-3,3.21-3.63,3.21-7.63h7.1l5,2,.7,13.23-3.91,2.64-1.06,3v4.31l1.78,4,5,3.29,4.63,3,2.13,3.32L492,493.55h-6.4L481,495.86l-5.7,3,3.54,3.63-2.48,4.62L471,509.4l-4.27,2h-4.64l-3.19,1.32,5,3,.36,3.94-5,3,1.58,2.55,2.59,1.21,5.47,1.7-.78,4.09-6.5,3.87-5.21,2.41-2.33,2.91-2.34,3.13-4.43-.24-4.17-1.93h-6.76l-5.7,2.65-2.88,3.63,1.3,2.89,2.88,3.63,4.94-1.45,2.34-3.87,4.95-.48,3.62,2.65,3.91,1,4.15-.48,3.65-2.89,3.63-2.16,5.73-.48,4.94.72v2.4L472,553.93l-5.95,4.32-5.21,3.16-3.14,3.84-1.81,3.64-1.81,6.51,2.59,2.41,4.43-1,.52-4.6,2.85-5.29,6.24-3.15,6.5-5.8.26-3.84,1.3-4.12,1.58-3.63,4.14-4.09h4.69l4.69,1.2,3.89,2.17,5.21,1.95,4.14,3.12,2.1,2.41,2.07,2.91v3.61l-2.07,5.07-7.54,6.52-7,1.93-4.95,4.35-6.76,5.31-3.37,4.36-.28,3.85,1.32,2.91,4.4,1.44,3.91-3.15,2.59-4.33,2.88-3.39,2.85-2.41,3.91-2.91,3.37-1.2,1.3,3.39,1.55,4.33-.26,9.19.52,3.37,5.47,1.2,2.07,3.39,1.06,2.89,3.63,2.43v2.88l2.87,2.43,3.11,3.61,6-.48,1.55-3.13,3.11-5.07,6.5-.73,3.4-1.7-1.3-5.78-1.58-8,3.4-12.53-1.84-4.31v-6.9l2.3-7.75,3.71-12.48,8.83-.43,2.31-14.65s.93-6.45.93-7.74,5.11-6.47,5.11-6.47l-5.58-6.45-6.5-4.31-.46-8.17-4.18-8.21L543.67,485l-8.34-6-1.4-6V451l-8.35-6-4.17-6.9-3.73-5.18,3.73-3.87,7.88-2.14,7.41-1.3,7.43.87,4.18,6,4.17,3.43,8.81,4.74L565,445l4.63,5.6,6.48-2.16,6.5,6,1.87-12.91-6-5.61L572,426l3.24-3.87,8.37,4.31,8.81-12.29,8.92-2.62,3-15.71,14.46-7.67L623,407.59l6.81,23.14-21.62,18.11-8.36,1.3-2.31-4.74-3.7,10.32.9,6.47,1.4,5.17V476l-3.24,5.17-6.5,3L583.57,479l-8.37.86-5.11-4.3h-7.41l-4.63-5.17-2.77-6.45-7.91.41v5.6l.94,6.91,5.57.86,8.8,6,9.75.43,4.17,6,8.81,1.7,8.37,4.74,10.2-.43v7.34l2.78,6.44-10.68,1.3,2.8,9,3.24,6.91v4.3l-9.28,7.31V550l5.57,8.2.47,5.58-3.73,7.77L590,576.75l-4.17,11.19-9.27,1.73-7.88-5.61-7.43-12.48L556.65,575v9l4.17,11.19,4.64,7.33v4.31L555.72,609l-2.31,4.74,21.17,56.5,74.77-3.73-2-28.53-1.29-2.76-1.48-4L643,621.06l2.3-7.1,3.06-8.37,2.8-.55,2.56-2.12,2.75-15-2.07-4-1.66-3.1-1.4-3.47-1.38-2.3-2.9-2-1.24-3,.75-51.16,4.33-4.81,6.27-4.66,3.73-5.49,4.07-3.48v-21.7l5.9-2,3.73-3.18-.62-6.08-5.57-2.6-1.58-3.46V458l5.29-1.73.31-4.62.31-7.53-2.49-5.19-3.11-5.22-1.86-4-.94-6.95-10.41-11.27,8-69.74,8-4.73,13.47,32.78-1,16-7.13,25.13.31,6.93,1,5.79,6.84,7.24,3.75,4.33,4,.29,3.73-2.6,3.11-3.17,3.45-1.47,3.73-1.44,5.31,2,4.66-.29,3.11-6.37,6.56-2.89,2.8-3.77H732l.93,5.79v8.4l5.28,2.59,4.05,2.31.95,3.76-2.2,3.48L739.1,445l-1.25,5.51-.31,6.06,4.67,2.59,3.44-2.3,4.35-5.2.94-12.43,4.37-3.78,4.67-6.64,9.27-2.91L774,427l-.62,5.5-.93,7.24,2.18,3.76,3.75,2.3.94,3.18-1.56,4.93-8.5,4-6.16,9v5.22l2.82,5.77,3.34,3.78v10.13l2.57,3.17h4.66l5.62-1.73,2.8,2.6.31,5.48v6.37L784,512.1l-5.91,2-8.81-3.2-8.65,3.2-4.66,6.93-6.25,6.66-3.42,8.39-2.8,6.06,1.87,6.67,5.91,1.44,8.42,1.15,5,2.34.93,6.06-.31,6.08-5.59,5.78-1.56,4.64,2.18,6.64,6.87.57,5.9-4,3.11-2.88,3.45-1.16,5-4.64,3.76,3.17v10.13l-2.51,4.35L782.42,594l-9.36.29h-3.81l-6.16-.29-8.71.86-3.13,2.34-3.73,5.48-6.87.29-6.53-.29-4.69-.58-5.59,5.51,1.55,7.22,7.8,2.91,8.08,3.17v4.33l-4.66,2.91-11.53-.86-5,1.73L712,633l-6.25,1.44-8.73-4.9-5.28,2.59-7.49,4.33-9,5.8-8.4,5.41-.62,8.76,4.66,9.26,432.44,4.57V629.43ZM391,469.69l-4,1.88-5.36,5.29-6.37,4.69-7.72,6.54-3,4.67-9.4,6.54-6,2.19-4.69,6.86L338,513l-7.72,5-6.37,4.67-7.05,2.19-4.35,3.1v3.44l-5.39,4.67-6.37,2.81H295l-3.71.63-3,1.25-4.72,5.6L282.9,551l-5.36,2.81-6.72.32-3.36,4-6.38,6.54s-2,3.44-2,5V575l-3,3.42h-4.72l-2.67-3.1v-3.44H243l-5,6.54-6-1.54v-5l6.38-7.48,5.7-5.3,8.06-5.91,11.42-4.69,10.05-8.4h6.74l7.38-4.69,6.38-6.54,11.06-6.85,7.07-3.13,9.72-3.1,12.62-4.67,6.19-8.42V488.09l5-2.18h5.06l7-2.82,6-3.1,2.7-4.5,2.33-5.17,3.37-3.1H382l1.34-5.94h4.36l3,1.87,2.33,3.44Zm61.25-27.9L451,446.1l-2.64,1.59-6.06,1.22s-6.24-.19-7.25,0-4,1.33-4,1.33h-4V430.85l1.53-4.19h4.9l7.17,3.16,4.15,2.45,4.53,2.79,3,3.53ZM890.35,470.1l-2.88,4.14-1.91,5.34.64,9.79,2.88,4.14-1.92,6.83-2.22,3.56v17.8l-2.57,6.2h-4.79v-5l-5.42-9.18-2.87-8-7-5.94-3.84-5-1.61-6.23,1.92-6.83-.65-6.16-3.49-3.92-3.22-6.81v-7.43l3.22-6.2,2.87-1.5,4.46-1.78h4.14v-2.66l1.92-3.85-1.92-4.45L860,433l-3.83-5.94,2.56-5.34h5.47l7.95-1.49,3.84-3.85v-8.59l-3.22-4.45-3.49-4.45s-4.17-4.16-4.8-5.34a4.3,4.3,0,0,1,0-3V384.4l2.23-4.16,1.27-2.67h2.31l.83,1.18.67.92.6,1.73-.24,1.8,3.19,3.87,1,4.74,2.23,3.56L884,401l3.49,4.74L890,409l.65,5.15.62,6.42-.62,5L887.16,428l-3.83,2.67-2.23,6.23v3.85l.31,4.16,3.19,4.45,3.52.28,2.88-.28,4.14-7.72,4.17-7.7,6.38,1.18-1.92,6.52-2.54,6.83v10.07l-3.78,5.63-4.22,2.38Zm64.49,100.47s-.86,2.21-1.71,4.21,0,0-1.3,2.21l-1.29,6.59,1.29,4.21-5,6.83-5.18,8.4-1.95,6.42-1.94,5.6-1.71,3-2.8,1.61-6.48-2.81-5.18-2.6-3.88-1.61L916,610l.88-4.62-3.47-5.8-2.64-2.4-2.54-3.8-.42-2.81,2-6.62,1-3.8V562.56l-1.45-4-1.51-6-3.44-5-2.59-4L899,537.71l-1.5-4.4V513.78l3.94-14.57,5.23-6.47,2.62-7.29,2.61-10V453.84l3.06-11.73V431.16l1.74-7.69,3.49-4.45,3.92-4.86,2.1,3.77,3,1.81,1.53,3.8,3.24,4.81.65,4.59.2,4.21,4.1,5,3.44,3.39,1.74,4.81,1.94,5v11.84l-3.24,8.27-1.08,7.14L938,486l-4.74,2.62s-4.53,6.8-4.53,7.81v3l-1.3,6.61-4.12,4.62-1.71,2.79-2.15,1.8.21,3.61,2.15,5.63,4.33,1.59,6,4.21,3.68,3.41,5.39,1.59,1.71,6-.21,5.82v7a20.72,20.72,0,0,0,.21,2.6l2.38,3,3.45,1,2.18.6,2.35,1.61,1.51,3.61Z"/><path class="cls-2" d="M1492.23,696.36l-5.43,13.14L1468,697.28l-18.67-.55-15.44-6.84L1409.06,676l-315.26-2.87L1078,632.81l21.1-5.95,5.31-33.18,16.81-3.46,10-17.66,9.51-3.64a30.51,30.51,0,0,0,8.31,2.93l9.74-2.73,6.12-3.58,11.48-5.83,9.46,3,13.67,10.05,9.73,6.65,9.66-4.4,6.21-5.85,5-7.38.9-6.8,5.39-.76,7.61,5.16,7.1,8.67,6.89,5.92,5.57,2.56,6.65,3.74,10.45.63,9.22,15,13.91,12.1,6,30.24,10.9-2.56,17.91-25.59,1.31-39.85,18.25,2.28,18-.68L1374,553.54l9-2.67,9,5.1,13.19-4.35-8.71-10.39h0l8.94.21,5.67-.43,4.94-4.47,12.24-14.24,14.9-6.09,9.6,1.18,7.85-6.45-.83-7.1-8.3-3.47-11.67,2.48-10.34,4.44-5.27,4-10.8,6.27-12.8,6.68-9.83,3.52-8.59,2.4-8.43-1.12-9.6-1.18-11.74-.57-19.37,1.16-12.5,14.7-14.36-.24-14,7.79-14.42.94-12.23,4.58-1.09-8.22-7.34-3.87-8.93-10.72-6.3-2.85,3-5.33,5.8-2.82,7.28-2.93,6-10.68,5.9-4.64,5.36-1.2-.14,10.23-4.1,8.94,5,2.8,8.68-5.42L1295,514.4l8.87-4.15,9-3.64,10.79,1.72,3.35-5.95,8.25-5.37,8.46,4.32,6.53-1.54,2.79-5.9,7.62-1.23-2.28,6.9,5.26,3,9.17-3,19.49-6.2,21.19-10.17,11.24-.07,12.06-1.53,3.73-5.68,2.92-6.14,6.2-2.48-.53,5.67,6.23,1.26,3.64-6.47,2.44-7.17-1.55-6.73,4-9,4.28-6.65,4.18-4.58,9.22-1.21,6.51-9.67-4.08-6,.26-5.19,2.28-4.05-5.09-2.33-4.91,6.84-7.19,2.35-4.46-2.51-5.26-3L1453.1,410l-9.46,6.4L1443,408l4.71-11.21,8.25-7.09,10.81-4,6.76-6.33,2.49-8.2-5.64-8-8.25-1.45-9.47,6.4-1.52,5.54-2.84,6.94-5.4,3.89-3.92,7.92-3.85,10.63.19,12.91-2.08,8.43.91,6.91,7.07,5.77,4.85,2.73-3,6.35-6.15,1.54-4.86-.24-7.82-3.85-3.21-3.19-.66-6.2-6.3-4.11-4.85-2.73-4.36-1.62-7.18,2.9-5.9,3.07-2.44,3.34-3.84,9.79-4.59,5.2-3.47-4.2,1.73-4.56,3.33-5.91,3-3.86,3.8-6.75-1.33-6,4-8,6-.25,6.79.77,3.37,1.9,6.18-.13,6.38-2-2-3.89-3.22-2.65-3.9-4.42,2-6.94,2.07-4.66,5.61-1.57,5.61.38,2.61-4.63-2.73-4-1.31-4.07,4.25-7.05,3.5-.8,2.48-1.94,2.24-5.95-1.37-3-.47-3.6,1.78-3.16,3.32-1.46,3.45.27,3.37-8.93,5.08-8.52,6.06.08,6-1.87,2.2-2.92-.74-7.08-3.45-4.72,5.07-10.47,4-14.1,10.4-11.08,5.34-9.49s4.57,1.74,4.1,2.59,1.71,4.85,1.71,4.85l4.18,1,3.56-6.32,7.09-7.67,3.79,6.58-3.37,7-4.09,8.25-2.07,4.66-.88,9,3.59,2-5.11,9.06-3.2,5.69.19,7.05,4.83-1.17,3.91-6.95,2.63-2.69,4.62.66-3.16,7.1.28,7.38,1.1,6.45-.63,6,2.64,8.15,4.58-.75,5-8.86-1.75-6.26v-5.82l2.73-4.85-1.94-5.53,3.1-8,5.7-10.11-.47-8-1.51-6.68,4.11-8.79,6.79.76s-1.41,4.48-1.89,5.33-2.48,6.37-2.48,6.37l.34,6.3,1.9,4.13L1533,311.07l-2.3,7-1,11.11,1.39,4.94-10.66,18.43,2.45,4.31-1.44,6,2.17,10,2.52,6.78L1525,395.58l4.94,7.66,6.93-2.44,6.28.62,5.36,6.92,4.91.81,6.77-2.52,3.47,6.82-6.71,12.79-.52,10.43,7.47,6.64,4.42,6.87-1.16,8.12,1.61,5.78-5.66,3.15L1551,470.62,1540,476.17l-9.6,13.59-9.12,15.33-6.58,12.53-3.33,5.91.43,4.91,6.85-.81,5-.75,5.55,3.13-2.74,4.85-4.6,3.31-9.21,5.81-4,9.61.69,7.69-4.67,6.92-4.1.85-3.66-1.9L1496,564l-2.24-3.3-2-3.67-.66-1.63-1.58-5.31,1.45-7.07-.4-4.32.48-4.78-.44-4.82-.13-4.8.3-3.62-2.16-1.21-2.38.73-.23,8.91-.63,8.69L1484,545l1.35,14.59,3.51,8.89,4.46,6.24-1.72,9.67-1.67,8.63,6.54,14.85,6.51,2.61,4.47-2.27,6.46,3.64-3.51,8.12,1.36,6.09-1.93,13.81-.33,11,2.3,8.21-1.55,10.3.35,9.77.53,10.4-2.84,15.43Z"/><polygon class="cls-2" points="718.1 501.84 717.27 497.22 721.56 497.22 722.23 499.53 722.23 503 718.1 501.84"/><polygon class="cls-2" points="695.47 490.77 691.83 490.77 690.02 487.8 688.53 487.8 688.53 484.66 687.54 478.06 689.69 475.41 692.16 472.94 694.14 470.79 696.46 470.79 700.42 468.81 702.73 472.11 704.22 473.43 707.52 474.09 707.52 476.74 711.32 477.23 712.48 479.79 712.48 483.67 711.65 487.31 709.01 489.12 705.38 488.13 704.39 484.99 701.91 484.17 698.61 482.68 697.28 484.66 698.77 485.49 697.61 486.98 695.47 490.77"/><polygon class="cls-2" points="724.7 506.14 722.88 508.61 722.23 513.24 724.7 514.23 728.17 513.07 730.15 511.42 730.15 507.46 729 503 727.35 503 724.7 506.14"/><polygon class="cls-2" points="743.37 514.23 746.17 511.92 747.16 508.61 749.31 504.98 751.79 507.29 754.43 510.43 754.43 514.89 754.43 517.04 751.63 517.04 749.81 519.18 748.9 522.16 750.14 525.29 751.79 528.76 750.63 532.4 747.33 532.4 744.85 535.54 741.38 538.84 742.04 543.46 741.38 550.07 739.4 551.72 737.75 555.69 734.12 555.69 734.12 552.38 731.47 550.57 730.15 546.6 728.01 547.1 726.19 549.58 724.37 551.72 724.37 554.03 721.4 554.7 718.43 554.37 715.78 554.53 715.78 557.34 711.98 557.34 711.98 553.04 710.17 553.04 710.17 550.9 708.35 548.91 709.51 546.27 712.48 545.94 716.44 546.44 718.59 546.27 719.75 544.29 719.75 540.66 722.23 538.01 724.7 535.04 728.5 535.37 730.15 536.53 732.47 536.53 732.63 534.22 731.39 531.16 731.39 525.13 733.62 525.13 733.62 521.5 734.78 519.85 734.78 517.37 736.26 516.87 737.75 516.05 738.58 514.23 741.55 514.23 743.37 514.23"/><polygon class="cls-2" points="695.63 546.27 695.63 542.31 692.16 539.66 692.16 533.22 695.63 529.59 699.27 529.59 701.41 533.39 701.41 537.93 701.41 544.13 702.4 546.27 702.4 550.73 698.44 557.34 697.28 559.49 694.97 562.96 692.16 566.09 690.35 567.08 687.54 570.22 683.24 568.24 683.24 565.76 684.4 563.28 687.54 560.97 688.53 557.34 690.68 557.34 691.67 552.88 693.65 551.56 694.97 548.59 695.63 546.27"/><polygon class="cls-2" points="712.53 613.78 712.53 609.89 715.48 607.64 718.43 605.4 721.27 603.27 723.87 599.73 725.64 596.3 727.65 590.87 726.23 585.43 726.7 579.41 729.3 575.87 733.79 575.87 735.44 578.94 736.15 584.61 734.03 590.63 734.03 595.36 731.39 600.08 729.18 601.62 726.23 603.63 725.28 606.82 721.62 611.66 718.43 613.08 714.18 616.38 712.53 613.78"/><path class="cls-2" d="M700.6,595.12l-3.55,1-5.31-1s-2.13-2.13-2.13-3.31.12-4,0-5.19.36-2.25,1.65-2.37,4.73,0,4.73,0l4.61,4,1.3,3.9Z"/><path class="cls-2" d="M685.36,591.58l-3.78,2.12-.83,3.9L679,600.08h-5.79l-3.42-3.19v-2.12l3.89-1.66,2.13-1.53,1.3-2.25.94-4.6a15.64,15.64,0,0,0,3.31,0c.59-.24,2-.6,2.6,0s1.42,3.66,1.42,3.66Z"/><path class="cls-2" d="M417.37,538.2v-3.09h2.83l3.86-5.14,2.06-3.6,1.28-5.15-3.08-4.37H418.4l-3.6,1.28s.51,2.06,0,2.83a21.61,21.61,0,0,0-1.29,3.86l-3.86,2.7v12.22l-1.8,2.32-3.6,3.86-4.89,3.34-3.09,3.09s-3.6,2.83-4.11,4.37a46.77,46.77,0,0,1-3.09,5.66l-1.8,5.41v3.86l4.63,4.11.26,4.12,3.09,2.57h5.14l2.06-5.4-2.06-2.83-2.57-4.89L394.47,566l2.06-4.38h5.4l5.41-1.8,3.86-6.95,1.8-3.21,4.37-2.19a40.82,40.82,0,0,0,5.4,1c1.29,0,4.63-1.8,4.63-1.8l3.86-.26,1.55-4.63-4.63-3.6-5.41.26Z"/><polygon class="cls-2" points="316 589.65 319.35 582.45 321.15 577.05 324.49 577.05 325.52 582.45 323.46 589.65 320.76 594.29 316 599.95 312.66 599.95 310.09 597.12 312.14 591.46 316 589.65"/><polygon class="cls-2" points="375.18 549.65 372.09 552.09 367.46 552.09 367.46 546.17 367.46 540 367.46 535.37 372.35 535.37 375.18 541.03 375.18 547.46 375.18 549.65"/><polygon class="cls-2" points="382.38 528.94 379.04 528.94 380.71 522.25 385.73 519.68 389.84 519.68 389.84 524.31 384.44 526.11 382.38 528.94"/><polygon class="cls-2" points="397.56 515.56 397.56 511.19 397.56 508.61 400.65 508.61 400.65 512.09 400.65 514.79 397.56 515.56"/><polygon class="cls-2" points="519.61 206.97 518.94 215.45 510.13 222.27 505.31 224.26 506.47 216.95 514.45 213.95 517.11 210.13 519.61 206.97"/><path class="cls-2" d="M501.41,206.24v4.47L500,213.59l-2.88,4.24-2.6,6.43s-4.48,3.62-5.2,3.62-1-3.62-1-3.62l2-3.88a3.19,3.19,0,0,0,2.31-.43,18.18,18.18,0,0,0,2.6-2.89l1.15-3.32.73-2.74,3.17-2.46-1.3-2.3Z"/><path class="cls-2" d="M702.73,181c2.28-1.71,14.83-12,14.83-12L721,157.59l6.28-8.56,6.84-12.55-.23-22.68L723.76,92.26,733.61,89l11.47-15.83,12.75-2,6.66-8.27-9.06-15V23.44L741.18,36.8l-15.83,3.13L717,67.45l-4,10.84-6.27,5.14-4,4.62v17.76l4.11,8.17,2.26,9.3,2.53,12.41-.28,11-1.69,9.3L707.12,163s-.28,5.35-.28,6.48S702.73,181,702.73,181Z"/><path class="cls-2" d="M677,286.91c.57-1.14,4.27-3.7,4.27-3.7l4,3.7,1.43,4,5.69,1.43,3.7-3.14-2.28-6-7.26-7.4L685,267.27l-.57-8.82,4.84,2.28,6.83,6,2.56-4.84L696.38,255l-3.7-4-3.7-7.12.86-10.81,2.27-5.12-5.69-4-3.41-1.7.57-9.11-5.13-4.84-2.84-6,1.42-4.27,3.41-4.26h5.41l3.7-3.7L689,181l2.28-4.78h4.84l.85-4.84,1.71-5.69,1.14-8.82,2.93-1.71,5.32-5.41v-7.11l-2.28-6.26-3-8.26L698.37,125l-2.09,1.83-1.68,2.51-3.71-3L688,124.05l-4.3,1-2.28,3.82-.12,6.59,2.64,4.9,1.19,1,1.92,3.35V148c0,.36-1.32,3.59-1.32,3.59l-5.14,3.11L678.09,158l-4.9,1.91-4.43,4.19v4.19l-1.42,9,1.18,9.73v6.17l.24,5.7-1.42,4-3.56.24-2.38-2.37-1.9-5.7v-8.07L657.37,181l-1-3.65-2.37-7.59,1-5.22-1-6.41-3.56-.23-2.14,6.64v5.93l1.19,5.94L650,183l3.09,5v4.75l2.37,2.85v6.17l-3.56,2.37-.95,5.69,1.66,4.28-1.42,6.64-1.9,5.93L646,231V239l4.27,2.85,4-5.22,5-.24,5,2.37,2.37.48,4.87-3.56,5.52,2.37,3.38,5.46-2.14,6.64L674,255.41l3,5.93v7.83l2.9,3.32,1.19,4.75-4.09,5Z"/><path class="cls-2" d="M675.8,173.32l-3.67-.62-3.81,5.42-3.43,6.37-2.54,4.4L658.81,195l-5.15,3.74-7.22,3.07L643,208.13l-2,3.3-2.2,4.82-5.37,3.65-3.57,5.5-2.54,4.4-5,4.08-4.06-1.58-2.62,4.62-4.44,5.65-6.87-2.35-3.75.69-5.19,11.39-6.65,3.58-.84,3.59-4.32-.38-2.29,5-3.9,5.62-3.51,1.32-2.9-2.9-2.05-3.07-4.42-.15-3,4.74-1.9,4.16-3.31-2.57.29-3.58,1.58-4,.71-4.43-4.06-1.58-2.06-2.41,0-4.63,2-4.38,5.41-2.56,4.46,1.23,5.57,1.74,4.55,1,3.49-1.85,3.77-3,4.58-4.27,5-1.68,4.49-1.4,4.59-10.09-5.15.57-4.33,2.53-5.31,1.81-6.34.55-6.42,1.3-3.8-.93-1.51-2.53s2.26-3.22,2.76-4.3,7.08-3.93,7.08-3.93l4.56-4.79,3.43-6.37,3-2.06,3.79-2.52,1.5-3.27,3.79-2.52,3.28-1.4,1.6-4.05,2.38-2.34,4.86.35,4.55,1,1-2.19,1.26-4.47.24-2.27,1.6-5.87,3.39-1.63,3.79-2.52,1.9-4.16,5.41-2.56,3-3.12,3.3-4.32,1.79-3.94-4.6-2.1-4.41.37-2,4.38-3.37,2.16-4.15,1-5.36,1.27-3.19,7-4.12,2.11-5.52-.67L600.81,173l-1.1,2.41,5.91,2.69-3.28,4.33-4,.57-1.6,3.51-3,4.74-2.64-1.2-4,1.87-6.79-3.1-1.3,2.86-3.58-.3-1.09,2.39,1.88,4,2.83,1.29-.35,5.4-2.12,3.54-5.39,3.1-7.63,6.3-4.56,4.8-2.1,4.6-4.73.49-3.06-1.4-2.45,1.29L545,231l-1.23,7.38s-.32,9.39-.82,10.48l-5.39,11.83-1.84,8.68-2.5,10.77-2.94,11.08-3.88,14.91-3.82,7.79-2.5-3.25,2-8.91L525.35,291l-3.28-3.87-3.13,5.18-6.4,16.93-4.62,9.54L507,329l2.05,6,2,3.81-2.69,5.91-2.41,7.63-2.13,7-1.92,9.44,2,4.35,2.27-5.57,3-6.59s4.27-.69,5.16-.29,5.87-1.28,5.87-1.28l3.91-2.2,1.55-4.58,1.81-6.85,2.49.34,3.19-1.19,3.58-5-.65-3.2,1.16-3.72,1.56-1.67,2.49.34,6.09-10.45,13.19-31.29L562,285l-1.58-5.21,2.1-4.61,2.42-1.27,3.43,2.34,4.74,5.87,5.35,2.17,5.42.89,4.27-1.23,3.3-7.23,5.94-5,5.23-4.51,5.06-.61,3.25,1,5.89-12.94,1.11-5.32,1.85-5.22,3.33-3.26,4,.51,5-10.95,6.18-7.76,3.5-7.68,7.76-2.55,4.32-6,8-7.19,7.19-15.77,6.76-6.7ZM545.64,307l-3.11,1.5-.57,2.67-3.11,3.61-2.49.82-2.15-1,.18-4.3,1.1-4.21,2-4.31,3.84-2,3.06-2.5,3.24,1.48,1.39,1.92-.24,4.45Z"/><polygon class="cls-2" points="652.08 163.84 650.98 166.25 647.69 164.75 645.28 163.65 641.4 163.21 639.4 167.59 640.99 173.07 638.42 179.31 639.21 183.37 638.27 187.18 635.1 191.82 631.97 195.95 631.9 201.74 634.31 202.84 635.81 199.55 638.2 194.29 640.73 190.57 642.51 186.68 643.89 183.65 642.78 181.44 642.82 178.86 645.1 176 648.49 176.41 650.6 174.61 651.71 172.19 651.16 169.83 653.91 167.35 653.44 164.46 652.08 163.84"/><polygon class="cls-2" points="725.35 135.61 729.84 135.61 734.33 130.71 739.23 135.61 744.54 143.37 749.45 150.72 753.53 159.71 753.53 169.1 757.21 174.41 757.21 181.36 761.7 185.44 765.03 191.13 765.03 198.53 765.03 205.44 770.22 210.62 774.66 218.03 778.85 223.7 780.34 228.64 777.62 229.87 774.16 226.91 767.75 220.99 763.31 221.48 762.81 225.43 762.81 229.87 763.06 236.78 763.06 243.94 765.03 253.32 770.71 256.28 774.66 253.32 777.62 248.88 782.8 244.68 785.52 250.36 780.34 255.29 777.87 262.7 775.15 268.62 774.16 274.54 774.41 278.24 777.13 285.89 777.13 294.53 775.89 303.66 779.1 308.11 781.57 315.02 782.8 320.45 778.36 320.45 772.68 311.07 770.22 311.81 769.97 315.76 772.44 323.65 778.36 329.33 782.31 332.29 780.83 336.73 781.57 347.35 775.64 348.83 769.23 342.9 769.23 336.24 763.55 328.84 755.43 324.89 749.49 319.71 746.28 313.78 744.06 310.33 742.33 305.39 739.86 301.44 736.65 298.98 732.46 298.73 730.98 293.3 730.73 286.39 733.44 285.15 737.64 286.14 740.85 286.14 740.85 280.71 740.85 274.54 743.32 274.79 746.77 276.76 746.52 280.96 749.24 282.44 751.95 279.23 755.43 273.31 755.43 268.13 750.97 264.42 746.28 264.42 742.27 267.17 738.71 268.35 737.29 265.98 738.24 262.9 740.85 262.19 741.09 259.34 736.34 259.34 733.26 257.44 733.02 252.94 735.39 252.22 738.48 252.46 741.09 254.36 743.69 255.31 749.15 255.78 753.42 250.56 753.42 245.11 751.28 241.31 747.73 237.99 742.98 236.09 740.85 233.25 742.75 230.16 746.78 231.82 751.05 233.96 751.28 230.16 753.18 227.08 754.04 223.97 752.85 221.45 750.33 221 747.66 219.52 747.21 215.06 748.7 212.39 752.85 210.46 754.49 208.38 755.43 204.96 753.3 203.78 750.48 201.85 747.36 201.4 744.69 199.17 742.01 197.39 737.26 198.13 730.88 198.28 729.99 194.72 730.58 191.9 735.48 191.15 739.93 189.07 742.31 185.96 744.09 183.88 743.5 182.39 739.49 178.98 736.97 177.05 736.07 174.52 738.6 172.59 743.94 172.44 747.06 171.4 746.62 169.18 743.8 168.28 741.57 166.5 738.89 165.46 735.78 162.2 737.11 158.93 740.23 158.19 741.27 156.26 740.97 153.88 739.79 151.21 739.04 148.98 738 146.46 735.18 144.08 733.7 140.96 732.06 140.96 730.13 138.44 726.42 138.73 725.35 135.61"/><path class="cls-2" d="M451,325.76l4.47.12L459,323.1l4.46-.48,2.3-4.59-.12-3.38-4.83-2.42L458.39,308l3.14-6.28,7-1.62,5.31-3.69L476,297.5l1.2,5.44-.36,4.35,4.1,3.86,2.42-4.83,3.63-7.24L484.84,295l-2.53-5.8-1.45-8.58-2.65-3.74-.6-4.23,2.65-5.31.37-3.75L477,258.73l2.29-4.59.37-3.74L477.86,248l1.45-2.9h4.83l2.54-5.67-.6-4.83-5.08.48-2.66,5.31L469.89,244l-3.51,4-2.66,5.31-5.07,1.09-3.39,6.76-3.86-1.94,2.3-4.59.12-4.46-.72-4.59v-6.65l-3.74-3.38-.61,8.45.6,7.25-2.78,5.56-1.81,3.62-1.82,3,6.16,4L447.29,271l-3.26,4.1L439.8,277l-1.57-4.1-1.69-5.08L436.3,264l1.81-6,4-8L438,248l-4.23,3.62a47,47,0,0,0-2.78,5.55c-.24,1.09-.13,7.49-.13,7.49l.85,7.37-.37,3.57,2.27,5.2-1.79,4-3.57-.16-.32-4.23L424.84,274l.52-5.83.95-4.81-.72-4.64-2.45.42-1.54,5.11-1.14,5.12-2,4.46,1.46,6,2.51,4.31,3.49,4.79L428,293.2l-4,6.74-9.31,7.65-5.16,7.15-4.94-.48-9.25,11.3L386,333.24l-5.81,4.27-4.78,4-4.14-2.07-7.17.79-3,6.05L353.77,353l-3.51,7-1.6,8-6.37,8-6.7,4.62L331,389.75l-.48,6.53,5.42-2.87,4.62-2.07,4.78,1.6-.44,3.49-2.82,5.63,3.74,2.66,7.77-6,2.38-3.59,5.21-.87,2.44-4.87-2.14-4.4,2.55-3.94,4.11,1.33,6.67-.87,4.58-.46,4.64-6.95a49.27,49.27,0,0,0-5-2.79c-1.68-.69-8.81.23-8.81.23s.06-5,.88-6.66,3.59-7.77,3.59-7.77l3.94-4.69,3.54.18,4.93,1.74,5-.81,4.11-1.28,2.61-4.34-.34-1.63-3.09-4.59,2.58-4.58,7.52-5,5.88-4.11,5.13,1.39,3.77-7.55.15-4.88,6.93-1.53s5.17-.35,5.76-.93,7.05-5.29,7.05-5.29l6.22-7.75,1.06-3.87-5.87,1.76-3.88,4.81-4.11,1.76-4.11,4.7-5.88,1.76L422,309.78l2-4,5.52-5.75,6.58-2,4-5.05,4.82-2,5.41-.24,4.34-4.58-.93-6.34-2.82-1.41.47-5.64,1.88-2.58,5-6.58,6.7-6.34,4-1.52,1,8.45-.94,2.47.35,6.93,1.76,5.87L469.67,282l1.17,2.94,1.06,3.17-.35,4.23-3.41,2.7-6,2-5.76,2.7L454,303.22l-5.17,3.87-.47,4.46,4.11,2.94-3.64,3.76L451.1,322Z"/><polygon class="cls-2" points="811.13 291.99 813.81 295.71 818.35 298.09 825.06 300.12 827.93 304.1 830.43 310.37 830.09 318.3 833.54 323.08 835.09 330.84 839.68 334.4 846.37 340.88 851.9 342.95 853.22 339.18 849.95 331.84 847.35 320.39 846.06 312.44 843.05 304.91 837.29 301.4 835.18 298.47 839.17 288.33 834.21 284.24 827.58 284.57 825.64 293.64 819.02 293.98 815.73 291.1 811.13 291.99"/><path class="cls-2" d="M854.87,266.44l5,5,3,5.62,4,3.3-1.39,8.56v5.65l5.47,3.76,7.81,4.17,2.65,5.62,8.59,5.62,4,5.95v6.93l5.29,2v7.6l3,3.63h4.3l5.62,3.64v6.94l4.29,1.32,5-1.65,2.64,4.29,2.31,3.64,2.65,8.59,8.92,2h7.6l3.64,5.95,5.28,7.27,7.93,6,6.28,8.92,5.62,7.93,5.62,4.29,3-1.65v-4.62L974.82,397l-4.63-6-3-6.94-4.3-1.65-3.3-3v-6.27L954,366.9l-8.26-5.29-5.29-4.29-3-5.95-6.28-4.3-8.26-6.28-7.6-6.94-7.27-9.91-5.62-5.62-2.31-8.26-5.62-2.64-6.61-5-2.64-8.59-7.74-1.65s-4.83-4.12-5.16-5.77S873,279,873,279l-4-10.57-6.28-8.26-6.28-4-3.3,7.27Z"/><path class="cls-2" d="M294.25,419.72l2.35-2.24h3.19s1.89-.59,2.25-1.18,3.78-2.13,3.78-2.13l2.83,1.06,2.13,2.49v2.95l-.59,2-2.84.82-3.52,3-5.22-.71h-4.36l-1.66,2.48-2,4.25-4,2.48-5.67-.94-1.77-2.37V426s.71-2.24,1.06-2.36a38.92,38.92,0,0,0,3.07-2.48h7.56Z"/><path class="cls-2" d="M311.6,383.69l-3.54,1-5.32-1s-2.12-2.12-2.12-3.3.12-4,0-5.2.35-2.24,1.65-2.36,4.73,0,4.73,0l4.6,4,1.3,3.9Z"/><path class="cls-2" d="M296.37,380.15l-3.78,2.13-.83,3.9L290,388.66H284.2l-3.43-3.19v-2.13l3.9-1.65,2.13-1.54,1.3-2.24.94-4.61a15,15,0,0,0,3.31,0c.59-.24,2-.59,2.6,0s1.42,3.66,1.42,3.66Z"/><polygon class="cls-2" points="337.5 387.79 340.31 385.47 341.3 382.17 343.44 378.54 345.92 380.85 348.56 383.99 348.56 388.45 348.56 390.59 345.76 390.59 343.94 392.74 343.03 395.71 344.27 398.85 345.92 402.32 344.77 405.95 341.46 405.95 338.99 409.09 335.52 412.4 336.18 417.02 335.52 423.63 333.53 425.28 331.88 429.25 328.25 429.25 328.25 425.94 325.61 424.12 324.29 420.16 322.14 420.66 320.32 423.13 318.5 425.28 318.5 427.59 315.53 428.25 312.56 427.92 309.92 428.09 309.92 430.9 306.12 430.9 306.12 426.6 304.3 426.6 304.3 424.45 302.48 422.47 303.64 419.83 306.61 419.5 310.57 420 312.72 419.83 313.88 417.85 313.88 414.21 316.36 411.57 318.83 408.6 322.63 408.93 324.29 410.08 326.6 410.08 326.76 407.77 325.52 404.72 325.52 398.69 327.75 398.69 327.75 395.05 328.91 393.4 328.91 390.93 330.4 390.43 331.88 389.6 332.71 387.79 335.68 387.79 337.5 387.79"/><path class="cls-2" d="M1069.22,523l-6.76-6.7-7.19-15.77-8-7.19-4.32-6-7.76-2.55-3.5-7.68-6.18-7.76-5-10.95-4,.51-3.33-3.26-1.85-5.22-1.11-5.32-5.89-12.94-3.25,1-5.06-.61-5.23-4.51-6-5-3.29-7.23-4.27-1.23-5.42.89-5.35,2.17-4.75,5.87-3.42,2.34-2.43-1.27L953.79,420l1.58-5.21-1.43-4.9-13.19-31.29-6.09-10.45-2.49.34-1.56-1.67-1.16-3.72.65-3.2-3.58-5-3.19-1.19-2.49.34L919,347.24l-1.55-4.58-3.91-2.2s-5-1.68-5.88-1.28-5.15-.29-5.15-.29l-3-6.59-2.27-5.57-2,4.35,1.92,9.44,2.13,7,2.41,7.63,2.69,5.91-2,3.81-2.05,6,.92,10.16,4.61,9.54,6.41,16.93,3.13,5.18,3.28-3.87-3.28-10.67-2-8.91,2.5-3.25,3.82,7.79,3.88,14.91,2.93,11.08,2.51,10.77,1.84,8.68L936.39,451c.5,1.09.82,10.48.82,10.48l1.22,7.38,1.7,3.71,2.45,1.29,3.06-1.4,4.73.49,2.1,4.6,4.56,4.8,7.62,6.3,5.4,3.1,2.12,3.54.35,5.4L969.68,502l-1.87,4,1.09,2.39,3.58-.3,1.3,2.86,6.79-3.1,4,1.87,2.63-1.2,3,4.74,1.6,3.51,4,.57,3.28,4.33-5.91,2.69,1.1,2.41,3.58,2.06,5.52-.67,4.12,2.11,3.19,7,5.36,1.27,4.15,1,3.36,2.16,2,4.38,4.41.37,4.6-2.1-1.79-3.94-3.3-4.32-3-3.12-5.41-2.56-1.9-4.16-3.79-2.52-3.39-1.63-1.61-5.87-.23-2.27-1.26-4.47-1-2.19-4.55,1-4.87.35L996,506.36l-1.6-4.05-3.28-1.4-3.8-2.52-1.49-3.27-3.79-2.52L979,490.54l-3.43-6.37L971,479.38s-6.58-2.82-7.08-3.93-2.76-4.3-2.76-4.3l1.51-2.53,3.8-.93,6.41,1.3,6.35.55,5.31,1.81,4.33,2.53,5.15.57-4.59-10.09L985,463l-5-1.68L975.39,457l-3.76-3-3.49-1.85-4.55,1L958,454.88l-4.46,1.23-5.41-2.56-2-4.38,0-4.63,2.07-2.41,4-1.58-.71-4.43-1.57-4-.29-3.58,3.31-2.57,1.9,4.16,3,4.74,4.42-.15,2.05-3.07,2.9-2.9,3.51,1.32,3.89,5.62,2.3,5,4.32-.38.83,3.59,6.65,3.58L994,458.87l3.76.69,6.87-2.35,4.44,5.65,2.62,4.62,4.05-1.58,5,4.08,2.53,4.4,3.58,5.5,5.37,3.65,2.2,4.82,2,3.3,3.44,6.37,7.22,3.07,5.15,3.74,3.54,6.06,2.53,4.4,3.44,6.37,3.8,5.42,3.67-.62ZM942.14,394.59l.24,4.45L941,401l-3.24,1.48-3.07-2.5-3.83-2-2-4.31-1.09-4.21-.18-4.3,2.15-1,2.49.82,3.11,3.61.57,2.67,3.11,1.5Z"/><path class="cls-2" d="M1341.53,458.36l7.26-8.09-3.35-4.16,4.28-8,7.6-6.1,13.66,4.53,17.54-8.14,8.16-2,4.76-12,1.69-7.3-1.34-7.13,2-10.75,1.87-10.16,16.39-13.16,4.17-8.84.22-10.67,5.16-9.91,5.17-8.43,5.56-9.47,2-11.61-3-6.77-14.8,1.84-9.17,4.21-8.35,9.87-.15,6.06-2.53,9.33-5,4,1.19,7.73-7,6.08-1.71,9.57-1.58,4.28-2.75,7.13-7-.88-4.28,3.43-1.58-4.93-1-10.59,5.47-12.67-.7-7.38,10-15.92,4.33-11.08,5.12-7.19,5.52-12,11.21-20.21L1414,261,1397.3,271l-11.6,8-4.65,6.56-7.22,5.8-5.25-.68L1357.67,300l-7.11,5.37-6,5,1.14,2.66-1.71,3.33-5.91,2.41-2.81-.08-7.27,4.07-2.09,3.83,1.92,4.51s-8.3,5.24-8.65,4.8-4.15,2.55-4.15,2.55l-9.46,7.59-7.26,1.58-8-3.18-7.41,8.21,5.26,6.54-7.49,7.14-7.12,1.76-9.45,7.59,4.28,5.33-15.61,12.54-1.14,6.29-3.06,5.85-7.81,2.88-5.53-6.88-8,3.6-3.81,5.88-5.18,4.16-5.57,10.5,3.4,5,4.31,6.14,10.17-4.52,10.45-8.85,8.38-1.28,7.55-1.47,3.32-6.8-.74-4.86,5-4,7.81-3.53,5.12-4.56,16.36-13.14,1.86-4.69,9.74-7.37,6.16-4,6.14-7.23,6.62-5.77,4.3.65,1.8,5.4.42,7,6.93-3.27,4.35,3.81-9,6.76L1328,383l-6,6.62-7.9,4.95-4.42,8.59,1.27,6.28L1298,422l-5.34,4.29-7.33,1-4.63-2.67-4-5,2.69-9.91,3.12-3.89-3-3-7.68,5.23-5.77,9.22-3.49,7.36-.53,6.37,2.67,3.31-5,4-3.12-3.89-9-4.18-9.79,4.21,1.84,5.37-4.36,9.44-.92,8.95,5.66,3.2,7.26-5.83,5.37,2.83-7.72,9.1,9.42,1.58,6,7.48,8.55,1.82,11.59-7.95,27-21.72.37-11.24,7.36-9.56,13.08-3.21,9.91-.21,11.4-9.15,6.61,2-3.79,8.53-11.92,7.74-17.28,12.07,2.24,5.94,5.49.6,2.79,1.86-9.41,11.7-.37,11.24,8.09-2.4,7.27-8.13Zm23.67-142.18,2.16-5.87,20.2-16.22-.91,9-9.74,7.82-3.25,10.36L1370.6,326l-6.35-.84Zm-24.06,44.61H1336l-1.91-2.38-.29-5.63,1.05-4.94,5.71-4.59,2.17-.2,3.82.06.66,5.52,3.55-1.57,4.22,3.2-.37,3.6-5,6.14Zm-24.07,59.06-1.44-1.79,4-4.15.71-6.44,4.57-7.05,7.35-5.91.48-3.06L1342,384l3.9-6.85,2.55-4.8,4.43-3.56,4.47-6.14,3.25-5.36,3.6.83-.58,4.61-2.13,4-3.88,6.24-.47,4.1-6.61,7.86-4.46,5.13-6.24,4.64-2.61,6.79L1331,405l-3.88,5.26-5.81,7.83Zm91.86-66.33,1.72-7.25,4.31-6,1-6.45.36-2.25,1.9-3.3L1421,326l2-4.22,1.35-4.7,2.8-5.19,5.25-2.86,1.52,1.9-2.25,3.88-1.11,2.36,1.53,2.87-4.22,6.13,1.26,2.6-3.07,2.48-2.19,3.64-.52,3.72-3.22,5.71-3.79,5-.83,3.6-.19,3.5-3.12,4.47-5.2,2.21-1.73-2.15,1.62-4Zm-51.73,51.71-4.44-1.15,2.75-5.33,5.43-4.95,1.6-6.37,10.21-7,4,0-1.47,5.88-4.08,3.28-.51,6.06-3.93,6.5Zm16.78,6.49,1.16-6.61,1.83-4,1.41-2.3,5.06-1.74-2.08,4.42L1388,401l4.06,1.07-2.69,5.65,1.52,3.9-2.75,4-5,1.47-8.12.25Z"/><path class="cls-2" d="M1557.43,563.25l1.61-9.38,8.81-14.93,1.29-10.7,2.42-7-2.35-7.82,4.28-7.27,2.82-9.51,6.12-10.37-2.72-3,.77-4.59,3.22-4.51,3.72-4,7.23-12.24-2.65-2.11-2.4-4.49.7-6.87.65-7.72,4-6.84-1.43-4.21-3.84-3.93-4.84-3.14-7.53-.53-3.88-1.47-.35-2.71,2.57-4.36,5.18-1.69,3.2-4,18.09-28.73,5.07-11-1.7-1.85.47-2.24,2.39-3.08,3-1.3,2-5.78-.85-3.3-1.7-1.85,4.58-5.4,2.86-3.9-.44-4.46s-1.48-5.06-2.31-5.55-2.72-4.4-2.72-4.4l3.68-6.23,3.27-5.05-4.71.86-6.64,7-4.49,5.73-4.88,6.35-3.3,5.59-4.25.57-6,1.73-7.81,6.58-5.17,9.25-10.21,14.95-2.45,5.53,5,.47,6.87-8.8,6.19-6.7,4.09.18-4.2,7.6-10,11.71-7.4,8.76-7.39,8.23-6.06,6.48-6.61,11.2c-.6,1-8.12,6.67-8.12,6.67L1526.9,425l-2.08,3.52.36,2.74,2.89,1.71,2.31,4.16-2.57,4.35L1526.5,448l-.8,9.87.55,6.19-1.69,3.78-4.23,3.37-2.68-1.58-4.38.77-1.33,2.27,2.29,2.76-1.6,2.7,6.43,3.79.77,4.35,2.49,1.47-2.19,5.15-2,3.32,1.81,3.59-1.66,5.17-5.6-3.31-1.34,2.29.36,4.11,3.71,4.14.64,4.58-3.92,6.63,2,5.12,1.54,4,.16,4-2.45,4.15,2.23,3.83L1520,547l2.2-3.73,1.65-5.18.84-4.25-1-5.9,2.32-3.93-.11-4.56-.6-3.71,3.89-4.68,1.73-1.49,2.94-3.6,1.22-2.07-3.45-3.14-3.07-3.79.55-3.29,2.41-3.63-.74-3.49-.11-4.55,1.83-3.1-.11-4.55-.06-3.67,3.26-6.47,1.31-6.48s-1.45-7-.83-8.06S1538,445,1538,445l2.94-.21,2.94,2.58,2.61,6,3.18,5.52,1.56,5.38.41,5,2.48,4.54,5.64-9.54-1.42-4.48-1.48-5.05.87-6.21.33-4.83-.48-3.92-3.45-3.14-4.61-3.57-3.57-2.95-1-5.9,2.45-4.15,3.81-2.63,3.15.31,3.62,2.42,3.23-3.12,2.41-3.61,2.76-2.29,4,1.24-2.32,3.94-2.19,5.14,2.65,3.54,3.69-.08,4,.72.94,3.63-2.38,6.42-2.82,4.77,2.79,3.31-2.47,2.75.88,7.5-6.36,10.78,1.59,3.47,5.86,4.28-2.09,6.88-2.29,4.8,3.62,2.42-.47,6.44-2.15,4.6-2.47,6.08.1,6.49-2.7,4.57-1.55,3.54-3.25,6.47,1.62,7.67-.12,6.37-2.94,6.37-2.15,4.6-3.25,6.46-2.27,6.23,2.62,2.65Zm32.43-177.73-3.5,2.75-2.37,0-3.07-1.81.29-3.94-.57-4.28,2.4-4.08,2.83-3.31,3.42-2.61,2,1.2.75,2.51-1.17,4.62-1.86,2,.55,3.4Z"/><path class="cls-2" d="M1464,223.13V220h2.83l3.86-5.14,2-3.61,1.29-5.14-3.09-4.38H1465l-3.61,1.29s.52,2.06,0,2.83a22.24,22.24,0,0,0-1.28,3.86l-3.86,2.7v12.22l-1.8,2.32-3.6,3.86-4.89,3.34-3.09,3.09s-3.6,2.83-4.12,4.37a45.66,45.66,0,0,1-3.08,5.66l-1.81,5.4v3.86l4.64,4.12.25,4.12,3.09,2.57H1447l2-5.4-2-2.83-2.58-4.89-3.34-3.35,2.06-4.37h5.4l5.4-1.8,3.86-7,1.8-3.21,4.38-2.19a40.48,40.48,0,0,0,5.4,1c1.29,0,4.63-1.8,4.63-1.8l3.86-.26,1.54-4.63-4.63-3.6-5.4.26Z"/><polygon class="cls-2" points="1143.77 631.54 1147.92 633.25 1150.22 639.49 1156.61 636.82 1164.47 631.66 1171.8 626.72 1179 619.96 1182.57 611.27 1187.99 607.76 1190.63 601.34 1196.33 599.27 1201.58 595.28 1204.39 588.43 1207.02 582.04 1213.78 579.21 1220.71 574.05 1226.75 570.4 1229.99 566.4 1227.95 564.22 1223.63 565.65 1215.44 568.69 1211.52 566.54 1212.57 562.7 1214.25 558.6 1217.11 552.3 1219.83 545.68 1225.22 537.75 1231.6 537.17 1234.12 541.41 1235.17 546.65 1238.37 552.5 1243.04 548.28 1240.12 541.74 1240.65 533.96 1240.4 527.45 1241.73 521.59 1243.37 518.26 1248.79 512.22 1252.07 504.23 1254.4 495.31 1259.06 492.43 1263.97 486.97 1267.17 482.42 1263.06 480.73 1254.25 487.25 1252.25 485.63 1253.52 481.88 1258.81 475.51 1266.44 472.51 1271.22 471.27 1271.54 466.6 1276.26 457.07 1271.34 453.45 1263.16 456.49 1260.62 462.65 1252.56 467.34 1243.55 467.91 1236.08 470.44 1230.86 474.7 1227.49 477.05 1224.02 480.96 1220.23 483.67 1216.33 484.74 1212.35 483.37 1208.92 487.83 1206.06 494.13 1208.1 496.3 1212.36 496.98 1215.33 498.2 1213.26 503.22 1210.92 508.93 1213.3 509.64 1217.24 509.13 1218.61 505.15 1221.68 504.81 1222.97 508.81 1223.94 515.61 1221.97 520.41 1216.43 522.13 1212.09 520.35 1209.43 516.29 1206.59 513.84 1204.37 515.5 1204.08 518.71 1206.22 520.36 1205.36 523.08 1200.97 521.28 1197.4 521.86 1195.46 525.94 1197.39 527.5 1200.33 528.45 1203.46 527.69 1206.24 527.8 1211.47 529.44 1213.43 535.89 1211.36 540.93 1207.94 543.63 1203.39 545.35 1198.28 545.3 1195.22 547.12 1195.8 550.7 1200.16 550.69 1204.92 550.34 1203.7 553.94 1204.29 557.52 1203.9 560.72 1201.84 562.6 1199.34 562.05 1196.3 562.41 1194.19 566.36 1194.55 569.4 1197.66 572.77 1198.38 575.31 1197.96 578.83 1195.54 579.12 1192.19 579.83 1189.14 579.06 1185.82 580.1 1182.67 580.73 1178.56 578.24 1172.71 575.67 1170.53 578.63 1170 581.47 1174.25 584.02 1177.59 587.63 1178.6 591.42 1179.45 594.02 1178.34 595.17 1173.33 596.8 1170.27 597.63 1168.48 599.63 1170.08 602.37 1174.97 604.54 1177.46 606.69 1176.2 608.58 1173.25 608.33 1170.52 609.13 1167.65 609.08 1163.52 610.91 1163.52 614.44 1166.12 616.32 1166.35 618.5 1165.17 620.58 1163.05 622.6 1161.52 624.38 1159.6 626.32 1156.09 627.44 1153.53 629.76 1152.02 629.14 1149.27 630.74 1145.95 629.06 1143.77 631.54"/></g></g></svg>