<svg xmlns="http://www.w3.org/2000/svg" xmlns:xlink="http://www.w3.org/1999/xlink" viewBox="0 0 510.37 497.32"><defs><style>.cls-1{fill:url(#linear-gradient);}</style><linearGradient id="linear-gradient" y1="248.66" x2="510.37" y2="248.66" gradientUnits="userSpaceOnUse"><stop offset="0" stop-color="#275972"/><stop offset="0.56" stop-color="#3a6677"/><stop offset="1" stop-color="#436c79"/></linearGradient></defs><title>moutainBack1</title><g id="Layer_2" data-name="Layer 2"><g id="Layer_2-2" data-name="Layer 2"><polygon class="cls-1" points="0 3.84 17.39 2.77 24.7 0 30.48 3.84 32.25 7.3 38.29 7.3 42.06 12.84 45.84 16.61 50.87 16.61 55.41 16.12 57.08 16.05 58.54 17.16 61.32 13.82 63.4 11.39 65.21 12.43 66.39 14.1 67.43 15.63 68.29 17.16 68.96 17.93 71.74 17.93 76.26 16.6 78.03 16.86 79.59 19.13 87.08 19.13 90.76 20.54 92.46 23.22 95 26.19 99.1 25.63 102.64 24.35 105.61 24.92 107.45 25.2 108.72 27.46 111.12 30.72 111.97 33.41 113.95 34.25 117.06 34.25 118.33 35.53 120.31 35.53 121.59 36.52 123 38.35 124.42 40.76 125.83 42.88 127.53 44.58 129.79 45.71 132.62 46.41 135.59 46.41 137.71 46.41 138.98 44.86 141.24 41.75 142.52 39.06 144.21 36.66 145.49 33.97 150.58 30.01 153.41 28.74 156.8 26.33 160.62 23.21 163.31 19.13 166.56 14.74 169.1 10.64 171.65 8.94 177.87 8.52 181.12 7.81 183.95 9.36 186.21 12.19 189.32 19.13 190.88 24.07 192.15 29.73 193.71 31.57 195.12 34.82 195.69 38.35 194.56 40.19 193 43.87 193.14 48.68 194.27 51.36 196.4 55.47 199.65 62.54 202.34 65.5 204.74 68.47 206.86 72.01 209.26 77.95 209.97 83.04 212.8 90.82 212.8 95.63 212.8 101.14 214.35 105.53 215.91 107.5 217.61 109.34 218.88 111.18 220.15 111.18 222.98 112.88 224.4 114.58 225.53 117.83 227.37 122.21 227.37 129.42 225.95 130.98 223.55 132.11 222.7 135.36 222.56 141.16 224.54 146.68 226.66 147.53 230.9 152.05 232.03 156.43 232.03 171.42 229.06 172.13 229.06 176.09 230.05 184.29 232.03 186.98 235.43 190.8 237.26 195.32 237.26 199.85 240.23 203.67 244.33 207.77 248.15 211.02 249.85 215.4 253.95 219.5 258.19 221.63 263.43 225.16 266.25 229.83 268.38 231.1 271.2 231.1 273.32 227.85 276.86 225.3 278.7 223.32 280.68 220.64 282.23 219.93 284.07 221.48 286.76 226.01 289.3 229.26 291.43 230.25 292.84 232.94 295.38 232.94 297.36 235.34 300.9 238.03 300.9 240.72 306.84 243.97 312.35 246.09 315.61 247.22 320.13 251.32 325.08 253.16 327.49 254.29 332.29 256.55 335.83 260.23 338.8 263.77 340.92 268.86 342.9 274.51 344.74 279.75 347.71 283.42 350.11 289.64 350.11 294.6 350.11 300.39 353.08 305.2 355.2 308.31 356.9 312.57 356.9 317.22 358.03 320.9 358.03 323.58 359.44 326.13 361.71 328.53 363.4 330.51 366.09 332.49 375.71 332.49 381.93 329.95 384.76 328.53 387.3 326.69 390.13 326.84 393.52 328.11 397.63 327.26 401.3 327.83 405.55 329.95 410.64 329.1 415.87 332.49 418.98 334.33 423.36 336.74 425.77 337.73 429.02 337.73 432.56 338.57 434.68 340.69 439.63 340.69 444.72 341.54 448.82 338.15 453.48 336.17 457.16 335.75 457.16 333.91 464.09 333.2 469.18 333.63 471.31 333.46 510.37 341.54 487.92 497.32 7.07 492.03 0 3.84"/></g></g></svg>