<svg xmlns="http://www.w3.org/2000/svg" viewBox="0 0 1650 134.4"><defs><style>.cls-1{fill:#0e1f2a;}</style></defs><title>reflecTop</title><g id="Layer_2" data-name="Layer 2"><g id="Layer_2-2" data-name="Layer 2"><path class="cls-1" d="M1650,65.24,0,67.24.92,43.93,38.74,5.71,49.55,20.83,98.18,30l11.89-18.31,10.81,9.1c22.2,8.81,63.76,0,63.76,0L203.63,0c8,11.73,19.76,20.83,19.76,20.83l44.55-2.38c12.85-5.34,45.41,13.67,45.41,13.67L319.66,28l28.14,8.72L364.26,4.64l55,22.38,24,6.58,36.51-14.12,35.88,12.75L520.31,38l45.6-6.09,77.52,19.9,26.79-30.94h44.42l27.09,30.73s54.91-.53,59.08-.73,51-17.23,51-17.23l35.27,10.33,51.13,1.36s44-13.6,51.54-11.69S1033,50.83,1033,50.83l71.81-6.9s19-5,22.21-3.49,9.73,10.39,9.73,10.39l29.81-30.07S1218.89.22,1225.37.57,1258.93,15,1258.93,15L1295.62,30l33.3-1,54.55,4.59s23.47,11.19,27.79,10.33,41.07-32.2,41.07-32.2l9.72-4.84,67,23.15,19.45,20.22s34.45-25.74,38.3-29.43,34.33-2.63,34.33-2.63l24.61,22.24,4.25.8Z"/><path class="cls-1" d="M1650,65.24,0,67.24.92,90.47l37.82,38.22,10.81-15.12,48.63-9.21,11.89,18.31,10.81-9.1c22.2-8.81,63.76,0,63.76,0l19,20.83c8-11.73,19.76-20.83,19.76-20.83L267.94,116c12.85,5.33,45.41-13.68,45.41-13.68l6.31,4.11,28.14-8.72,16.46,32.09,55-22.38,24-6.58,36.51,14.12,35.88-12.75,4.69-5.72,45.6,6.09,77.52-19.9,26.79,30.93h44.42l27.09-30.73s54.91.53,59.08.73,51,17.23,51,17.23l35.27-10.33,51.13-1.36s44,13.6,51.54,11.69S1033,83.57,1033,83.57l71.81,6.9s19,5,22.21,3.49,9.73-10.39,9.73-10.39l29.81,30.07s52.32,20.55,58.8,20.19,33.56-14.4,33.56-14.4l36.69-15.07,33.3,1,54.55-4.59s23.47-11.19,27.79-10.33,41.07,32.2,41.07,32.2l9.72,4.84,67-23.15,19.45-20.22s34.45,25.74,38.3,29.43,34.33,2.63,34.33,2.63L1645.75,94l4.25-.72Z"/></g></g></svg>