<svg xmlns="http://www.w3.org/2000/svg" xmlns:xlink="http://www.w3.org/1999/xlink" viewBox="0 0 1650 755.66"><defs><style>.cls-1,.cls-2,.cls-3{opacity:0.6;}.cls-1{fill:url(#linear-gradient);}.cls-2{fill:url(#linear-gradient-2);}.cls-3,.cls-4{fill:#012f43;}.cls-5{fill:#0e1f2a;opacity:0.7;}</style><linearGradient id="linear-gradient" x1="772.84" y1="516.3" x2="1219.96" y2="516.3" gradientUnits="userSpaceOnUse"><stop offset="0" stop-color="#275972"/><stop offset="0.56" stop-color="#3a6677"/><stop offset="1" stop-color="#436c79"/></linearGradient><linearGradient id="linear-gradient-2" x1="438.83" y1="-316.37" x2="1462.87" y2="904.04" gradientUnits="userSpaceOnUse"><stop offset="0" stop-color="#2b4154"/><stop offset="0.59" stop-color="#153e51"/><stop offset="1" stop-color="#0c3d4f"/></linearGradient></defs><title>reflecBottom</title><g id="Layer_2" data-name="Layer 2"><g id="Layer_2-2" data-name="Layer 2"><polygon class="cls-1" points="1219.96 383.16 1217.84 383 1212.76 383.42 1205.87 382.71 1205.87 380.87 1202.18 380.47 1197.53 378.49 1193.45 375.11 1188.37 375.94 1183.43 375.94 1181.31 378.06 1177.79 378.91 1174.56 378.91 1172.15 379.9 1167.78 382.29 1164.68 384.13 1159.47 387.5 1154.39 386.66 1150.14 388.78 1146.48 389.35 1142.4 388.5 1139.02 389.77 1136.19 389.91 1133.66 388.07 1130.83 386.66 1124.62 384.13 1115.03 384.13 1112.36 386.09 1110.66 388.07 1108.4 390.48 1107 393.01 1107 395.7 1105.87 399.36 1105.87 403.99 1104.17 408.24 1102.07 411.35 1099.09 416.15 1099.09 426.87 1096.7 433.06 1093.73 436.74 1091.91 441.95 1089.93 447.6 1087.81 452.68 1084.85 456.19 1081.33 459.85 1076.54 462.12 1074.13 463.25 1069.2 465.07 1064.69 469.18 1061.43 470.29 1055.95 472.42 1050.02 475.65 1050.02 478.34 1046.48 481.01 1044.52 483.42 1041.97 483.42 1040.56 486.09 1038.45 487.08 1035.9 490.31 1033.23 494.85 1031.39 496.38 1029.86 495.68 1027.88 493.01 1026.04 491.02 1022.51 488.5 1020.39 485.24 1017.58 485.24 1015.46 486.51 1012.64 491.17 1007.43 494.7 1003.2 496.81 999.09 500.89 997.41 505.28 993.59 508.52 989.51 512.61 986.55 516.41 986.55 520.94 984.71 525.45 981.34 529.25 979.35 531.92 978.36 540.11 978.36 544.06 981.34 544.76 981.34 559.71 980.2 564.08 975.98 568.59 973.85 569.44 971.89 574.94 972.03 580.73 972.86 583.98 975.27 585.1 976.68 586.65 976.68 593.85 974.84 598.22 973.71 601.46 972.31 603.16 969.48 604.86 968.21 604.86 966.95 606.68 965.25 608.52 963.7 610.48 962.16 614.87 962.16 625.16 959.33 632.91 958.62 637.99 956.23 643.91 954.11 647.43 951.72 650.41 949.03 653.36 945.8 660.42 943.67 664.5 942.54 667.19 942.4 671.99 943.96 675.65 945.09 677.49 944.52 681.01 943.11 684.24 941.55 686.09 940.3 691.73 938.74 696.66 935.64 703.58 933.38 706.39 930.57 707.95 927.31 707.24 921.1 706.82 918.57 705.12 916.02 701.03 912.79 696.66 910.1 692.58 906.3 689.46 902.92 687.08 900.09 685.8 895.01 681.86 893.76 679.17 892.06 676.78 890.78 674.09 888.54 671 887.26 669.44 882.19 669.44 879.35 670.15 877.11 671.28 875.41 672.96 873.99 675.08 872.6 677.49 871.18 679.31 869.91 680.3 867.95 680.3 866.67 681.57 863.56 681.57 861.6 682.42 860.75 685.09 858.34 688.33 857.09 690.6 855.25 690.88 852.29 691.44 848.75 690.17 844.67 689.6 842.14 692.58 840.44 695.25 836.78 696.66 829.29 696.66 827.74 698.91 825.98 699.17 821.47 697.86 818.7 697.86 818.03 698.63 817.18 700.14 816.13 701.66 814.95 703.34 813.15 704.37 811.07 701.94 808.3 698.63 806.84 699.72 805.18 699.66 800.65 699.17 795.64 699.17 791.88 702.93 788.09 708.46 782.09 708.46 780.33 711.89 774.54 715.74 772.84 715.09 773.23 713.82 777.21 703.99 780.79 701.64 784.84 698.04 789.29 691.04 793.96 683.6 799.91 675.12 804.78 660.9 807.75 655.38 807.75 641.59 815.4 632.47 815.4 615.7 819.2 607.42 821.33 597.88 821.33 588.76 823.67 578.99 826.42 570.71 828.77 566.37 838.52 559.47 841.49 559.04 843.39 556.7 846.37 554.15 852.74 552.02 859.96 544.18 862.71 538.88 865.48 533.15 869.71 529.76 872.36 526.78 875.73 511.07 877.33 504.29 878.12 492.94 880.12 488.58 881.11 483.2 886.29 473.45 907.77 458.12 919.73 450.35 934.45 438.21 937.24 436.07 950.04 436.07 958.12 430.97 965.64 424.01 972.8 416.43 976.46 410.83 983.76 399.88 989.37 395.01 993.73 386.98 1014.42 373.59 1035.62 354.6 1042.68 349 1049.74 347.3 1058.26 349 1068.95 350.96 1072.86 348.51 1077.77 345.6 1079.19 343.39 1090.15 333.42 1095.49 327.82 1103.54 322.46 1105.73 319.79 1110.84 319.3 1117.66 319.06 1122.51 318.57 1127.87 316.86 1133.72 318.57 1138.35 318.09 1143.22 319.3 1147.11 321.02 1157.83 321.02 1160.01 324.18 1170.01 329.52 1173.4 333.42 1178.28 336.33 1180.95 338.3 1185.09 338.3 1189.22 340 1191.42 341.69 1191.42 345.6 1192.64 348.75 1197.51 352.41 1201.88 358.02 1205.3 365.56 1211.87 369.93 1214.54 373.83 1218.2 380.16 1219.96 383.16"/><polygon class="cls-2" points="0 51.85 0 235.85 32.1 234.7 48.14 244.73 62.18 244.73 79.19 246.59 83.47 249.4 91.95 255.55 101.9 267.58 115.03 276.06 127.42 280.71 162.56 310.18 165.88 313.88 170.28 316.21 180.6 316.81 185.64 319.65 189.92 322.84 193.48 327.76 199.63 337.32 207.62 343.72 214.24 345.8 216.34 345.8 217.55 344.93 219.03 343.96 220.75 343.96 223.46 344.81 225.42 345.8 228.23 349.12 236.34 362.24 239.18 369.36 240.65 372.32 246.9 380.79 251.21 386.56 256.61 394.79 262.5 404.37 267.9 410.87 271.09 414.43 276.98 418.61 281.41 420.94 286.44 420.94 288.41 419.97 289.4 418.86 290.85 417.5 291.84 416.02 293.69 414.31 295.4 412.59 298.54 411.86 304.12 412.1 316.4 414.31 322.79 415.18 339.11 422.78 353.98 430.53 360.35 432.25 370.18 440.09 375.32 443.59 378.35 445.41 381.14 445.41 384.68 449.68 388.08 451.99 389.66 454.17 394.17 459.05 396.47 463.66 397.44 467.32 397.44 472.07 399.04 474.13 401.71 476.56 404.87 480.46 409.38 485.68 414.25 491.89 418.26 496.04 422.04 499.44 422.89 501.26 422.89 502.98 423.62 504.19 425.68 505.04 426.89 505.65 428.41 506.98 431.28 506.98 433.83 508.19 437.61 510.52 443.24 514.57 450.46 520.76 456.55 527.69 458.95 530.83 462.63 532.73 464.82 533.98 467.77 534.41 470.28 536.19 473.76 538.39 477.42 540.6 483.71 543.85 489.92 547.64 492.53 549.09 493.9 549.62 496.21 549.09 499.57 549.62 502.5 549.62 505.98 550.47 508.29 549.84 513 549.52 515.3 549.52 517.83 548.67 520.24 548.67 522.97 549.84 527.05 552.05 532.52 553.08 538.3 555.61 541.86 556.66 546.37 558.11 548.27 560.44 550.58 561.9 553.83 561.9 557.82 564.1 562.13 566.37 567.37 573.12 574.93 581.62 578.17 584.27 580.07 586.25 580.69 588.78 583.53 589.3 585.41 592.13 588.04 594.12 589.61 597.07 589.61 601.05 590.04 604.41 593.92 610.6 597.38 615.21 601.06 621.4 602.62 623.5 611.13 629.17 613.87 632.42 615.42 634.73 619.83 636.21 624.46 641.97 627.07 644.4 631.18 645.55 633.91 645.55 636.11 647.76 637.89 649.21 641.78 650.37 645.56 651.11 651.22 654.77 656.89 654.77 662.35 657.52 665.62 659.93 672.48 661.89 683.42 672.03 691.43 683.7 699.28 691.52 703.45 696.66 707.01 697.13 702.4 707.36 702.11 708.62 702.4 710.22 702.98 711.89 703.63 713.23 705.07 713.96 711.64 720.35 715.38 725.24 720.64 735.58 726.67 739.64 732.49 743.24 738.76 748.62 749.04 748.62 759.53 752.87 764.73 751.68 770.56 749.96 773.35 748.22 775.61 746.62 777.21 743.97 777.21 740.8 775.49 738 773.49 736.53 772.03 734.4 770.96 731.09 770.03 725.5 771.23 720.33 772.84 715.09 773.23 713.82 777.21 703.99 780.79 701.64 784.84 698.04 789.29 691.04 793.96 683.6 799.91 675.12 804.78 660.9 807.75 655.38 807.75 641.59 815.4 632.47 815.4 615.7 819.2 607.42 821.33 597.88 821.33 588.76 823.67 578.99 826.42 570.71 828.77 566.37 838.52 559.47 841.49 559.04 843.39 556.7 846.37 554.15 852.74 552.02 859.96 544.18 862.71 538.88 865.48 533.15 869.71 529.76 872.36 526.78 875.73 511.07 877.33 504.29 878.12 492.94 880.12 488.58 881.11 483.2 886.29 473.45 907.77 458.12 919.73 450.35 934.45 438.21 937.24 436.07 950.04 436.07 958.12 430.97 965.64 424.01 972.8 416.43 976.46 410.83 983.76 399.88 989.37 395.01 993.73 386.98 1014.42 373.59 1035.62 354.6 1042.68 349 1049.74 347.3 1058.26 349 1068.95 350.96 1072.86 348.51 1077.77 345.6 1079.19 343.39 1090.15 333.42 1095.49 327.82 1103.54 322.46 1105.73 319.79 1110.84 319.3 1117.66 319.06 1122.51 318.57 1127.87 316.86 1133.72 318.57 1138.35 318.09 1143.22 319.3 1147.11 321.02 1157.83 321.02 1160.01 324.18 1170.01 329.52 1173.4 333.42 1178.28 336.33 1180.95 338.3 1185.09 338.3 1189.22 340 1191.42 341.69 1191.42 345.6 1192.64 348.75 1197.51 352.41 1201.88 358.02 1205.3 365.56 1211.87 369.93 1214.54 373.83 1218.2 380.16 1219.96 383.16 1219.98 383.16 1224.54 390.86 1226.72 396.22 1229.87 399.64 1232.32 401.83 1235.23 404.01 1239.38 406.21 1244.01 411.07 1250.32 415.22 1257.16 420.09 1261.77 423.97 1267.86 424.22 1275.65 429.33 1280.04 434.45 1290.76 436.07 1298.3 434.45 1306.09 436.07 1315.33 436.07 1322.39 440.54 1325.81 443.69 1330.18 445.41 1334.32 448.57 1337.52 451.32 1339.88 450.06 1341.24 452.61 1342.05 454.5 1345.27 455.3 1348.62 457.19 1352.34 459.83 1358.25 467.2 1359.24 471.93 1363.97 475.69 1368.06 478.46 1373.36 486.96 1376.62 495.82 1382.22 501.64 1387.8 509.79 1393.61 522.23 1396.84 528.34 1395.99 533.82 1396.07 538.07 1398.4 544.26 1399.94 548.59 1402.87 554.29 1403.8 558.48 1405.34 563.58 1408.73 566.37 1413.22 568.67 1414.76 570.67 1418.32 571.3 1425.89 571.3 1428.05 569.74 1432.22 569.6 1433.78 567.9 1435.31 566.37 1437.17 564.97 1440.11 567.44 1442.9 569.14 1446.9 573.61 1449.83 576.54 1454.79 579.8 1458.96 580.4 1461.12 581.62 1466.06 586.07 1469.39 589.91 1472.99 594.52 1476.31 598.38 1482.22 601.72 1486.59 609.91 1489.4 614.02 1491.2 617.62 1494.8 621.22 1494.8 632.5 1497.37 636.35 1499.41 642.52 1501.47 645.59 1501.47 648.16 1504.55 650.47 1506.08 655.08 1506.08 659.45 1509.16 668.67 1510.45 672.27 1510.45 676.38 1513 677.91 1513 681.76 1515.06 684.59 1515.06 706.65 1518.4 711.89 1520.44 714.87 1521.74 719.48 1521.74 726.92 1526.35 733.09 1528.41 736.41 1531.22 741.04 1534.3 743.35 1536.87 745.39 1539.17 747.19 1539.17 749.49 1542.01 752.87 1545.85 752.87 1549.45 754.63 1554.32 755.66 1557.9 755.66 1561.77 753.36 1565.35 752.83 1569.21 749.25 1571.25 745.65 1572.3 743.77 1572.3 742.05 1573.42 740.31 1574.04 737.76 1574.95 735.21 1575.36 733.58 1576.89 731.23 1577.7 729.51 1578.41 727.87 1579.55 726.46 1582.9 725.93 1584.44 725.42 1587.6 725.42 1590.77 725.61 1594.71 725.85 1597.26 727.12 1598.42 728.66 1603.13 728.66 1605.17 729.43 1607.6 731.21 1610.27 733.37 1612.43 734.91 1615.1 737.58 1616.76 740.01 1618.8 740.9 1622.63 742.8 1624.55 745.11 1626.97 745.23 1631.18 746.12 1633.2 747.77 1634.74 747.27 1649 747.86 1650 648.86 1650 51.85 0 51.85"/><polygon class="cls-3" points="780.27 565.61 764.94 550.42 780.27 524.61 800.8 511.6 800.8 524.61 790.74 533.86 793.38 540.26 788.11 545.54 780.27 565.61"/><path class="cls-3" d="M1104.82,313.91V306.1l3.41-10.25,5.37-6.84v-9.27L1123.85,269l3.91-15.62V241.67l-5.86-9.27-2.44-12.66v-7.36l3.42-9.76,4.88-10.74,3.9-8.78s-.49-5.86,0-7.32-.49-10.25,0-13.18,5.37-12.69,5.37-12.69l5.86-6.35,10.25-11.22,8.3-5.37s1.46,1.95,4.39-8.3l2.93-10.25h5.86L1180,105l9.77-4.39,14.64-6.83,10.25-14.16h15.62l-2,21-13.18,2.44-11.23,5.86,1.47,12.2s-3.42,5.37-3.42,6.83-13.18,10.25-13.18,10.25H1181l-6.34,5.37-12.21,6.83-8.78,15.14-2.93,13.17s-3.42,4.4-5.37,4.89-5.37,13.17-5.37,13.17-2.93-2.92-3.42,5.37-.48,14.65-.48,14.65-1,5.85,1,5.85,5.37,19.53,5.37,19.53l-6.34,16.1-2.93,20-6.84,5.85-3.41,9.77s-6.35,6.34-6.35,8.78v11.23l.66,4.85s.22.31.09.31l-4.23.14-3.88.24-3.43.31Z"/><path class="cls-3" d="M1043.93,298c.58-.75,1.24-2.43,1.91-3.13a32.06,32.06,0,0,1,4.4-2.87,43.75,43.75,0,0,1,4.37-2.85c1.8-.79,6.17-3.07,7.85-2.15,1.48.82,0,4.11,0,5.48,0,.74,1.43,2.18,1,2.86-1.25,2.1-9,2.2-11.41,3.6-1.64.95-3.06,4.72-5.13,4.86-1.59.11-4.64-1.94-4.78-3.12C1042.05,300,1043.43,298.67,1043.93,298Z"/><path class="cls-3" d="M1103.75,99.32v-44L671.31,60.25l-4.67,10,.63,9.43,8.39,5.83,9,6.24,7.49,4.67,5.28,2.79,8.74-5.28,6.24,1.55,8.08,4.36,5,1.86,11.53-.93,4.67,3.13v4.67L733.64,112l-7.8,3.13-1.55,7.78,5.6,5.93,4.69-.62,6.52-.31,6.87.31,3.73,5.9,3.14,2.52,8.7.93,6.17-.31h3.81l9.35.31,3.42,5.91,2.51,4.69V159l-3.75,3.42-5-5-3.44-1.24-3.11-3.11-5.91-4.35-6.87.62-2.17,7.15,1.55,5,5.6,6.22.31,6.55-.93,6.53-5,2.52-8.42,1.24-5.91,1.55-1.86,7.18,2.8,6.53,3.42,9,6.24,7.18,4.66,7.46,8.66,3.45,8.81-3.45,5.9,2.18,1.25,4.69v6.86l-.31,5.91-2.8,2.8-5.62-1.87h-4.67l-2.56,3.42v10.91l-3.34,4.07-2.83,6.21v5.63l6.17,9.66,8.5,4.35,1.55,5.31-.93,3.42-3.76,2.49-2.18,4,.94,7.8.62,5.93-4.74,1.25-9.28-3.14-4.66-7.15-4.38-4.07-.93-13.39-4.35-5.6-3.45-2.48L738,285.55l.31,6.53,1.24,5.94,1.87,3.42,2.2,3.75-1,4.05-4,2.48-5.29,2.8v9l-.93,6.25H728l-2.8-4.07-6.55-3.11-3.11-6.87-4.66-.31-5.32,2.21-3.73-1.56-3.44-1.58-3.11-3.42-3.73-2.8-4,.31-3.76,4.67-6.84,7.8-1,6.24-.31,7.46,7.13,27.07,1,17.2-13.47,35.31-8-5.09-8-75.12L664.78,322l.93-7.49,1.87-4.35,3.11-5.62,2.48-5.6-.31-8.11-.31-5L667.27,284v-3.76l1.58-3.73,5.57-2.8.62-6.55-3.73-3.42-5.91-2.18V238.19l-4.07-3.75-3.73-5.91-6.27-5L647,218.32l-.75-55.11L647.5,160l2.9-2.2,1.37-2.49,1.4-3.73,1.66-3.35L656.9,144l-2.74-16.11-2.57-2.28-2.8-.6-3-9-2.31-7.64,1.61-11,1.47-4.25,1.3-3,2-30.72-74.77-4-21.17,60.86,2.31,5.1,9.74,2.31v4.64l-4.64,7.9-4.17,12.05v9.74l4.64,3.7,7.44-13.44,7.87-6,9.28,1.87,4.17,12,5.1,5.57,3.73,8.37-.46,6-5.57,8.84V196.9l9.27,7.87v4.64l-3.24,7.43-2.79,9.75,10.67,1.4-2.77,6.94v7.9l-10.21-.47-8.37,5.11-8.81,1.84-4.17,6.5-9.74.47-8.81,6.47-5.57.94-.93,7.43v6l7.9.44,2.77-6.94,4.64-5.57h7.41l5.1-4.64,8.37.93,2.77-5.57,6.51,3.24,3.24,5.57v9.28l-1.4,5.57-.91,7,3.7,11.11,2.31-5.1,8.37,1.39,21.61,19.51-6.8,24.93-4.17,20.93-14.45-8.27-3-16.91-8.93-2.82L584,318l-8.37,4.63-3.24-4.17,6.51-10.67,6-6-1.86-13.91-6.5,6.5L570.11,292l-4.64,6-3.73,4.63-8.81,5.11-4.17,3.7L544.59,318l-7.44.93-7.41-1.4-7.87-2.31L518.14,311l3.73-5.57L526,298l8.34-6.48V267.86l1.4-6.48,8.34-6.5,7.88-7.41,4.17-8.84.47-8.8,6.5-4.64,5.57-6.95s-5.1-5.57-5.1-7-.94-8.34-.94-8.34l-2.3-15.78-8.84-.46-3.7-13.45-2.31-8.34v-7.44l1.84-4.64L544,139.33l1.58-8.61,1.29-6.21-3.39-1.84-6.5-.78-3.11-5.47-1.56-3.36-6-.52-3.11,3.88L520.31,119v3.11l-3.63,2.62-1.06,3.11-2.07,3.65-5.47,1.29-.51,3.63.25,9.9L506.27,151l-1.3,3.65-3.36-1.29-3.92-3.14-2.85-2.59L492,144l-2.59-4.66-3.91-3.4-4.41,1.56-1.32,3.13.28,4.15,3.37,4.69,6.76,5.72,5,4.69,7,2.07,7.54,7,2.08,5.46v3.89l-2.08,3.13L507.57,184l-4.15,3.37-5.21,2.1-3.88,2.33-4.69,1.3H485l-4.15-4.41-1.58-3.91-1.29-4.43-.26-4.14L471.16,170l-6.24-3.39-2.85-5.7-.52-4.95-4.43-1-2.59,2.59,1.81,7,1.82,3.91,3.13,4.14,5.21,3.4,6,4.66,1.84,4.17v2.59l-4.95.78-5.73-.52L460,185.34l-3.66-3.11-4.14-.52-3.91,1-3.63,2.85-5-.52-2.33-4.17-4.95-1.55-2.88,3.91-1.29,3.11,2.87,3.91,5.7,2.85h6.77l4.17-2.07,4.43-.26,2.33,3.36,2.33,3.14,5.21,2.59,6.5,4.17.78,4.41-5.47,1.84-2.59,1.29-1.58,2.75,5,3.21-.36,4.25-5,3.21,3.18,1.43h4.64l4.27,2.15,5.34,2.48,2.49,5L475.75,240l5.7,3.21,4.64,2.49h6.4l5.33,5.7L495.7,255l-4.64,3.21-5,3.55L484.3,266v4.64l1.06,3.19,3.91,2.85-.7,14.25-5,2.15h-7.1l-3.21-8.22-3.21-3.91L469,277.76H461.5l-6-2.52-5.36-6.4-2.85-6.76-4.61-3.91h-5.36L434.09,261l-4.64,3.94-4.27-5.7-2.49-4.64-5,1.07-3.91,2.85-3.19,5.33-2.51,3.22-6.4,1.42L395.25,266l-7.82-6.4-2.2-5.49-22-23-23.5-23.86-26.4-19L295,175.11l-15.39-12-3-2.67-5.31-4.35-6-4.48-4.12-4.12-.6-3.27,3.53-1.84,3.86-.72,4.61,1h4.12l4.12,4.36,4.25,5,1.19,4.61,3,4,4.38.36,3.26-4.12V145.18l2.41-2.07L329.73,142l2.67,4.12.36,5.21-.85,4.12,1.94,2.67,3.76,2.66,2.9,1.46,3.29,4,1.32,3,2.17,4.59,1.71,3.52,5.45-.62,3.39-1.55,3.16,4.22,3.26,4,4,3,7.39.59,4.87-1.71,4.48-2.17,1-5.21.23-6.06v-4.12l.13-2.18,1.58-2.05,2.54-1.81,3.4-2.57,3.26-2.53v-4.23L396.6,150l-2.18-.6-3.75-.13-2.18,2-3.14,3.29-2.66,2.05-1.09,4.24-2.8,1-2.9,1.82-3.27-.73-3.16-3-5.21-4.48-3.16-2.54-1.81-3.63.86-4.12,4.84-.59h7.75l2.35,2,4.28-.72,2.05-2,2.38-2.7,2.2-1.73,2.54-.81h2.7l2.61.57,2.13,2.54,1,1.82,1.27,2.85.39,1.66,1.58,1.26,1.82.78,1.81-.46,1.68-5.24h2.52l2.07,2.15-3.52,2.57v5.23l.85,3.91,6.11,3.94,3.92.86,3.91-5.65.44-5.23,8.71-.89-.86-11.32-7.41-1.73-3.06-5.24-12.17-7.41-7-9.14,7-7.41L401,91.71,148.29,99.32l-5.21,16.35v14.8l9.56,22.23,20.91,7v5.65h4.8l6.11-5.65,2.18,5.65,7.85,4.38,9.14-9.58,8.27,6.52,13.5,12.62,9.87,10.94,3.47,3.47,2.2,3.16,6,1.89L258,200.6l3.81,4.43,6.64,6,2.85,4.43,3.78,1.89,6.63.63L277,224l-1.58,3.78-4.09,5.08L281.72,242l4.43,8.24,3.78,5,3.5,8.53-1.58,9.48-3.5,6.32L282,284.05l-2.82,8.86V304l1.58,3.78,4.09-6.32,6.63-7.91,6-6.39,6.64-5,8.55-2.85,6.32,6,2.51,13,14.87,1.58L350,303.64l10.75-.62,7,.62,6.81,4.9v9.56l.91,2.22s10,2.47,10.91,2.91,5.78,7.12,5.78,7.12V337l8.88,4.46,6,6.89,10-.21,5.55,2.44-3.81,15.33,9,6.89,4-8,2.1-8.44,4.22-.39,5.75-4,8-3.83,5.19-3.84h7.09v4.23l-.77,6.71v6.89l-1.35,8.44-2.67,6.69-5,.59V373a23.35,23.35,0,0,1,.39-2.49l3.83-3.65.78-4.61v-5.16H455l-3.27.39a23.89,23.89,0,0,0-2.87,3.63l-1.32,4.22-1.77,13.48L437,383.54l-8.24-7.05-9.38,5.29L424.94,404l-2.47,8.72L433.26,419l8.42-26.65,9.64.11,2.43,5.36,8.71,4.22,5.8-.67,5.13,5.13,6,9.38,6.92-1.35L484.77,406l-1.12-2.23v-3.57l4.46-2.78,1.68,4.25,3,4.25,8.5-1.27L498.73,400l-2.56-3.84V389l7.64-5.94,5.1-1.71,4.69-11.48,5.93-.41-1.68,5.93v5.11l4.25,6.81,7.23.83L539.1,400l8.91,4.66,4.69,6,6.37.86,5.52-.86,6,.86v7.64l4.66,6.37,4.69,2.54,5.52-2.95,6.37-1.3,5.52.44,3.42,5.94,2.54,5.1v6.81l3,4.25,2.54,5.52,5.1-1.27v-6l5.52,2.57,4.25,6.79,4.25-6.79,5-1,7.59,4.19,4.8,4.8,2.38,4.79,4.53,4,6,5.57,4.61,1.22,5,4.17,3.39-2,.6-2.6-1-3.18s-7-4.59-8.6-5.6a10.14,10.14,0,0,1-2.77-3l-7.26-1.81v-9h9.95l6.69-13.58,7.79-2.72,16.3,2.72,6.32,13.58,13.58-7.26,13,9.11,5.89-4.31-3.89-10.55,4.37-20.93,5-14.64,11.59-.12,7.12-6.32,5.81,36.91L781.63,436l12.66-9.06H815.1L846.76,416l34.38-48,9.07-13.57h12.67l22.62-11.77,19-13.57,6.34-14.46L959,302,969.83,293l9-6.32V268.53l10-11.76,12.72-9,12.6-26.25,16.29-15.39,10-8.13,7.25-18.09,19-8.16,3.62-10-3.62-8.13v-9.07l11.76-8.13V122.85l4.53-11.76L1093.8,103ZM393.46,274.72l-2.33,3.71-3,2h-4.35l-1.35-6.4h-9.74l-3.37-3.34L367,265.14l-2.7-4.85-6-3.34-7.05-3h-5.05l-5-2.36V235.78l-6.19-9.06-12.62-5-9.71-3.34L305.5,215l-11.06-7.38-6.37-7-7.39-5.05H274l-10.05-9.05-11.43-5L244.41,175l-5.7-5.7-6.37-8.06v-5.39l6-1.66,5,7.05h5.73v-3.7l2.67-3.35h4.71l3,3.68v5.7c0,1.69,2,5.39,2,5.39l6.37,7,3.37,4.35,6.71.34,5.36,3,.68,5,4.71,6,3,1.35,3.7.67h5.7l6.38,3,5.38,5v3.71l4.36,3.34,7,2.36,6.38,5,7.72,5.39,6.4,5,4.69,7.38,6,2.36,9.41,7,3,5,7.72,7.05,6.37,5.05,5.37,5.7,4,2Zm59.26,30.16-3,3.81-4.54,3-4.14,2.64-7.18,3.39H429l-1.52-4.51V292.34h4a42.65,42.65,0,0,0,4,1.43c1,.2,7.25,0,7.25,0l6.07,1.32,2.64,1.71,1.22,4.64Zm441-30.1,4.22,2.56,3.79,6.06v10.86l2.54,7.36,1.91,7-6.37,1.27-4.17-8.29-4.15-8.32-2.87-.31-3.53.31-3.18,4.79-.31,4.49v4.14l2.22,6.71,3.84,2.88,3.52,2.56.62,5.42-.62,6.92-.65,5.54-2.56,3.52-3.5,5.11L879,351.44l-2.23,3.83-1,5.11-3.18,4.17.23,1.94-.6,1.87-.67,1-.83,1.27h-2.3l-1.27-2.87L865,363.25v-6.71a4.87,4.87,0,0,1,0-3.18c.62-1.27,4.79-5.75,4.79-5.75l3.5-4.8,3.21-4.79v-9.25l-3.83-4.15-8-1.6H859.2l-2.57-5.75,3.84-6.4,6.06-4.15,1.92-4.79-1.92-4.15v-2.87h-4.15L857.93,293l-2.88-1.61-3.21-6.68v-8l3.21-7.33,3.5-4.22.65-6.63-1.92-7.36,1.61-6.71,3.83-5.42,7-6.4,2.88-8.62,5.41-9.9v-5.42h4.79l2.57,6.69v19.17l2.23,3.83,1.91,7.36-2.87,4.46L886,260.73l1.92,5.76,2.87,4.45ZM955.29,167l-1.5,3.89-2.36,1.74-2.18.64-3.44,1.09-2.39,3.24a25,25,0,0,0-.2,2.8V188l.2,6.27-1.71,6.47-5.38,1.71-3.68,3.68-6,4.54-4.33,1.71-2.15,6.06-.2,3.89,2.15,1.94,1.71,3,4.12,5,1.29,7.12v3.22c0,1.08,4.53,8.42,4.53,8.42l4.75,2.82,3.65,3.65,1.09,7.7,3.24,8.91V286.8l-2,5.39-1.73,5.18L939.33,301l-4.09,5.42L935,311l-.65,4.95-3.24,5.18-1.52,4.09-3,1.95-2.1,4.07L920.6,326l-3.5-4.79-1.73-8.29V301.1l-3.06-12.64V265.14l-2.62-10.73-2.62-7.85-5.23-7-3.94-15.7v-21l1.51-4.74,2.82-6.27,2.59-4.3,3.45-5.41,1.5-6.45,1.45-4.33v-19l-1-4.1-1.94-7.12.41-3,2.54-4.09,2.64-2.6,3.47-6.24-.88-5,1.74-2.8,3.89-1.74,5.18-2.8,6.47-3,2.8,1.74,1.71,3.24,2,6,1.94,6.92,5.18,9,5,7.36-1.3,4.54,1.3,7.09c1.29,2.39.41.24,1.29,2.39s1.71,4.53,1.71,4.53Z"/><path class="cls-3" d="M1509.18,1.63,1489.25,4l-21.39-4-9.35,1.89-8,5.89-14.89,8.38-24.83-3.92-75.67,18.28-133,18.37-112.26,1.19-11.46,72.77,21.1,6,5.31,33.18,16.81,3.46,10,17.66,9.51,3.64a30.5,30.5,0,0,1,8.32-2.93l9.73,2.72,6.12,3.59,11.49,5.83,9.45-3,13.68-10,9.73-6.65,9.65,4.4,6.21,5.85,5,7.38.9,6.8,5.4.76,7.61-5.16,7.09-8.67,6.89-5.92,5.57-2.56,6.65-3.74,10.46-.63,9.21-15,13.92-12.1,6-30.24,10.91,2.56,17.9,25.59,1.32,39.85,18.24-2.28,18,.68-2.18,18.28,9,2.67,9-5.1,13.2,4.35L1397,214.43h0l8.94-.21,5.67.43,4.93,4.47,12.24,14.23,14.9,6.1,9.6-1.18,7.86,6.45-.83,7.1-8.31,3.47-11.66-2.48L1430,248.37l-5.27-4-10.8-6.27-12.79-6.68-9.83-3.52-8.6-2.41-8.42,1.13-9.6,1.17-11.75.58-19.37-1.16-12.5-14.7-14.36.24-14-7.79-14.41-.94L1266,199.44l-1.08,8.22-7.35,3.87-8.92,10.71-6.3,2.86,3,5.33,5.81,2.82,7.27,2.93,6,10.68,5.89,4.64,5.36,1.2-.14-10.23-4.09-8.94,5-2.8,8.67,5.42,10.35,5.11,8.87,4.15,9,3.64,10.79-1.73,3.36,6,8.25,5.37,8.45-4.32,6.54,1.54,2.78,5.9,7.63,1.23-2.29-6.9,5.27-3,9.16,3,19.49,6.2L1414,272.53l11.24.07,12.06,1.53,3.74,5.68,2.92,6.14,6.2,2.48-.53-5.68,6.22-1.26,3.65,6.48,2.43,7.17-1.54,6.73,4,9,4.28,6.65,4.18,4.58,9.21,1.21,6.51,9.67-4.07,6,.25,5.19,2.28,4-5.08,2.34L1477,343.7l-7.19-2.35-4.45,2.51-5.27,3-6.5-1.13-9.47-6.4-.63,8.35,4.71,11.21,8.26,7.09,10.81,4,6.76,6.33,2.48,8.2-5.64,8-8.25,1.45-9.47-6.4L1451.6,382l-2.84-6.94-5.39-3.89-3.93-7.92-3.85-10.63.2-12.91-2.08-8.43.91-6.91,7.06-5.77,4.85-2.73-3-6.35-6.14-1.54-4.86.24-7.83,3.85-3.2,3.19-.67,6.2-6.3,4.11-4.85,2.73-4.36,1.62-7.18-2.9-5.89-3.07-2.44-3.34-3.85-9.79-4.59-5.2-3.47,4.2,1.74,4.56,3.33,5.91,3,3.86,3.8,6.75-1.33,6,4,8,6,.25,6.79-.77,3.37-1.9,6.18.13,6.38,2-2,3.89-3.23,2.65-3.9,4.42,2,6.94,2.07,4.66,5.6,1.57,5.61-.39,2.62,4.64-2.73,4-1.32,4.07,4.25,7.05,3.5.8,2.48,1.93,2.25,6-1.37,3-.48,3.6,1.78,3.16,3.33,1.46,3.45-.27,3.36,8.93,5.08,8.52,6.06-.08,6,1.87,2.2,2.92L1467,437l-3.45,4.72,5.06,10.47,4.05,14.1,10.41,11.08,5.34,9.49s4.57-1.75,4.09-2.59,1.72-4.85,1.72-4.85l4.17-1,3.56,6.32,7.1,7.67,3.79-6.58-3.38-7-4.09-8.25-2.07-4.66-.87-8.95,3.58-2-5.1-9.06-3.21-5.69.2-7.05,4.82,1.17,3.92,6.95,2.62,2.69,4.63-.66-3.17-7.1.29-7.38,1.09-6.45-.62-6,2.63-8.15,4.59.75,5,8.86-1.75,6.26V430l2.73,4.85-1.94,5.53,3.1,8,5.7,10.11-.48,8-1.51,6.68,4.12,8.79,6.78-.77s-1.41-4.48-1.88-5.32-2.48-6.38-2.48-6.38l.34-6.29,1.9-4.13-4.88-14.47-2.29-7-1-11.11,1.38-4.94-10.66-18.44,2.45-4.3-1.43-6,2.17-10,2.51-6.78-1.16-15.91,5-7.66,6.92,2.44,6.28-.62,5.37-6.92,4.9-.81,6.78,2.52,3.46-6.82-6.71-12.79-.51-10.43,7.47-6.64,4.41-6.87-1.16-8.12,1.62-5.78-5.67-3.15L1551.41,285l-10.92-5.55-9.61-13.59-9.12-15.33L1515.18,238l-3.33-5.91.43-4.91,6.85.81,5,.74,5.55-3.12-2.73-4.85-4.61-3.31-9.21-5.82-4-9.6.69-7.69-4.68-6.92-4.1-.85-3.66,1.9-.89,3.19-2.23,3.3-2,3.67-.66,1.63-1.58,5.31,1.46,7.07L1491,217l.48,4.78-.44,4.82-.13,4.8.3,3.62-2.15,1.21-2.38-.73-.23-8.91-.64-8.69-1.39-7.19,1.36-14.6,3.5-8.88,4.47-6.24-1.72-9.67-1.67-8.64,6.53-14.84,6.51-2.61,4.47,2.27,6.47-3.64-3.52-8.12,1.36-6.09-1.92-13.81-.33-11,2.29-8.21-1.54-10.3.34-9.77.53-10.4-2.83-15.43-.39-12L1510.18,26,1508,15.51l2.61-6.7Z"/><polygon class="cls-3" points="718.55 253.82 717.72 258.44 722.02 258.44 722.68 256.13 722.68 252.66 718.55 253.82"/><polygon class="cls-3" points="695.92 264.88 692.29 264.88 690.47 267.86 688.98 267.86 688.98 271 687.99 277.6 690.14 280.25 692.62 282.72 694.6 284.87 696.91 284.87 700.88 286.85 703.19 283.55 704.67 282.23 707.98 281.57 707.98 278.92 711.78 278.43 712.93 275.87 712.93 271.99 712.11 268.35 709.47 266.54 705.83 267.53 704.84 270.67 702.36 271.49 699.06 272.98 697.74 271 699.22 270.17 698.07 268.68 695.92 264.88"/><polygon class="cls-3" points="725.16 249.52 723.34 247.05 722.68 242.42 725.16 241.43 728.63 242.59 730.61 244.24 730.61 248.2 729.45 252.66 727.8 252.66 725.16 249.52"/><polygon class="cls-3" points="743.82 241.43 746.63 243.74 747.62 247.05 749.77 250.68 752.24 248.37 754.89 245.23 754.89 240.77 754.89 238.62 752.08 238.62 750.26 236.47 749.35 233.5 750.59 230.36 752.24 226.9 751.09 223.26 747.78 223.26 745.31 220.12 741.84 216.82 742.5 212.19 741.84 205.59 739.86 203.94 738.21 199.97 734.57 199.97 734.57 203.28 731.93 205.09 730.61 209.06 728.46 208.56 726.64 206.08 724.83 203.94 724.83 201.62 721.85 200.96 718.88 201.29 716.24 201.13 716.24 198.32 712.44 198.32 712.44 202.62 710.62 202.62 710.62 204.76 708.8 206.74 709.96 209.39 712.93 209.72 716.9 209.22 719.04 209.39 720.2 211.37 720.2 215 722.68 217.65 725.16 220.62 728.96 220.29 730.61 219.13 732.92 219.13 733.09 221.44 731.85 224.5 731.85 230.53 734.08 230.53 734.08 234.16 735.23 235.81 735.23 238.29 736.72 238.79 738.21 239.61 739.03 241.43 742 241.43 743.82 241.43"/><polygon class="cls-3" points="696.09 209.39 696.09 213.35 692.62 215.99 692.62 222.44 696.09 226.07 699.72 226.07 701.87 222.27 701.87 217.73 701.87 211.53 702.86 209.39 702.86 204.93 698.89 198.32 697.74 196.17 695.42 192.71 692.62 189.57 690.8 188.57 687.99 185.44 683.7 187.42 683.7 189.9 684.85 192.37 687.99 194.69 688.98 198.32 691.13 198.32 692.12 202.78 694.1 204.1 695.42 207.07 696.09 209.39"/><polygon class="cls-3" points="712.98 141.88 712.98 145.77 715.93 148.02 718.89 150.26 721.72 152.39 724.32 155.93 726.09 159.36 728.1 164.79 726.68 170.22 727.16 176.25 729.75 179.79 734.24 179.79 735.9 176.72 736.61 171.05 734.48 165.03 734.48 160.3 731.85 155.58 729.64 154.04 726.68 152.03 725.74 148.84 722.08 144 718.89 142.58 714.63 139.28 712.98 141.88"/><path class="cls-3" d="M683.7,124.51l2.35,2.24h3.19s1.89.6,2.24,1.19,3.78,2.12,3.78,2.12L698.1,129l2.12-2.48v-3l-.59-2-2.83-.83-3.52-3-5.22.71H683.7L682,116l-2-4.26-4-2.48-5.67,1-1.77,2.36v5.67s.7,2.24,1.06,2.36,3.07,2.48,3.07,2.48h7.56Z"/><path class="cls-3" d="M701.05,160.54l-3.54-1-5.32,1s-2.13,2.13-2.13,3.31.12,4,0,5.19.36,2.25,1.66,2.37,4.72,0,4.72,0l4.61-4,1.3-3.9Z"/><polygon class="cls-3" points="698.57 153.92 700.81 153.22 703.53 153.57 703.53 155.58 700.22 155.58 698.57 153.92"/><path class="cls-3" d="M685.81,164.08,682,162l-.82-3.9-1.78-2.48h-5.78l-3.43,3.19v2.12l3.9,1.66,2.12,1.53,1.3,2.25,1,4.6a15.64,15.64,0,0,1,3.31,0c.59.24,2,.59,2.59,0s1.42-3.66,1.42-3.66Z"/><path class="cls-3" d="M417.83,217.46v3.09h2.83l3.85,5.14,2.06,3.6,1.29,5.15-3.09,4.37h-5.92l-3.6-1.28s.52-2.06,0-2.83a22.52,22.52,0,0,1-1.28-3.86l-3.86-2.7V215.92l-1.8-2.32-3.61-3.86-4.88-3.34-3.09-3.09s-3.6-2.83-4.12-4.37a45.4,45.4,0,0,0-3.09-5.66l-1.8-5.41V184l4.63-4.11.26-4.12,3.09-2.57h5.14l2.06,5.4-2.06,2.83-2.57,4.89-3.34,3.34,2.06,4.38h5.4l5.4,1.8,3.86,6.94,1.8,3.22,4.38,2.19a40.48,40.48,0,0,1,5.4-1c1.28,0,4.63,1.8,4.63,1.8l3.86.26,1.54,4.63-4.63,3.6-5.4-.26Z"/><polygon class="cls-3" points="316.46 166 319.8 173.21 321.6 178.61 324.95 178.61 325.98 173.21 323.92 166 321.22 161.37 316.46 155.71 313.11 155.71 310.54 158.54 312.6 164.2 316.46 166"/><polygon class="cls-3" points="375.63 206.01 372.55 203.57 367.91 203.57 367.91 209.48 367.91 215.66 367.91 220.29 372.8 220.29 375.63 214.63 375.63 208.2 375.63 206.01"/><polygon class="cls-3" points="382.84 226.72 379.49 226.72 381.16 233.41 386.18 235.98 390.3 235.98 390.3 231.35 384.89 229.55 382.84 226.72"/><polygon class="cls-3" points="398.01 240.1 398.01 244.47 398.01 247.05 401.1 247.05 401.1 243.57 401.1 240.87 398.01 240.1"/><polygon class="cls-3" points="520.06 548.69 519.39 540.21 510.58 533.39 505.76 531.4 506.92 538.71 514.9 541.71 517.57 545.53 520.06 548.69"/><path class="cls-3" d="M501.86,549.42V545l-1.36-2.89-2.89-4.23L495,531.4s-4.47-3.63-5.19-3.63-1,3.63-1,3.63l2,3.88a3.19,3.19,0,0,1,2.31.43,18,18,0,0,1,2.59,2.89l1.16,3.32.72,2.74,3.18,2.46-1.3,2.3Z"/><path class="cls-3" d="M703.18,574.68c2.28,1.71,14.83,12,14.83,12l3.42,11.41,6.28,8.56,6.85,12.55-.24,22.68L724.21,663.4l9.85,3.29,11.47,15.83,12.75,2,6.66,8.27-9.05,15v24.48l-14.26-13.36-15.83-3.13-8.36-27.52-4-10.84-6.28-5.14-4-4.62V649.85l4.12-8.17,2.25-9.3L712.09,620l-.28-11-1.7-9.3-2.53-7s-.28-5.35-.28-6.48S703.18,574.68,703.18,574.68Z"/><path class="cls-3" d="M677.48,468.75c.57,1.14,4.27,3.7,4.27,3.7l4-3.7,1.42-4,5.69-1.43,3.7,3.13-2.28,6-7.25,7.4-1.57,8.54-.57,8.82,4.84-2.28,6.83-6,2.56,4.84-2.27,6.83-3.7,4-3.7,7.11.85,10.82,2.28,5.12-5.69,4-3.42,1.7.57,9.11-5.12,4.84-2.85,6,1.42,4.26,3.42,4.27h5.41l3.7,3.7-.57,9.17,2.27,4.78h4.84l.86,4.84,1.7,5.69,1.14,8.82,2.93,1.71,5.32,5.41V613l-2.27,6.26-3.05,8.26-4.35,3.13-2.1-1.83-1.67-2.51-3.71,3-2.87,2.27-4.31-1-2.27-3.83-.12-6.58,2.63-4.9,1.2-1,1.91-3.35v-3.35c0-.36-1.32-3.59-1.32-3.59L681.06,601l-2.51-3.35-4.91-1.91-4.43-4.19v-4.19l-1.42-9L669,568.6v-6.17l.23-5.7-1.42-4-3.56-.24-2.37,2.37-1.9,5.7v8.07l-2.14,6.08-1,3.64-2.37,7.6,1,5.22-1,6.41-3.56.23-2.13-6.64v-5.93l1.18-5.94.48-6.64,3.08-5V562.9l2.37-2.85v-6.17l-3.56-2.37-.94-5.69,1.66-4.28-1.43-6.64-1.9-5.93-3.32-4.27v-8.07l4.27-2.85,4,5.22,5,.24,5-2.38,2.38-.47L672,520l5.52-2.37,3.37-5.46-2.14-6.65-4.27-5.22,3-5.93v-7.83l2.9-3.32,1.18-4.75-4.08-5Z"/><path class="cls-3" d="M676.28,578.88l-6.77-6.7-7.18-15.77-8-7.19-4.32-6-7.77-2.55L638.72,533l-6.18-7.76-5-11-4,.51-3.33-3.26-1.85-5.22L617.25,501l-5.9-12.94-3.25,1-5.05-.61-5.23-4.51-6-5-3.3-7.23-4.27-1.23-5.42.89-5.34,2.17-4.75,5.87-3.42,2.34-2.43-1.28-2.1-4.6,1.59-5.21-1.44-4.9L547.81,434.5l-6.1-10.45-2.49.34-1.56-1.67L536.5,419l.65-3.2-3.57-5-3.19-1.19-2.49.34-1.81-6.85-1.56-4.58-3.91-2.2s-5-1.68-5.87-1.28-5.16-.29-5.16-.29l-3-6.59-2.27-5.57-2,4.35,1.92,9.44,2.13,7,2.41,7.63,2.69,5.91-2,3.81-2,6,.92,10.16,4.61,9.54,6.4,16.93,3.14,5.18,3.28-3.88L522.53,454,520.58,445l2.5-3.25,3.82,7.79,3.87,14.91,2.94,11.08,2.51,10.77,1.84,8.68,5.39,11.83c.49,1.09.81,10.48.81,10.48l1.23,7.37,1.69,3.72,2.46,1.29,3.05-1.4,4.74.49,2.09,4.6,4.56,4.79,7.63,6.31,5.39,3.1,2.13,3.54.34,5.4-2.83,1.29-1.88,4,1.1,2.4,3.57-.3,1.3,2.85,6.79-3.09,4,1.87,2.63-1.2,3,4.74,1.6,3.51,4,.57,3.29,4.33-5.91,2.69,1.1,2.41,3.58,2.06,5.52-.67,4.11,2.11,3.2,7,5.35,1.27,4.16,1,3.36,2.16,2,4.38,4.42.37,4.6-2.1-1.8-3.94-3.3-4.32-3-3.12-5.41-2.56-1.89-4.16-3.79-2.52L619,578l-1.61-5.87-.24-2.27-1.25-4.47-1-2.19-4.56,1-4.86.35-2.38-2.34-1.6-4-3.28-1.4-3.79-2.52L592.92,551l-3.79-2.52-3-2.06-3.44-6.37-4.56-4.79s-6.58-2.82-7.08-3.93a47.88,47.88,0,0,0-2.76-4.3l1.52-2.53,3.79-.93,6.42,1.3,6.34.55,5.31,1.81,4.34,2.53,5.15.57-4.6-10.09-4.48-1.4-5-1.68-4.59-4.27-3.76-3L575.2,508l-4.56,1-5.56,1.74L560.61,512l-5.41-2.56-2-4.38,0-4.63,2.06-2.41,4.06-1.58-.71-4.43-1.57-4-.3-3.58,3.32-2.58L562,486l3,4.75,4.42-.15,2-3.07,2.9-2.9,3.51,1.31,3.9,5.63,2.3,5,4.31-.38.84,3.59,6.65,3.58L601,514.75l3.76.69,6.86-2.35,4.44,5.64,2.62,4.63,4.06-1.58,5,4.08,2.54,4.4,3.57,5.5,5.38,3.65,2.19,4.82,2,3.3,3.43,6.37,7.23,3.07,5.15,3.74,3.53,6.06,2.54,4.4,3.44,6.37,3.8,5.42,3.67-.62ZM549.19,450.47l.25,4.45-1.39,1.92-3.24,1.48-3.07-2.5-3.84-2-2-4.31-1.1-4.21-.18-4.3,2.16-1,2.48.82,3.11,3.61.58,2.67,3.1,1.5Z"/><polygon class="cls-3" points="652.53 591.82 651.43 589.41 648.15 590.91 645.74 592.01 641.86 592.45 639.86 588.07 641.45 582.59 638.87 576.35 639.66 572.28 638.72 568.48 635.55 563.84 632.42 559.71 632.36 553.92 634.77 552.82 636.26 556.11 638.66 561.37 641.19 565.09 642.96 568.99 644.34 572.01 643.24 574.22 643.28 576.8 645.55 579.66 648.94 579.25 651.06 581.05 652.16 583.47 651.61 585.83 654.36 588.31 653.9 591.2 652.53 591.82"/><polygon class="cls-3" points="725.8 620.05 730.29 620.05 734.79 624.95 739.69 620.05 745 612.29 749.9 604.93 753.98 595.95 753.98 586.55 757.66 581.25 757.66 574.3 762.15 570.22 765.49 564.53 765.49 557.13 765.49 550.22 770.67 545.04 775.11 537.63 779.31 531.96 780.79 527.02 778.07 525.79 774.62 528.75 768.2 534.67 763.76 534.18 763.27 530.23 763.27 525.79 763.51 518.88 763.51 511.72 765.49 502.34 771.16 499.38 775.11 502.34 778.07 506.78 783.26 510.98 785.97 505.3 780.79 500.37 778.32 492.96 775.61 487.04 774.62 481.12 774.87 477.42 777.58 469.76 777.58 461.13 776.35 452 779.55 447.55 782.02 440.64 783.26 435.21 778.81 435.21 773.14 444.59 770.67 443.85 770.42 439.9 772.89 432 778.81 426.33 782.76 423.37 781.28 418.93 782.02 408.31 776.1 406.83 769.68 412.75 769.68 419.42 764.01 426.82 755.89 430.77 749.94 435.95 746.73 441.88 744.51 445.33 742.78 450.27 740.32 454.22 737.11 456.68 732.91 456.93 731.43 462.36 731.18 469.27 733.9 470.5 738.09 469.52 741.3 469.52 741.3 474.95 741.3 481.12 743.77 480.87 747.23 478.9 746.98 474.7 749.69 473.22 752.41 476.43 755.89 482.35 755.89 487.53 751.42 491.24 746.73 491.24 742.73 488.49 739.17 487.31 737.74 489.68 738.69 492.76 741.3 493.47 741.54 496.32 736.79 496.32 733.71 498.22 733.47 502.72 735.85 503.44 738.93 503.2 741.54 501.3 744.15 500.35 749.6 499.88 753.87 505.1 753.87 510.55 751.74 514.35 748.18 517.67 743.44 519.57 741.3 522.41 743.2 525.5 747.23 523.83 751.5 521.7 751.74 525.5 753.64 528.58 754.5 531.69 753.31 534.21 750.78 534.66 748.11 536.14 747.66 540.6 749.15 543.27 753.31 545.2 754.94 547.28 755.89 550.7 753.75 551.88 750.93 553.81 747.81 554.26 745.14 556.49 742.47 558.27 737.72 557.53 731.33 557.38 730.44 560.94 731.03 563.76 735.93 564.51 740.39 566.59 742.76 569.7 744.55 571.78 743.95 573.27 739.94 576.68 737.42 578.61 736.53 581.14 739.05 583.07 744.4 583.22 747.52 584.26 747.07 586.48 744.25 587.37 742.02 589.16 739.35 590.2 736.23 593.46 737.57 596.73 740.69 597.47 741.73 599.4 741.43 601.78 740.24 604.45 739.5 606.68 738.46 609.2 735.64 611.58 734.15 614.7 732.52 614.7 730.59 617.22 726.88 616.92 725.8 620.05"/><path class="cls-3" d="M451.47,429.9l4.47-.12,3.5,2.78,4.47.48,2.3,4.59-.12,3.38-4.83,2.42-2.42,4.23,3.14,6.27,7,1.63,5.32,3.68,2.17-1.08,1.21-5.44-.37-4.35,4.11-3.86,2.41,4.83,3.63,7.24-2.17,4.11-2.54,5.8-1.44,8.57-2.66,3.75-.6,4.23,2.66,5.31.36,3.75-3.62,4.83,2.3,4.59.36,3.74-1.81,2.42,1.45,2.9h4.83l2.54,5.68-.6,4.83-5.07-.48-2.66-5.31-8.46-3.62-3.5-4-2.66-5.31-5.08-1.09-3.38-6.76-3.87,1.94,2.3,4.58.12,4.47-.72,4.59v6.65l-3.74,3.38-.61-8.45.6-7.25L447,498.87l-1.81-3.62-1.81-3,6.16-4-1.82-3.62-3.26-4.11-4.23-1.81-1.57,4.11L437,487.89l-.24,3.74,1.82,6,4,8-4.11,2.05-4.23-3.62a47,47,0,0,1-2.78-5.55c-.24-1.09-.12-7.49-.12-7.49l.84-7.37-.37-3.58,2.28-5.19-1.79-4-3.58.16-.32,4.22-3.08,6.42.52,5.83.94,4.81L426,497l-2.44-.42-1.55-5.11-1.14-5.12-2-4.46,1.46-6,2.52-4.31,3.49-4.79,2.11-4.31-4-6.74-9.31-7.65L410,440.92l-4.94.48-9.24-11.3-9.34-7.68-5.8-4.27-4.79-4-4.14,2.07-7.17-.79-3-6.05-7.33-6.69-3.51-7-1.59-8-6.38-8-6.69-4.62-4.63-9.24-.48-6.53,5.42,2.87,4.62,2.07,4.78-1.6-.44-3.49-2.82-5.63,3.74-2.66,7.77,6,2.38,3.59,5.22.87,2.43,4.87-2.14,4.4,2.55,3.94,4.12-1.33,6.66.87,4.58.46,4.64,6.95a47.33,47.33,0,0,1-5,2.78c-1.68.7-8.81-.22-8.81-.22s.06,5,.87,6.66,3.6,7.77,3.6,7.77l3.94,4.69,3.53-.18,4.93-1.74,5,.81,4.12,1.28,2.61,4.34-.35,1.63-3.09,4.59,2.59,4.58,7.52,5,5.87,4.11,5.13-1.39,3.78,7.55.14,4.88,6.93,1.53s5.17.35,5.76.93,7.05,5.29,7.05,5.29l6.23,7.75,1.06,3.87L442,456.32l-3.87-4.81-4.12-1.76-4.11-4.7-5.87-1.76-1.65,2.59,2,4,5.52,5.75,6.58,2,4,5.05,4.82,2,5.4.24,4.35,4.58-.94,6.34-2.82,1.41.47,5.64,1.88,2.58,5.06,6.58,6.7,6.34,4,1.52,1.05-8.45-.94-2.47.35-6.93,1.76-5.88-1.52-2.46,1.17-2.94,1.05-3.17-.35-4.23-3.41-2.7-6-2-5.76-2.7-2.35-3.53-5.17-3.87-.47-4.47,4.11-2.93-3.64-3.76,2.23-3.76Z"/><polygon class="cls-3" points="811.58 463.67 814.26 459.95 818.8 457.57 825.51 455.54 828.39 451.56 830.89 445.29 830.54 437.36 833.99 432.58 835.55 424.82 840.13 421.26 846.83 414.78 852.36 412.71 853.67 416.48 850.4 423.82 847.8 435.27 846.51 443.22 843.51 450.75 837.74 454.26 835.63 457.19 839.63 467.33 834.66 471.42 828.03 471.09 826.1 462.02 819.47 461.68 816.18 464.56 811.58 463.67"/><path class="cls-3" d="M855.32,489.21l5-4.95,3-5.62,4-3.3-1.38-8.56v-5.65l5.46-3.77,7.82-4.16,2.64-5.62,8.59-5.62,4-5.95v-6.94l5.28-2v-7.6l3-3.63h4.29l5.62-3.64v-6.94l4.3-1.32,5,1.65,2.65-4.29,2.31-3.64,2.64-8.59,8.92-2h7.6l3.64-5.95,5.29-7.27,7.93-5.95L969,359l5.61-7.93,5.62-4.29,3,1.65v4.62l-7.93,5.62-4.62,5.95-3,6.94-4.29,1.65-3.31,3v6.28l-5.61,6.28-8.27,5.29-5.28,4.29-3,6-6.27,4.3-8.27,6.28-7.6,6.93-7.27,9.92-5.61,5.62-2.32,8.26L895,448.24l-6.61,5-2.65,8.59L878,463.44s-4.84,4.12-5.17,5.77.68,7.45.68,7.45l-4,10.57-6.28,8.26-6.27,4-3.31-7.27Z"/><path class="cls-3" d="M294.71,335.94l2.35,2.24h3.19s1.89.59,2.24,1.18,3.78,2.13,3.78,2.13l2.83-1.07,2.13-2.48V335l-.59-2-2.83-.82-3.52-3-5.23.71h-4.35L293,327.43l-2-4.25-4-2.48-5.68.94L279.57,324v5.67s.71,2.24,1.07,2.36,3.07,2.48,3.07,2.48h7.56Z"/><path class="cls-3" d="M312.06,372l-3.55-1-5.31,1s-2.13,2.13-2.13,3.31.12,4,0,5.2.36,2.24,1.66,2.36,4.72,0,4.72,0l4.61-4,1.3-3.9Z"/><path class="cls-3" d="M296.82,375.51,293,373.38l-.83-3.9L290.44,367h-5.79l-3.42,3.19v2.13l3.9,1.65,2.12,1.54,1.3,2.24.95,4.61a14.9,14.9,0,0,1,3.3,0c.59.24,2,.59,2.6,0s1.42-3.66,1.42-3.66Z"/><polygon class="cls-3" points="337.95 367.87 340.76 370.19 341.75 373.49 343.9 377.12 346.38 374.81 349.02 371.67 349.02 367.21 349.02 365.06 346.21 365.06 344.39 362.92 343.49 359.94 344.73 356.81 346.38 353.34 345.22 349.7 341.92 349.7 339.44 346.57 335.97 343.26 336.63 338.64 335.97 332.03 333.99 330.38 332.34 326.42 328.7 326.42 328.7 329.72 326.06 331.54 324.74 335.5 322.59 335 320.77 332.53 318.96 330.38 318.96 328.07 315.99 327.41 313.01 327.74 310.37 327.57 310.37 324.76 306.57 324.76 306.57 329.06 304.75 329.06 304.75 331.2 302.94 333.19 304.09 335.83 307.06 336.16 311.03 335.66 313.18 335.83 314.33 337.81 314.33 341.44 316.81 344.09 319.29 347.06 323.09 346.73 324.74 345.57 327.05 345.57 327.22 347.89 325.98 350.94 325.98 356.97 328.21 356.97 328.21 360.61 329.36 362.26 329.36 364.73 330.85 365.23 332.34 366.06 333.16 367.87 336.14 367.87 337.95 367.87"/><path class="cls-3" d="M1069.65,229.2l-3.67-.63-3.81,5.43-3.43,6.37-2.54,4.4-3.54,6.06-5.15,3.74-7.22,3.07-3.43,6.37-2,3.3-2.2,4.82-5.37,3.65-3.57,5.5-2.54,4.4-5,4.08-4.06-1.59-2.62,4.63-4.44,5.65-6.86-2.35-3.76.69-5.19,11.39-6.65,3.57-.84,3.6-4.31-.39-2.3,5.05-3.9,5.62L967.71,327l-2.9-2.9-2-3.07-4.42-.15-3,4.74-1.89,4.16-3.32-2.57.3-3.58,1.57-4,.71-4.43-4.06-1.59-2.06-2.4,0-4.63,2-4.38,5.41-2.56,4.46,1.23,5.57,1.73,4.55,1,3.49-1.85,3.77-3,4.59-4.27,5-1.68,4.48-1.4,4.59-10.09-5.14.57L985,284.31l-5.31,1.81-6.34.55L967,288l-3.8-.93-1.51-2.53s2.26-3.22,2.76-4.3,7.08-3.93,7.08-3.93l4.56-4.79,3.44-6.37,3-2.06,3.8-2.52,1.49-3.27,3.79-2.52,3.28-1.4,1.6-4,2.38-2.34,4.86.35,4.56,1,1-2.19,1.26-4.47.24-2.27,1.6-5.87,3.39-1.63,3.8-2.52,1.89-4.16,5.41-2.56,3-3.12,3.3-4.32,1.8-3.94-4.6-2.1-4.42.37-2,4.38-3.36,2.16-4.16,1-5.36,1.27-3.19,7-4.11,2.11-5.52-.67-3.59,2-1.09,2.42,5.9,2.69-3.28,4.33-4,.56-1.6,3.52-3,4.74L985,246l-4,1.87-6.79-3.1-1.3,2.86-3.58-.3-1.09,2.39,1.88,4L973,255l-.35,5.4-2.12,3.54-5.39,3.1-7.63,6.3-4.56,4.79-2.1,4.61-4.73.48L943,281.83l-2.45,1.29-1.69,3.71-1.23,7.38s-.32,9.39-.81,10.47l-5.39,11.84-1.84,8.67L927.11,336l-2.94,11.08L920.29,362l-3.81,7.79L914,366.5l1.95-8.91,3.28-10.67-3.29-3.87-3.13,5.17-6.4,16.94-4.62,9.54-.91,10.16,2,6,2,3.81-2.7,5.91-2.41,7.63-2.13,7-1.92,9.44,2,4.35,2.27-5.57,3-6.59s4.27-.7,5.16-.29S914,415.2,914,415.2l3.91-2.2,1.56-4.58,1.8-6.85,2.5.34,3.18-1.19,3.58-5-.65-3.2,1.16-3.72,1.56-1.67,2.49.34L941.2,377l13.19-31.29,1.43-4.9-1.58-5.21,2.1-4.61,2.42-1.27,3.43,2.34,4.75,5.87,5.34,2.17,5.42.89L982,339.8l3.3-7.23,6-5,5.23-4.51,5-.61,3.25,1,5.9-12.94,1.11-5.32,1.84-5.22,3.33-3.26,4,.51,5-11,6.18-7.76,3.5-7.68,7.77-2.55,4.31-6,8-7.19,7.19-15.77,6.76-6.7ZM939.49,362.9l-3.11,1.5-.57,2.67-3.11,3.6-2.48.83-2.16-1,.18-4.3,1.1-4.21,2-4.31,3.84-2,3.07-2.5,3.24,1.48,1.39,1.92-.25,4.45Z"/><path class="cls-3" d="M1339.77,289.13,1332.5,281l-8.09-2.4.37,11.24,9.41,11.7-2.78,1.86-5.49.6-2.25,5.94L1341,322l11.93,7.74,3.78,8.53-6.61,2-11.4-9.16-9.91-.2-13.08-3.21-7.35-9.56-.38-11.24-27-21.72-11.59-7.95-8.55,1.82-6,7.48-9.43,1.57,7.73,9.11-5.38,2.83-7.25-5.83-5.67,3.2.93,8.94,4.35,9.44-1.83,5.38,9.79,4.21,9-4.18,3.12-3.89,5,4-2.66,3.31.52,6.37,3.49,7.36,5.77,9.22,7.69,5.23,3-3-3.12-3.89L1277.1,336l4-5,4.63-2.68,7.33,1,5.34,4.29,13,12.58-1.27,6.28,4.41,8.58,7.91,5,5.94,6.62,5.1,7.74,9,6.76-4.35,3.81-6.93-3.27-.43,7-1.8,5.4-4.29.65-6.63-5.77L1312,387.7l-6.15-4-9.74-7.37-1.86-4.69-16.37-13.14-5.12-4.56-7.81-3.53-5-4,.75-4.86-3.32-6.8-7.55-1.48-8.38-1.27L1231,323.13l-10.17-4.52-4.3,6.14-3.41,5,5.57,10.5,5.19,4.16,3.8,5.88,8,3.6,5.52-6.88,7.81,2.88,3.06,5.85,1.14,6.29,15.61,12.54-4.27,5.33,9.45,7.59,7.11,1.76,7.49,7.14-5.25,6.54,7.41,8.21,8-3.18,7.26,1.58,9.45,7.59s3.81,3,4.16,2.54,8.64,4.8,8.64,4.8l-1.92,4.52,2.1,3.83,7.27,4.07,2.8-.08,5.91,2.41,1.72,3.33-1.15,2.66,6,5,7.11,5.37,10.92,9.44,5.24-.68,7.22,5.8,4.66,6.56,11.59,7.95,16.67,9.93,2.63-9.77-11.2-20.21-5.53-12-5.12-7.19-4.33-11.08-9.94-15.93.7-7.37-5.48-12.67,1-10.59,1.59-4.94,4.27,3.44,7-.88,2.74,7.13,1.58,4.27,1.71,9.58,7,6.08-1.2,7.73,5,4,2.53,9.33.14,6.06,8.35,9.87,9.18,4.21,14.79,1.84,3-6.77-1.94-11.61-5.57-9.47-5.16-8.44-5.17-9.9-.22-10.67-4.16-8.84-16.4-13.16-1.87-10.16-2-10.75,1.33-7.13-1.68-7.3-4.76-12-8.16-2-17.54-8.14-13.66,4.53-7.6-6.1-4.28-8,3.34-4.17L1342,297.3ZM1364.7,430.5l6.36-.83,3,4.75,3.26,10.36,9.73,7.82.91,9-20.19-16.21-2.16-5.87Zm-14.59-34.84,5,6.14.36,3.6-4.22,3.2-3.55-1.57-.66,5.52-3.82.06-2.16-.2-5.72-4.59-1-4.94.29-5.63,1.91-2.38h5.11Zm-28.39-58.06,5.8,7.83,3.89,5.26,6.3,3.48,2.6,6.79,6.25,4.64,4.46,5.13,6.6,7.86.48,4.1,3.87,6.24,2.13,4,.59,4.61-3.61.83-3.25-5.36-4.46-6.14-4.43-3.56-2.56-4.8-3.89-6.85-9.33-7.49-.49-3.06-7.35-5.91-4.56-7.05-.72-6.44-4-4.15,1.43-1.79Zm85.59,61.14-1.61-4,1.72-2.15,5.2,2.21,3.13,4.47.19,3.5.82,3.6,3.79,5,3.22,5.71.52,3.72,2.19,3.64,3.08,2.48-1.26,2.6,4.22,6.13-1.53,2.87,1.1,2.36,2.26,3.88-1.53,1.89-5.24-2.85-2.81-5.19-1.35-4.7-2-4.22-2.79-2.25-1.9-3.29-.37-2.25-1-6.45-4.31-6-1.72-7.25Zm-40.11-45.15,3.93,6.5.51,6.06,4.08,3.27,1.48,5.89-4-.05-10.22-7-1.6-6.37-5.42-4.95-2.75-5.33,4.43-1.15Zm8.24-15.28,8.13.25,5,1.47,2.74,4-1.52,3.9,2.69,5.65-4.06,1.07-6.63-.43,2.09,4.42-5.07-1.74-1.41-2.3-1.83-4-1.15-6.61Z"/><polygon class="cls-3" points="1144.22 124.12 1148.38 122.41 1150.67 116.17 1157.07 118.84 1164.93 124 1172.26 128.94 1179.45 135.7 1183.02 144.39 1188.44 147.9 1191.08 154.32 1196.79 156.39 1202.03 160.38 1204.85 167.23 1207.47 173.62 1214.24 176.44 1221.16 181.6 1227.2 185.26 1230.45 189.26 1228.4 191.44 1224.08 190.01 1215.9 186.97 1211.97 189.12 1213.02 192.96 1214.71 197.06 1217.56 203.36 1220.28 209.98 1225.67 217.91 1232.05 218.49 1234.58 214.25 1235.63 209.01 1238.83 203.16 1243.49 207.38 1240.58 213.91 1241.11 221.7 1240.85 228.21 1242.19 234.06 1243.82 237.4 1249.24 243.44 1252.53 251.43 1254.86 260.34 1259.51 263.23 1264.42 268.69 1267.63 273.24 1263.52 274.93 1254.7 268.41 1252.7 270.04 1253.97 273.78 1259.26 280.15 1266.9 283.15 1271.67 284.38 1271.99 289.06 1276.71 298.59 1271.8 302.21 1263.61 299.17 1261.08 293.01 1253.01 288.32 1244 287.75 1236.53 285.22 1231.31 280.96 1227.94 278.61 1224.47 274.7 1220.68 271.99 1216.78 270.92 1212.81 272.29 1209.37 267.83 1206.52 261.53 1208.56 259.36 1212.81 258.68 1215.78 257.46 1213.72 252.44 1211.37 246.73 1213.75 246.02 1217.69 246.53 1219.06 250.51 1222.14 250.84 1223.43 246.85 1224.39 240.04 1222.42 235.25 1216.88 233.53 1212.55 235.31 1209.88 239.37 1207.05 241.82 1204.83 240.16 1204.53 236.95 1206.68 235.3 1205.81 232.58 1201.42 234.38 1197.85 233.8 1195.92 229.72 1197.84 228.16 1200.79 227.21 1203.92 227.97 1206.69 227.86 1211.92 226.22 1213.88 219.77 1211.81 214.73 1208.39 212.03 1203.84 210.31 1198.73 210.36 1195.67 208.54 1196.26 204.96 1200.62 204.97 1205.38 205.32 1204.16 201.72 1204.74 198.14 1204.35 194.94 1202.29 193.06 1199.79 193.6 1196.75 193.25 1194.65 189.3 1195.01 186.26 1198.12 182.89 1198.84 180.35 1198.41 176.83 1195.99 176.54 1192.64 175.83 1189.59 176.6 1186.27 175.56 1183.12 174.93 1179.01 177.42 1173.16 179.99 1170.98 177.03 1170.46 174.19 1174.71 171.64 1178.04 168.03 1179.05 164.24 1179.91 161.64 1178.8 160.49 1173.79 158.85 1170.72 158.03 1168.94 156.03 1170.54 153.29 1175.42 151.12 1177.91 148.97 1176.65 147.08 1173.71 147.33 1170.97 146.53 1168.1 146.58 1163.98 144.75 1163.97 141.22 1166.57 139.34 1166.8 137.16 1165.62 135.08 1163.51 133.06 1161.97 131.28 1160.05 129.34 1156.54 128.22 1153.98 125.89 1152.47 126.52 1149.72 124.92 1146.4 126.6 1144.22 124.12"/><path class="cls-4" d="M683.24,60.93l2.35-2.25h3.19s1.89-.59,2.25-1.18,3.78-2.13,3.78-2.13l2.83,1.07,2.13,2.48v2.95l-.59,2-2.84.83-3.52,3L687.6,67h-4.36l-1.66,2.48-2,4.25-4,2.48-5.67-.94-1.77-2.36V67.19s.71-2.25,1.06-2.37a37.07,37.07,0,0,0,3.08-2.48h7.56Z"/><polygon class="cls-4" points="698.12 31.51 700.36 32.22 703.08 31.87 703.08 29.86 699.77 29.86 698.12 31.51"/><path class="cls-5" d="M.92,116.17S44.14,179,64.55,193.45c28.33,20.11,95.78,50.78,130.4,48,32.36-2.62,107.83-60.87,118.43-53.24s80.36,35.63,105.47,50.62C436,249.06,463.64,273,489.27,276.67S586.44,215.49,623,217.34c37.27,1.88,88.82,68.4,120.66,87.85,37.6,23,152,46.64,155.84,48.89,12.3,7.25,141.8-56.34,152.59-55.11s21.63-34.45,25.9-51.92c3.17-13,13.87-26.77,26.87-29.71,25.6-5.8,37.7,24.1,62.26,33.34,36.76,13.83,117.83-1.35,157.05-3.36,47-2.4,144.85,4.27,187.72-15.19,18.22-8.27,40.65-44.81,57.37-55.81,11.73-7.72,38.25-18.25,51.92-21.51,27.32-6.51,28.86-3.95,28.86-3.95v-42L1486.85,93.24l-469.67,12.58-598.86-5.33Z"/></g></g></svg>