<svg xmlns="http://www.w3.org/2000/svg" viewBox="0 0 117.45 117.43"><defs><style>.cls-1{fill:#fff;}</style></defs><title>riding</title><g id="Layer_2" data-name="Layer 2"><g id="Layer_2-2" data-name="Layer 2"><path class="cls-1" d="M8.05,82.82h7.32v17.37H1.7a1.47,1.47,0,0,0,0,2.94H116a1.47,1.47,0,0,0,0-2.94H102V82.82h7.32a8.06,8.06,0,0,0,8-8V8.05a8.06,8.06,0,0,0-8-8H8.05A8.06,8.06,0,0,0,0,8.05V74.77A8.06,8.06,0,0,0,8.05,82.82Zm10.26,0h8.32v17.37H18.31Zm69.54,0v17.37H29.56V82.82ZM99.1,100.19H90.78V82.82H99.1ZM2.94,8.05A5.11,5.11,0,0,1,8.05,2.94H109.36a5.11,5.11,0,0,1,5.11,5.11V74.77a5.11,5.11,0,0,1-5.11,5.11H8.05a5.11,5.11,0,0,1-5.11-5.11Z"/><path class="cls-1" d="M18.8,54.39a1.46,1.46,0,0,0,2-.67c11-22.5,25.9-29.87,36.42-32.1C59.11,36.71,77.58,52.24,83,56.47l0,0c-2.45-.05-13.57-.89-17.61-11.23a1.47,1.47,0,0,0-2.74,1.07,19.35,19.35,0,0,0,1.77,3.46c-1.43,9.72,1.88,22.34,2,22.88a1.48,1.48,0,0,0,1.42,1.09,1.73,1.73,0,0,0,.38-.05,1.48,1.48,0,0,0,1-1.8c0-.11-2.67-10.18-2.24-18.84,5.39,5.33,12.78,6.2,15.51,6.34,2.12,5.08,5.35,6.17,7.74,6.17a8.5,8.5,0,0,0,1.4-.12,9.71,9.71,0,0,0,5.69-3.41c3.81-4.53,1.56-8.68-.83-13.08a31.38,31.38,0,0,1-3.84-9.67A24.57,24.57,0,0,0,82.37,23.17C83.87,17.41,81.16,10.31,81,10a1.53,1.53,0,0,0-.86-.85A1.5,1.5,0,0,0,79,9.23,24.43,24.43,0,0,0,69.58,18a42.69,42.69,0,0,0-17.86,2.12c-9.67,3.21-23.36,11.42-33.6,32.28A1.47,1.47,0,0,0,18.8,54.39Zm76.26,5.77a6.86,6.86,0,0,1-4,2.41c-2.53.43-4.51-1-5.88-4.2L94,50.53C96.4,55,97.44,57.33,95.06,60.16ZM78.85,12.71c.71,2.45,1.72,7.12.41,10.58a1.47,1.47,0,0,0,.67,1.81,21.61,21.61,0,0,1,9.81,14.7,28.24,28.24,0,0,0,2.83,8.05l-7.39,6.62c-3.83-3-18.35-14.94-23.45-27.3a74.58,74.58,0,0,1,7.51-1.12,1.46,1.46,0,0,0,1.33-1.5,16.77,16.77,0,0,1,1.17-4.34A20.16,20.16,0,0,1,78.85,12.71ZM68.4,20.85a18.35,18.35,0,0,0-.63,2.4,65.84,65.84,0,0,0-7,1.14,21.46,21.46,0,0,1-.67-3.28A37.46,37.46,0,0,1,68.4,20.85Z"/><path class="cls-1" d="M74,37.16a1.46,1.46,0,0,0,2-.53,2.35,2.35,0,0,1,3.2-.86A2.36,2.36,0,0,1,80.05,39a1.46,1.46,0,0,0,.53,2,1.41,1.41,0,0,0,.73.2,1.48,1.48,0,0,0,1.28-.73,5.31,5.31,0,0,0-1.92-7.22,5.29,5.29,0,0,0-7.22,1.92A1.48,1.48,0,0,0,74,37.16Z"/><path class="cls-1" d="M54.64,26c-.79.28-19.55,7.25-33.49,45.76A1.47,1.47,0,0,0,22,73.67a1.43,1.43,0,0,0,.5.09,1.48,1.48,0,0,0,1.38-1c13.4-37,31.52-43.93,31.7-44a1.47,1.47,0,0,0-1-2.77Z"/><path class="cls-1" d="M44.9,117.43a11.39,11.39,0,0,1-4.84-1l-6.53-2.84a9.85,9.85,0,0,0-7.54,0l-5.82,2.56a12.06,12.06,0,0,1-10.38-.29L1,111.6a1.12,1.12,0,0,1-.71-1.71,1.4,1.4,0,0,1,1.84-.71l8.82,4.27a9.18,9.18,0,0,0,8,.14L24.71,111a11.83,11.83,0,0,1,9.81,0l6.54,2.84a9.59,9.59,0,0,0,7.68-.14l5.4-2.42a12,12,0,0,1,10.37.15l4.69,2.27a9.36,9.36,0,0,0,7.82.14l6.4-2.84a12.94,12.94,0,0,1,9.52-.14l6.82,2.84a9,9,0,0,0,8.11-.43l7.39-4.12a1.46,1.46,0,1,1,1.42,2.56l-7.39,4.12a12.19,12.19,0,0,1-10.66.57l-6.83-2.84a9.48,9.48,0,0,0-7.39,0L78,116.43a12.84,12.84,0,0,1-10.24-.14L63.09,114a8.57,8.57,0,0,0-7.67-.15L50,116.29A13.31,13.31,0,0,1,44.9,117.43Z"/></g></g></svg>