<svg xmlns="http://www.w3.org/2000/svg" viewBox="0 0 117.44 109.34"><defs><style>.cls-1{fill:#163514;}</style></defs><title>ridingg</title><g id="Layer_2" data-name="Layer 2"><g id="Layer_2-2" data-name="Layer 2"><path class="cls-1" d="M0,72.89v36.45H20.22l3.69-33.2Z"/><path class="cls-1" d="M75.16,52.05,85.89,62.78a30.44,30.44,0,0,1,3.2-2L99,70.63l12.18-18.27-18-24h-4V24.3H85V20.25H81v8.1L62.57,36.24,79.14,48.08Zm18-7.5h4V48.6h-4Z"/><path class="cls-1" d="M69.87,57.35,46.21,48.48c-2.48,3-5.46,6.53-8.62,10.09L49.24,67.3l-12.61,42H64.8c0-24.24,10.72-37.69,17.92-44L72.3,54.92Z"/><polygon class="cls-1" points="113.73 55.79 101.89 73.54 105.29 76.94 117.44 72.89 117.44 60.74 113.73 55.79"/><path class="cls-1" d="M72.89,48.6,44.55,28.35l-16.2-8.1L8.1,36.45V68.84l20.25,4L24.3,109.34h8.1l12.15-40.5L28.35,56.7l11-15.1,29.45,11Z"/><circle class="cls-1" cx="46.57" cy="10.12" r="10.12"/></g></g></svg>