<svg xmlns="http://www.w3.org/2000/svg" viewBox="0 0 1669.71 1326.28"><defs><style>.cls-1{opacity:0.08;}.cls-2{fill:none;stroke:#fff;stroke-linecap:round;stroke-linejoin:round;stroke-width:2.88px;}</style></defs><title>ripples</title><g id="Layer_2" data-name="Layer 2"><g id="Layer_2-2" data-name="Layer 2"><g class="cls-1"><path class="cls-2" d="M50.49,53.92c0,132,1535.78-83.66,1535.78,0,0,181.49-1519.93-102.84-1519.93,5.47,0,182.21,1526.66-184.56,1526.66,0C1593,147.82,11.24-2.16,11.24,66.88c0,60.43,1548.8-173.78,1548.8,0,0,115-1493.59-74.69-1493.59,4.77,0,142.86,1601.42-161.31,1601.42,0,0,118.64-1640.56-64.24-1640.56,5.43,0,128.59,1602.24-81.88,1602.24,0C1629.55,215,7.6-85.37,7.6,86.84c0,99.39,1646.55-79.61,1646.55,0,0,106-1542.45-146.06-1542.45,9.13,0,77.24,1500.88-174.22,1500.88,0,0,181.12-1539-90.2-1539,8.38,0,66.62,1535.41-67.49,1535.41,0,0,85-1503-164.17-1503,7.18,0,132.08,1494.55-149.57,1494.55,0,0,77.09-1527.34-133-1527.34,7.74,0,171.33,1584.9-75.59,1584.9,0,0,191.36-1573-58.85-1573,6,0,64.14,1529.27-82.76,1529.27,0,0,84.35-1525.17-121.61-1525.17,8,0,92.48,1513.22-171.42,1513.22,0,0,149.34-1497.82-156.5-1497.82,6.46,0,72,1478.6-167.87,1478.6,0,0,150.15-1534-76.73-1534,9.74,0,114.71,1619.09-158.31,1619.09,0,0,123.71-1564.38-80.19-1564.38,6.68,0,125.34,1473.34-190,1473.34,0,0,143.06-1512.59-59.85-1512.59,8.18,0,93.74,1517.76-154.31,1517.76,0C1582.4,368.12,9.81,39.55,9.81,170.89c0,126.07,1640.71-189.87,1640.71,0,0,77.52-1569.6-191.64-1569.6,7.79,0,153.84,1582.91-64.05,1582.91,0,0,174.83-1649.47-163.11-1649.47,4.82,0,99.58,1584.45-135.47,1584.45,0C1598.81,321.77,75,11.56,75,189.44c0,119.3,1562-152.38,1562,0C1637,329.87,57.33,62.57,57.33,198c0,79.47,1512-157.79,1512,0,0,168.86-1560.18-80.4-1560.18,4.71,0,60.82,1580.76-189.81,1580.76,0,0,106.88-1573.49-75.8-1573.49,6.49,0,156.12,1607.52-152.66,1607.52,0C1624,385.77,54.57,56.73,54.57,216.74c0,99.8,1542.05-92.15,1542.05,0,0,71-1504.19-132.24-1504.19,7.45,0,114.12,1477.82-175.26,1477.82,0,0,79.85-1500.39-151.08-1500.39,9.47,0,123.17,1586.57-60.64,1586.57,0C1656.43,410.42,95.92,89.9,95.92,239c0,130.26,1457.13-72.15,1457.13,0,0,184.35-1506.7-81.17-1506.7,5.53,0,187.16,1532.34-168,1532.34,0,0,132.69-1570.41-116.5-1570.41,9.6,0,74.72,1616.76-83.64,1616.76,0C1625,448.86,108.33,192,108.33,263c0,113.27,1458.59-120.76,1458.59,0,0,82.44-1471.81-67.58-1471.81,4.59,0,162.14,1463.61-83.28,1463.61,0,0,134.41-1440.23-148.37-1440.23,5.36,0,146.45,1484.72-137.71,1484.72,0,0,99.08-1593-165.62-1593,8,0,139.51,1622.5-64,1622.5,0,0,103.81-1617.41-71.28-1617.41,9.28,0,61.42,1586.92-132.21,1586.92,0,0,122.6-1505.33-82.93-1505.33,6.54,0,116.46,1479.47-186.68,1479.47,0,0,184.62-1461.61-171.91-1461.61,9.49,0,116,1444.21-65.78,1444.21,0,0,104.19-1446.75-134.4-1446.75,7.45,0,75.65,1517.08-89,1517.08,0,0,141.5-1540.08-134.49-1540.08,9.61,0,95.88,1521.67-80,1521.67,0,0,195.4-1590.17-122.88-1590.17,10,0,82.44,1602.55-92.52,1602.55,0,0,135.44-1558-176.6-1558,8.32,0,98,1601.94-190.25,1601.94,0C1667.23,437.21,4.76,227,4.76,347c0,138.53,1549.3-78.68,1549.3,0,0,172.57-1466.21-73-1466.21,9.44,0,113.18,1579.5-170,1579.5,0,0,118.94-1650.1-138.63-1650.1,6.26,0,92.23,1535.61-63.91,1535.61,0,0,181.93-1442.7-157.79-1442.7,6.83,0,98.63,1505.34-164.8,1505.34,0C1615.5,559.79,15,214.29,15,373.92c0,134.72,1584.79-169.33,1584.79,0,0,162.83-1503.55-163-1503.55,6.46,0,108.82,1549.23-137.72,1549.23,0,0,95.71-1562.92-99.89-1562.92,7.2C82.5,556,1660,287.23,1660,387.58,1660,505.9,45.1,267.82,45.1,396.92c0,130,1570.52-107.91,1570.52,0C1615.62,527.13,115,283.71,115,406.4c0,104,1489.11-174.78,1489.11,0,0,160.55-1542.53-100.6-1542.53,7,0,82.47,1494.38-135.62,1494.38,0,0,142.53-1436.09-169.85-1436.09,5.08,0,159.62,1548.24-74.63,1548.24,0,0,89.08-1577.34-91.08-1577.34,8.7,0,143.49,1555.68-143.68,1555.68,0,0,84.36-1556.5-64.69-1556.5,7.83,0,65,1495.48-160.45,1495.48,0,0,187.69-1539-155.28-1539,8.14,0,83.25,1522.46-113.66,1522.46,0,0,150.69-1503.58-166.15-1503.58,6.71,0,78.29,1600.44-67.71,1600.44,0C1665.75,563,6.29,315.68,6.29,455.73c0,163.54,1650.52-73.64,1650.52,0C1656.81,602,92,274,92,463.75c0,166.28,1548.59-152.07,1548.59,0,0,115.44-1558.2-182.12-1558.2,5.39,0,102,1574.26-92.76,1574.26,0,0,196.4-1547-129.13-1547,6.3,0,136.25,1457-79.74,1457,0,0,167.26-1504.7-181.21-1504.7,8.62,0,162.3,1557.56-91.69,1557.56,0,0,201.89-1588.6-172.19-1588.6,9.72,0,140.42,1604.11-106.14,1604.11,0,0,88.55-1632.7-92.51-1632.7,6.56,0,112,1569.49-96.14,1569.49,0,0,134-1537-186-1537,6.21,0,134.49,1550-79.64,1550,0,0,128.74-1550.7-72.18-1550.7,5.88,0,77.19,1547-85.79,1547,0,0,107.5-1565.44-58-1565.44,7.1,0,63.42,1636.44-146.7,1636.44,0,0,205.8-1605.61-91-1605.61,8.14,0,97,1527.58-155.95,1527.58,0,0,82.34-1484.31-160.92-1484.31,6.76,0,177.18,1525.74-99.57,1525.74,0,0,67.14-1517.93-56.55-1517.93,5.37,0,172.62,1458.46-156.34,1458.46,0C1555.82,725.6,58,419,58,549c0,128.25,1541.42-81.23,1541.42,0,0,104-1489.9-84.59-1489.9,7.37,0,103.61,1521.85-85.2,1521.85,0,0,157.6-1600.54-144.21-1600.54,5.35,0,120.95,1621.77-147.66,1621.77,0C1652.64,754.56,16,478.4,16,571.61c0,165,1632.1-158.88,1632.1,0,0,171.06-1588.89-110.47-1588.89,5.95,0,113.72,1598.75-181.68,1598.75,0,0,108.34-1559.14-92.18-1559.14,5.7,0,157.38,1564.09-92.73,1564.09,0,0,89.92-1593.9-158.12-1593.9,7,0,125.18,1544.25-174.07,1544.25,0,0,198.77-1584.52-98.21-1584.52,7.89,0,87.87,1621.5-108.37,1621.5,0,0,149.06-1570.91-126.95-1570.91,8,0,88.36,1529.67-130.26,1529.67,0,0,99.83-1505-115.06-1505,8,0,79.63,1516.73-82,1516.73,0,0,73.8-1514-186.79-1514,5.48,0,111.24,1515.43-127.66,1515.43,0,0,152.85-1550.6-121-1550.6,10C71.6,755.73,1580,452,1580,629.63,1580,780,2.21,531,2.21,637.55c0,124.42,1563.56-97.16,1563.56,0,0,117.93-1462.67-67.88-1462.67,8,0,100.45,1488.13-164.25,1488.13,0,0,133-1538-173.37-1538,6.43,0,99.53,1553.64-74.3,1553.64,0,0,94-1591.94-103.78-1591.94,4.84,0,151.37,1552.65-145.19,1552.65,0,0,119.11-1537.78-181.8-1537.78,8.32,0,165.3,1636.57-189.5,1636.57,0,0,158.36-1610.15-106.27-1610.15,9.68,0,59.91,1493.64-95.37,1493.64,0,0,142.72-1438.18-129.22-1438.18,5.78,0,157.45,1503.67-149.78,1503.67,0,0,182.44-1547.86-85.22-1547.86,4.86,0,150.53,1529.71-64.43,1529.71,0,0,156.07-1557.85-113.35-1557.85,5,0,67.18,1538.46-124.86,1538.46,0,0,123.63-1468.9-134.14-1468.9,7,0,74.33,1554.88-166.06,1554.88,0,0,169.9-1545.37-141.37-1545.37,6.13,0,77.52,1466.37-186.41,1466.37,0,0,145.1-1503.54-93.6-1503.54,8.39,0,164.8,1586.27-158.64,1586.27,0,0,129-1589.86-136.72-1589.86,6.92,0,165.69,1477.37-124.64,1477.37,0,0,168.08-1468.68-123.49-1468.68,5.37,0,63,1498-66.27,1498,0,0,98.56-1526.55-100.89-1526.55,7.39,0,160.67,1559.13-107.07,1559.13,0,0,127.33-1600.37-160.78-1600.37,8.95,0,139.84,1543.26-129.14,1543.26,0,0,195.62-1535.87-162.83-1535.87,4.62,0,142.55,1575.8-124.76,1575.8,0,0,199.18-1569.48-138.65-1569.48,7.63,0,87.83,1623.49-103.43,1623.49,0,0,61.75-1539.89-190-1539.89,8.46,0,186,1493-133.36,1493,0,0,174.58-1544.38-177.47-1544.38,5.1,0,153.4,1552.5-109.09,1552.5,0,0,89.4-1516.5-132-1516.5,8.75,0,109.82,1560.45-148.26,1560.45,0,0,146.37-1654.36-137.43-1654.36,7.71,0,90.12,1596-105.34,1596,0,0,101.85-1487.33-81.28-1487.33,8.08,0,187.26,1527.28-184.33,1527.28,0,0,155.17-1597.78-55.7-1597.78,8.49,0,99.68,1514.58-146.45,1514.58,0,0,62-1547.63-90.8-1547.63,7.09,0,101.43,1549.59-126.51,1549.59,0,0,114.82-1474.57-182.51-1474.57,6.4,0,184.27,1475.44-123.93,1475.44,0C1560.1,991,65.41,708.59,65.41,819.8c0,117.75,1582.77-154.2,1582.77,0,0,107-1580.31-170.94-1580.31,9.77,0,89.89,1566.44-185,1566.44,0,0,75.32-1544.49-85.48-1544.49,8.19,0,172.33,1495.42-164,1495.42,0,0,143-1514-185.77-1514,6.84,0,92.67,1520.9-120,1520.9,0,0,161.29-1490.13-74.47-1490.13,4.89,0,174.25,1508.16-181.66,1508.16,0,0,182.36-1578-57-1578,9.33,0,119.62,1524.57-68.86,1524.57,0,0,149.64-1496.16-122.63-1496.16,7.91,0,69.1,1500-61.56,1500,0,0,118.34-1478.42-68.44-1478.42,9.12,0,70.53,1581.22-102.92,1581.22,0,0,184.58-1576.82-97.64-1576.82,7.26,0,182.68,1551.71-89.07,1551.71,0,0,75.91-1602.55-136.43-1602.55,9.1,0,130.31,1592-86.9,1592,0,0,188.43-1534-88.09-1534,7,0,144,1517.92-150.76,1517.92,0,0,88.28-1601.76-63.29-1601.76,8.15,0,187.46,1603.83-151.34,1603.83,0,0,89.49-1548.81-128.85-1548.81,4.72,0,80.53,1491.43-142.46,1491.43,0,0,162.19-1509.54-174.18-1509.54,9.06,0,72.39,1617.38-128.16,1617.38,0,0,91.39-1617.79-196.31-1617.79,8.16,0,97.94,1589.42-139.33,1589.42,0,0,71.79-1562-130-1562,8.14,0,182.61,1566.06-71.42,1566.06,0,0,78.76-1604.65-179.9-1604.65,4.47,0,162.7,1539.05-65,1539.05,0,0,113.59-1525.09-148.12-1525.09,8.37,0,172.75,1573.45-79,1573.45,0,0,85.53-1519.23-96.69-1519.23,5.49,0,131.85,1474.69-134.78,1474.69,0,0,95.49-1482.14-115.4-1482.14,6.2,0,62.67,1523.54-100.19,1523.54,0,0,167.91-1531.69-146.88-1531.69,8.17,0,87.57,1558.9-172.3,1558.9,0,0,193.46-1582.17-84.65-1582.17,8.7,0,89.09,1498.67-62,1498.67,0,0,176.31-1543.65-123.43-1543.65,9.81,0,165.76,1550.82-150.13,1550.82,0,0,128.73-1481.87-167.46-1481.87,4.55,0,92.67,1514.49-165,1514.49,0,0,107.49-1491.54-68.48-1491.54,8.16,0,65.64,1477.89-108.49,1477.89,0,0,191.3-1490-65.92-1490,8.18,0,60.25,1537.52-107.91,1537.52,0,0,100.74-1561.91-89.49-1561.91,7.69,0,120.37,1571.43-144.31,1571.43,0,0,184.75-1626.27-152.67-1626.27,9.39,0,84.82,1536.19-163.07,1536.19,0,0,180.9-1440.75-90.84-1440.75,7.21,0,189.17,1459.69-109.15,1459.69,0,0,157-1570.79-155.45-1570.79,6.46,0,93.2,1638.59-107.18,1638.59,0,0,138.77-1542.59-108.64-1542.59,7.31,0,91.75,1540.06-72.41,1540.06,0,0,121.7-1605.56-112.68-1605.56,6.84,0,70,1571.58-93.72,1571.58,0C1606.49,1213.52,6.85,908,6.85,1061c0,136.14,1611.55-137.46,1611.55,0,0,177.6-1605.09-111.76-1605.09,9.42,0,163.31,1545.42-160.46,1545.42,0,0,134.61-1514.92-84.88-1514.92,5.26,0,109.93,1537.16-148.41,1537.16,0C1581,1258.9,67.3,955.93,67.3,1082.34c0,143.35,1523.8-128.88,1523.8,0,0,83-1481.71-131.81-1481.71,7.92,0,95,1470.26-101.89,1470.26,0,0,120.13-1544.2-114.65-1544.2,8,0,110.82,1595.46-61,1595.46,0,0,133.87-1522.91-139.45-1522.91,4.52,0,162.43,1524.35-135.33,1524.35,0,0,88.27-1626.15-200-1626.15,5.65,0,115.56,1633.9-115.09,1633.9,0,0,196.45-1569.9-86-1569.9,8,0,123.35,1545.77-69.45,1545.77,0,0,181.3-1591.83-151.14-1591.83,5.8,0,96.59,1615.55-142.35,1615.55,0,0,94.55-1533.16-141.79-1533.16,10,0,173.22,1551.4-111.09,1551.4,0,0,136.42-1588.5-83.29-1588.5,8,0,63.92,1566.68-178.29,1566.68,0,0,122.73-1566.27-106.56-1566.27,9.37,0,108.29,1551.18-115.42,1551.18,0,0,109-1528.08-92.86-1528.08,7.1,0,167.84,1537-109.65,1537,0,0,135.39-1617.85-123.33-1617.85,4.84,0,89.74,1596.93-72,1596.93,0,0,67.63-1577-69.57-1577,5.55,0,168.86,1608.1-74.52,1608.1,0,0,135.08-1572.41-103.28-1572.41,8.68,0,183.48,1542-177,1542,0,0,145.55-1539-147.53-1539,4.7,0,61,1496.56-70.71,1496.56,0,0,107-1538.47-80.09-1538.47,7.38,0,164.72,1587.73-161.1,1587.73,0,0,147.21-1540.42-172.85-1540.42,9.82,0,137.4,1529.76-147.24,1529.76,0,0,146.07-1561.46-63-1561.46,7.71,0,71.72,1549.77-79.78,1549.77,0,0,122.78-1556.29-161.4-1556.29,6.31,0,170.82,1580.17-120.37,1580.17,0,0,204.44-1605.76-160.33-1605.76,9.37,0,132.43,1544.74-73.45,1544.74,0,0,94.45-1442.62-117.52-1442.62,9.89,0,166.3,1520.22-80.91,1520.22,0C1634.69,1344.06,80,1057.1,80,1235.2c0,114.57,1509.94-105.49,1509.94,0,0,178-1490.6-108.24-1490.6,6.76,0,188.09,1486.18-183.92,1486.18,0,0,86.29-1551.08-108.84-1551.08,5.21,0,140.19,1564.16-84.63,1564.16,0,0,143.59-1484-78.56-1484,5.2,0,179.11,1455.7-161.27,1455.7,0,0,175.81-1568.85-127.76-1568.85,8.17,0,79.88,1611.89-154.9,1611.89,0,0,181.52-1513.1-89.13-1513.1,7.44,0,167.57,1459.57-172.82,1459.57,0,0,131.77-1555.28-70.92-1555.28,5.7,0,153.23,1581.44-141.46,1581.44,0"/></g></g></g></svg>