<svg xmlns="http://www.w3.org/2000/svg" viewBox="0 0 1668.96 785.8"><defs><style>.cls-1{opacity:0.08;}.cls-2{fill:none;stroke:#fff;stroke-linecap:round;stroke-linejoin:round;stroke-width:2.88px;}</style></defs><title>ripples</title><g id="Layer_2" data-name="Layer 2"><g id="Layer_2-2" data-name="Layer 2"><g class="cls-1"><path class="cls-2" d="M49.73,53.92c0,132,1535.79-83.66,1535.79,0,0,181.49-1519.94-102.84-1519.94,5.47,0,182.21,1526.66-184.56,1526.66,0,0,88.43-1581.75-61.55-1581.75,7.49,0,60.43,1548.8-173.78,1548.8,0,0,115-1493.59-74.69-1493.59,4.77,0,142.86,1601.42-161.31,1601.42,0,0,118.64-1640.57-64.24-1640.57,5.43,0,128.59,1602.24-81.88,1602.24,0C1628.79,215,6.85-85.37,6.85,86.84c0,99.39,1646.55-79.61,1646.55,0,0,106-1542.46-146.06-1542.46,9.13,0,77.24,1500.88-174.22,1500.88,0,0,181.12-1539-90.2-1539,8.38,0,66.62,1535.4-67.49,1535.4,0,0,85-1503-164.17-1503,7.18,0,132.08,1494.55-149.57,1494.55,0,0,77.09-1527.33-133-1527.33,7.74,0,171.33,1584.89-75.59,1584.89,0,0,191.36-1573-58.85-1573,6,0,64.14,1529.26-82.76,1529.26,0,0,84.35-1525.16-121.61-1525.16,8,0,92.48,1513.22-171.42,1513.22,0,0,149.34-1497.83-156.5-1497.83,6.46,0,72,1478.61-167.87,1478.61,0,0,150.15-1534-76.73-1534,9.74,0,114.71,1619.09-158.31,1619.09,0,0,123.71-1564.38-80.19-1564.38,6.68,0,125.34,1473.33-190,1473.33,0,0,143.06-1512.58-59.85-1512.58,8.18,0,93.74,1517.76-154.31,1517.76,0,0,203.75-1572.59-124.82-1572.59,6.52,0,126.07,1640.71-189.87,1640.71,0,0,77.52-1569.6-191.64-1569.6,7.79,0,153.84,1582.9-64.05,1582.9,0,0,174.83-1649.46-163.11-1649.46,4.82,0,99.58,1584.45-135.47,1584.45,0,0,138.27-1523.78-171.94-1523.78,5.94,0,119.3,1562-152.38,1562,0C1636.28,329.87,56.57,62.57,56.57,198c0,79.47,1512-157.79,1512,0,0,168.86-1560.19-80.4-1560.19,4.71,0,60.82,1580.76-189.81,1580.76,0,0,106.88-1573.48-75.8-1573.48,6.49,0,156.12,1607.52-152.66,1607.52,0,0,176.56-1569.38-152.48-1569.38,7.53,0,99.8,1542-92.15,1542,0,0,71-1504.19-132.24-1504.19,7.45,0,114.12,1477.83-175.26,1477.83,0C1569.5,304,69.11,73.11,69.11,233.66c0,123.17,1586.56-60.64,1586.56,0,0,176.76-1560.5-143.76-1560.5,5.34,0,130.26,1457.13-72.15,1457.13,0,0,184.35-1506.7-81.17-1506.7,5.53,0,187.16,1532.34-168,1532.34,0,0,132.69-1570.41-116.5-1570.41,9.6,0,74.72,1616.76-83.64,1616.76,0,0,194.73-1516.71-62.16-1516.71,8.82,0,113.27,1458.59-120.76,1458.59,0,0,82.44-1471.81-67.58-1471.81,4.59,0,162.14,1463.61-83.28,1463.61,0C1558,402,117.74,119.17,117.74,272.9c0,146.45,1484.72-137.71,1484.72,0,0,99.08-1593-165.62-1593,8,0,139.51,1622.5-64,1622.5,0,0,103.81-1617.4-71.28-1617.4,9.28,0,61.42,1586.92-132.21,1586.92,0,0,122.6-1505.33-82.93-1505.33,6.54,0,116.46,1479.47-186.68,1479.47,0C1575.64,481.36,114,124.83,114,306.23c0,116,1444.21-65.78,1444.21,0,0,104.19-1446.75-134.4-1446.75,7.45,0,75.65,1517.08-89,1517.08,0,0,141.5-1540.08-134.49-1540.08,9.61,0,95.88,1521.67-80,1521.67,0,0,195.4-1590.17-122.88-1590.17,10,0,82.44,1602.55-92.52,1602.55,0,0,135.44-1558-176.6-1558,8.32,0,98,1601.94-190.25,1601.94,0C1666.48,437.21,4,227,4,347c0,138.53,1549.3-78.68,1549.3,0,0,172.57-1466.21-73-1466.21,9.44,0,113.18,1579.5-170,1579.5,0,0,118.94-1650.1-138.63-1650.1,6.26,0,92.23,1535.61-63.91,1535.61,0,0,181.93-1442.7-157.79-1442.7,6.83,0,98.63,1505.34-164.8,1505.34,0,0,190.31-1600.55-155.19-1600.55,4.44,0,134.72,1584.79-169.33,1584.79,0,0,162.83-1503.55-163-1503.55,6.46,0,108.82,1549.24-137.72,1549.24,0,0,95.71-1562.93-99.89-1562.93,7.2,0,168.43,1577.46-100.35,1577.46,0,0,118.32-1614.86-119.76-1614.86,9.34,0,130,1570.52-107.91,1570.52,0,0,130.21-1500.63-113.21-1500.63,9.48,0,104,1489.11-174.78,1489.11,0,0,160.55-1542.53-100.6-1542.53,7,0,82.47,1494.38-135.62,1494.38,0,0,142.53-1436.09-169.85-1436.09,5.08,0,159.62,1548.24-74.63,1548.24,0,0,89.08-1577.34-91.08-1577.34,8.7,0,143.49,1555.68-143.68,1555.68,0,0,84.36-1556.5-64.69-1556.5,7.83,0,65,1495.48-160.45,1495.48,0,0,187.69-1539-155.28-1539,8.14,0,83.25,1522.46-113.66,1522.46,0,0,150.69-1503.57-166.15-1503.57,6.71,0,78.29,1600.43-67.71,1600.43,0C1665,563,5.54,315.68,5.54,455.73c0,163.54,1650.52-73.64,1650.52,0C1656.06,602,91.2,274,91.2,463.75c0,166.28,1548.59-152.07,1548.59,0,0,115.44-1558.2-182.12-1558.2,5.39,0,102,1574.26-92.76,1574.26,0,0,196.4-1547-129.13-1547,6.3,0,136.25,1457-79.74,1457,0,0,167.26-1504.71-181.21-1504.71,8.62,0,162.3,1557.56-91.69,1557.56,0C1618.63,686,30,311.87,30,493.78c0,140.42,1604.11-106.14,1604.11,0,0,88.55-1632.7-92.51-1632.7,6.56,0,112,1569.49-96.14,1569.49,0,0,134-1537-186-1537,6.21,0,134.49,1550-79.64,1550,0,0,128.74-1550.71-72.18-1550.71,5.88,0,77.19,1547-85.79,1547,0,0,107.5-1565.44-58-1565.44,7.1,0,63.42,1636.44-146.7,1636.44,0,0,205.8-1605.61-91-1605.61,8.14,0,97,1527.59-155.95,1527.59,0C1573.12,610,88.8,366.75,88.8,534.43c0,177.18,1525.74-99.57,1525.74,0,0,67.14-1517.93-56.55-1517.93,5.37,0,172.62,1458.47-156.34,1458.47,0C1555.08,725.6,57.29,419,57.29,549c0,128.25,1541.42-81.23,1541.42,0,0,104-1489.9-84.59-1489.9,7.37,0,103.61,1521.85-85.2,1521.85,0,0,157.6-1600.53-144.21-1600.53,5.35,0,120.95,1621.76-147.66,1621.76,0,0,192.85-1636.6-83.31-1636.6,9.9,0,165,1632.09-158.88,1632.09,0,0,171.06-1588.88-110.47-1588.88,5.95,0,113.72,1598.74-181.68,1598.74,0,0,108.34-1559.14-92.18-1559.14,5.7,0,157.38,1564.1-92.73,1564.1,0,0,89.92-1593.9-158.12-1593.9,7,0,125.18,1544.25-174.07,1544.25,0C1612.55,789,28,492.06,28,598.16c0,87.87,1621.51-108.37,1621.51,0,0,149.06-1570.91-126.95-1570.91,8,0,88.36,1529.66-130.26,1529.66,0,0,99.83-1505-115.06-1505,8,0,79.63,1516.72-82,1516.72,0,0,73.8-1514-186.79-1514,5.48,0,111.24,1515.44-127.66,1515.44,0,0,152.85-1550.61-121-1550.61,10,0,126.1,1508.42-177.59,1508.42,0C1579.27,780,1.46,531,1.46,637.55,1.46,762,1565,540.39,1565,637.55c0,117.93-1462.66-67.88-1462.66,8,0,100.45,1488.12-164.25,1488.12,0,0,133-1538-173.37-1538,6.43,0,99.53,1553.64-74.3,1553.64,0,0,94-1591.95-103.78-1591.95,4.84,0,151.37,1552.66-145.19,1552.66,0C1566.81,775.91,29,475,29,665.12c0,165.3,1636.57-189.5,1636.57,0,0,158.36-1610.15-106.27-1610.15,9.68,0,59.91,1493.64-95.37,1493.64,0,0,142.72-1438.18-129.22-1438.18,5.78,0,157.45,1503.66-149.78,1503.66,0,0,182.44-1547.86-85.22-1547.86,4.86,0,150.53,1529.71-64.43,1529.71,0,0,156.07-1557.84-113.35-1557.84,5,0,67.18,1538.46-124.86,1538.46,0,0,123.63-1468.9-134.14-1468.9,7,0,74.33,1554.88-166.06,1554.88,0C1663,867.3,117.65,556,117.65,703.53c0,77.52,1466.36-186.41,1466.36,0,0,145.1-1503.53-93.6-1503.53,8.39,0,164.8,1586.26-158.64,1586.26,0,0,129-1589.85-136.72-1589.85,6.92,0,165.69,1477.37-124.64,1477.37,0,0,168.08-1468.69-123.49-1468.69,5.37,0,63,1498-66.27,1498,0C1583.56,822.77,57,623.32,57,731.6c0,160.67,1559.14-107.07,1559.14,0,0,127.33-1600.37-160.78-1600.37,8.95,0,139.84,1543.26-129.14,1543.26,0"/></g></g></g></svg>