<svg xmlns="http://www.w3.org/2000/svg" xmlns:xlink="http://www.w3.org/1999/xlink" viewBox="0 0 1650 4565.66"><defs><style>.cls-1{fill:url(#linear-gradient);}.cls-2{fill:#0b0c0e;}</style><linearGradient id="linear-gradient" x1="825" y1="1922.66" x2="825" gradientUnits="userSpaceOnUse"><stop offset="0" stop-color="#0b0c0e"/><stop offset="0.26" stop-color="#131a12"/><stop offset="0.59" stop-color="#192415"/><stop offset="1" stop-color="#1b2716"/></linearGradient></defs><title>treestwo</title><g id="Layer_2" data-name="Layer 2"><g id="Layer_2-2" data-name="Layer 2"><path class="cls-1" d="M0,282.66v1629l1650,11v-1395l-5.75-6.33-6.9-43.18-16.67-5.81-3.8-20.73-20.06,5-10.14-8.3,6.64-9.52-5-11.21L1570.93,435l.79-17-4.31-9-9.28-1.71,1.11-12.83,4-7.68-2-12.3-9.81-.18-8,12.56-6.86,25.14-18.26,3.42v23.3h-20.57l18.75,19.12L1515,474.77l-44.58-.21-8.17,9.45-4,14.36,48.23,25.71-11,14.17-29.72,1.1,2.2,16.52,29.69,34.39v35.42L1467,626.81V615.93l-18.39-10.8-18.26-8-6.86-13.72-16,8L1420,615.93l17.13,16.6v24l8,18.29,31.62-4.57,20.93,29.12-6.78,16.81v13.45l-11.63,1.84-2.52,24.45L1461,754.07l-16-19.56-10.4,6.72-15.29-.61-11.63,16.53,9.79,10.39,8,6.11-4.89,13.45-9.77,5.5-5.16,7.2-6.94.31,5.42,9.65,4.23,2.1,10.23-1.21V817l-4.22,1.49-5.71,7.53-1.51,9h6.91l3.93-5.38,6.61-2.15,4.23-.6h4.81l6.92,2.75,3,7.48,5.42,5.12,6.62-2.41,3,8.42,2.41,7.24v13.23l-4.81,6.93-10.24-.91h-14.16l-10.82.61-6-6-4.2-7.22-6.64-.61-4.2-9.32-1.8-9.93-7.53-.3-6-3.91-2.4-9.95-8.74-9.93-3.9.61-10.24-.31-3.92-1.8-4.82-2.26h-7.82l-2.41-4.07-7.52-5.12-7.83-4.81-2.41-7.22-8.72-2.41v-4.51l-3.92-6-9.63-3.32-10.84-3,.3-9-2.71-4.81-5.72-8.43-6,4.22-7.52-6.33-12.64-.3-1.52-6.92-8.72-4.81-10.23,1.19-5.42-5.7-7.22.58-3.32,1.22-.61,7.22,12.34,5.42-.89,12.34L1238,761l.61,6.92,2.11,3.62,9.34,1.19,16-1.19,7.22,3.6v8.13l-9,3.32-11-.63-1.16,6.37,5.79,7,10.43,1.74,1.74,8.39-1.45,7.24-6.66,6.39,4,9,6.73-2.36h11.39L1289.5,842v12.37l7.42,1,6.44-3.46,6.93,6.43v11.87l11.39,1.48,15.39-1.48v16.32l-5.5,4.47-5.44,3.46-10.88-.5-10.4,8.41h-8.41l-6.43,4.47v11.87l9.89,2.47,6.94-3.46,8.41,4,.48,10.39h21.34l4.39-5V922.7l10.44-2.49h14.32l5.44,6.43-6,6.45h-9.38l-12.38-.5,2,9.4-8.86,6-6.49.49h-9.89v8.92l7.42,2.61,12.36-4.6,5.46,8.9,10.88-2,6.44,8.42-5.44,8.41H1343v5.95l8.94,3,8.37-1.5,1.5,8.42,3.94,5.44-4.93,10.39-8.88-1-4.49-7.42-4-6.92-6.37,4.94-6.49-5.93-6.92-2.49-8.41,4,2.47,9.91,4,8.41,9.89,4,9.89-2,.51,10.91,5,7.66,10.93,5,5.7,5.46-3.8,5.7h-7.87l-2.59,8.56,2.59,8.07-6.86,5.24-8-1-2-8.09-8.56.48-2.36-6.65-2.39-5.24-8.07,1.9-8.55,4.75-1.91-4.75-8.55-.47-.49-6.18-12.82.48-.49-4.29-4.26-4h-6.19l-6.17,11.16-7.61-1-7.14,1-5.7-.48-1,6.19,6.65,4.26,6.66-1.41,4.75.46,1.9,5.24,9.51,2.37,10-1.9,3.8,6.19,7.12,1v8.07l4.76.48v8.86h5.23l3.81,6.82-2.39,5.52,3.07,1.4,1.12,2.77-1.12,5.86.55,5.28s4.73,3.91,5.58,3.91h9.75l8.07-2.51,5.42,1.68v15.87l-4.3,4.74s-5.28,3.07-8.36,3.07l-12,.83-4.74-7h-8.37l-3-1.66-6.13-2.79h-3.34a3.93,3.93,0,0,1-2.51,1.68c-1.68.28-3.9-1.68-3.9-1.68l-3.62-.83-2,5,7,4.17,1.12,2.79,3.9,2.22,5.85-3.62,1.68,2.51,4.73,1.11,5-.28,1.12,4.47-.85,3.05-1.38,4.47h-12.28l-5.84-.85-3.34-.54-7,3.33v3.34l6.13,4.75,7.24.83,5.57,7.53a84.3,84.3,0,0,0,7.8,3.34c1.4.28,3.91,6.41,3.91,6.41l2.5,6.41-4.18,2.22,2.51,10.3v7.26l-2,9.18,2,7.53s-3.34.28-11.43,1.39-8.68-1.23-8.68-1.23h-7.34l-4.49-2.89-3.2-6.9-8.63,3.38h-10.89v-8.32h-8.63l-5.12-7.66h-5.12l-1.27-4.49-4.79-6.13,1.27-8.27-.65-10.24,7.37-7,.64-8.63,4.15-8.32v-16.3l-2.23-9.28-8-3.52-3.19-11.51-6.07,1.27-6.09-1.92h-6.43l-8-.64-1.9-9.27,3.82-4.16,6,2.24,6.43-5.44,2.87-9.59v-7.38l-5.78-4.31-9.49-4.12,6-3.18-6-6.84-7.32-3.48-3.27-1.37-1-7.59.53-5.68,5.68-5.86-1-2.94,1.9-.85,2.15-.87v-3.92l-6.64,1.21h-7.87l-2.4-7.56v-7.24l-4.53-2.43-2.43-5.14-4.53,5.75-1.21,7.87,3.33,4.53v11.46l-4.24,6-8.76-.91-6-4.23-3-1.51v-5.42l-7.57-3v-11.77l-11.77-.3-7-6-4.53.3-4.23-.91V1005l-3.31-4.53-7-1.21V992l-8.45-.6-7.27-7.85-3.92-.61v-8.15l-5.74,6.35L1077.33,992l-3.6,5.44-.59,3.93,2.11,3.94v4.84l.3,3.92-1.82,7.24,5.74,6.66-3.62,6,7.51,7.51v11.77l-12.85,11.25v16.58l-8.55-1.07-6.54,17.13-12.62,3.64v-8.47l-1.15-13.33,10.56-5.5,3.21-6.66-5.52-1.15-1.13-11.25-12.18-2.28-6.65,1.84-1.15-3.91-.23-9.18,6.19-2.53,3.91-3.44,2.06-2.52,4.59-.23-.93-6.35-12-3-10.48-10.48-3.74-9H1007v-20.2l-9.89,7.48v19.46l-5.64,10,5.64,6.27-4.39,9.42-30.4,4H943.37l-6-6.78v-11.89l-11.89-5.2-8.19-5.95,11.16-1.49,14.12,2.24,4.84-10.41-4.09-14.87-10.42.75-9.66-1.5V968.35l-11.9-3V940.09L901,944.7l-8.2,11v12.64l-17.09,10.4v11.89l-8.17,4.47H855.65l-10.42-1.5-4.45,8.19v7.43L849,1013l8.92,5.2,12.65,6.69-4.47,10.42-15.6-4.47v22.31l-12.64,5.2-5.4,16.7-5,9.31-9.85.74v9.67l9.85,13.37L840,1121.48l-12.62,5.2-9.85,3.72,14.85,7.42,6.15,31.23,7.42,21.56-28.42,6.7L796,1183.8l-9.42-11.41-11.82-3.54H760.59l-3.93-6.69-2.36-19.66-5.12-5.12-8.25-2.75.38-10.62,5.12-2.37,7.87-5.88-2.37-9.45-12.18-2.75v-13.33H724.81l-1.58,14.12v16.5l-4.47,5-7,9.37-15.82,4.1-16.38-2.93-8.19-6.43v-25.77l-18.17-1.76-9.36,8.19-14.06,3.52-8.78-.59,3.5-11.12,4.11-8.78,7-3.44h8.19v-9.44l-6.45-2.35v-15.23l-8.19-5.85-8.78,12.89-12.3,4.75v-17.64l12.3-4.69v-12.88H607.49l-2.93-5.26,8.78-8.78-6.43-6.45-3.52-10.54-7-2.93-3.52,5.28-2.93,11.12-7.61-1.17v18.73l-9.67,4.1-7.9,9.37,2.93,10.54-3.52,7.62,6.45,3.58,8.78,6.37,2.93,8.86-9.67,2.85h-9.06l-2.34,8.2-14.65,2.93-10.53,14.06-1.76,10.53-15.82,4.11-9.37-5.87-1.17-12.29,14.06-5.26v-11.71l10-7.55,7.62-3.6,9.37-5.84V1075l-15.82-2.4h-9.36l-4.69,9.36-14.65,8.27-3.5-11.2,7.61-8.78,17.57-13.47H510.29l-12.89-11.13,5.28-13.47H487.45l-4.1-11.12,16.4-11.13H515l-2.35-8.19h8.19l8.2-6.45-7.61-7H510.29l-2.35-10.54,8.78-8.21L501.51,966l1.17-10-.58-11.35,8.77-5.62h15.82l7.61-2.93V924.44l-10.54-3.52-7.63-6.43-.56-5.28h-6.46l-.58-9.37.58-11.12-8.19-6.45,11.71-4.09,2.94-10.54,11.71-3.52-3.52-12.88H538.4V836H527.84l-8.19-6.35,1.76-11.15h14.24V805.59H518.56L515.79,789V775.11l-10.15-2.77-6.48,15.23-8.76,8.78-9.24,9.24-27.71-1.86-14.32-3.22V783.87l-15.71-6,1.86-10.36-5.79-5-5.76-10.38-8.07-3.46-.77-8.84,1.15-8.07,6.15-4.22s6.15-3.08,25.77-3.46l4.81-3.87v-7.68l-24-2.69s-8.07.77-4.61-8.84l8.46-8.84,11.55.77,6.14-3.08h17.3l-2.69-10.37-10.38-3.84L432,675.27l-10.62,1.92L419.49,671l2.69-7.32L432,651l-6.37-4L416.4,646l2.65-9.54-4.78-9,.53-18.81,1.6-10.6-2.39-6.9-8.21-1L398.9,597l-7.66-.53-1.6,10.34v4.77l-4,3.7V631.4l-9.2-.52-16.5-.79-1.06,7.66,7.35,1.4v16.58H354.4l-11.85,11.86,4.75,16.52-15.41,6L320,699.36H304.65l-6.58-24.67h22l10.68-8.3-9.49-21.32v-13l12.64-7.63,5-19.29-10-8.92-6.07-12.72-2.22-11.09v-7.18h13.83L340,573l10.5,8.29,4.43,12.18h21.58l-4.41-7.2-7.77-10.5-5.52-10-9.4-6.64L353,541l-1-10.74V518l2.57-8.71s5.11-5.12,7.16-9.71l-4.11-8.7v-8.72L353,484.21l-5.65,6.66-6.65,10.74H326.88l-11.78-5.12-2.2-10.23,6.31-4.11V465.79l9.71-6.15,10.23-14.85,1.54-11.26-.51-10L353,420.75V396.17l-4.61-1.54h-7.69l-3.07,9.23-9.21,15.35-15.51,4.31-4.45,12.58.51,14.32-7.16,7.18-11.25,10.23,2.55,14.85-6.66,9.2-4.61,9.73L273.64,497H252.16l-4.61-11.27L246,477l10.24-5.62,1.53-7.68,6.66-3.58h9.2V438.77l10.76-3.7v-6.13l-8.7-5.42-2.06-7.39-.51-9.2,6.66-7.69,5.62-3.58h17.42l6.13-5.11,11.08-8.3V371.17H307.12l-9.05-12,14.83-8.3L320,340.73H307.12l-9.05,4-7.16,1.44h-6.43L283.05,339l-.71-6.43,4.29-2.51-1.08-11.79,2.15-6.09h10.37v-8.94h-15l-3.16-4.53L286,288.32l12.09-8.81-11.2-.87v-8.7l-18.31-3.5-14.8,2.63-26-3.95-2.77-10,.87-9.58,10.45-.87V221.15l-5.24-10.9-4.34,16.12v7.85l-16.55,7-16.56-1.74L191,225.5l-.87-15.25,5.24-8.27,11.3-10.44,8.72-.87,7-7.85-8.72-4.65-13.83,3-14,15.15-17.7,6.06h-9L158.61,186l4.86-11.51,4.73-6.07L183,157.54l10.15-13.39V132.08L183,135.72l-2.59,8.43-5.38,3.7-6.86,4.27-16,3.54L148,147.87l3.66-8.86,11.28-16.72,5.26-1.9,6.86-1.93V91.08L168.2,87.9V67.52l-4.61-10.83-7-5.09-6.37,3.17L147,67.52h-7.64l-10.82,7L119,70.69l-2.55-7.62V52.87l17.84-.65-3.17-19.58h-7.65l5.1-11L117.8,18.47V0H104.35L101.8,7.65v8.92h-7l-14,8.91-2.54,7.16,15.91,4.29L99.9,56.69H80.14L66.77,65l3.82,12.09-7,14.67H53.15v7.64l-9.32,5.73H37.46l-3.28,19.74H48.3l4.85,14.66,15.54,5.08,8.9,5.09L80,156.93l-1,14.49-7.48,6.75L63,180.4l-22,4H10.6v5.85H24L34.18,198l14.12,4.9H58l6.84,13.69,15.21,5.77L66.61,227.5,57,229.12l-10.58,4.17-1.27,5.76,1.27,5.44,1.88,5.38H72.49l19.42-5.66,8.9-3.24h17v21H44.15l4.15,9.85-12.42,8.23L10.6,271.86M229.55,695l7.12-6.61h8.63l1-10.68,7.11-1L256.51,665l10.15-3.56,11.71,5.07,2,17.58,8.15,7.34L282.94,696H268.71l-.51,8.15-5.1,5.59H247.35l-24.42-2Zm83.35,50.35-11.65,18.83-12.7,15.75L284,792.16l-19.83,8.57-11.2,13.68-13.71-2.94V800.29l2.52-13.23,7.63-15.75,6.37-9.17L268.2,753l4.57-17.8,15.78-4.59,6.61-7.62H312.9Zm155.17,84.3L461,840l-11.19,8.4v6.37l-9.16,4.06L436,865.4,428,872.52l-3.12,12.19-12.19,12.73-12.73-3.56-6.09-9.17V864.37l17.8-14.24V836.9l10.18-5.08,15.75-10.68L451.29,812l16.78,2.43Z"/><rect class="cls-2" y="1900.66" width="1650" height="2665"/></g></g></svg>